<svg width="3669" height="1839" viewBox="0 0 3669 1839" fill="none" xmlns="http://www.w3.org/2000/svg">
<path d="M1763.82 164.768C1302.17 207.893 866.148 326.746 549.361 495.812C232.574 664.879 60.2722 870.683 69.4418 1069.05C78.6113 1267.41 268.522 1442.52 598.406 1556.78C928.291 1671.05 1371.85 1715.36 1833.88 1680.21C2295.9 1645.06 2739.55 1533.24 3069.6 1368.77C3399.65 1204.3 3589.78 1000.28 3599.19 800.5C3608.59 600.725 3436.52 421.122 3119.9 300.244C2803.28 179.367 2367.37 126.852 1905.72 153.972L1898.25 234.094C2311.57 209.813 2701.87 256.831 2985.34 365.057C3268.82 473.282 3422.89 634.088 3414.47 812.953C3406.05 991.819 3235.81 1174.49 2940.31 1321.75C2372.06 153.972 2247.59 1569.12 1833.92 1600.59C1420.26 1632.06 1023.12 1592.38 727.764 1490.08C432.406 1387.77 842.212 990.554 834.002 812.953C825.792 635.353 400.221 691.527 683.852 540.156C967.483 388.784 1180.67 403.669 1594 365.057L1763.82 164.768Z" fill="white"/>
<path d="M2719 378L2175.69 378V921.537L2719 921.537V378Z" fill="white"/>
<path d="M2719 921.537L2175.69 921.537L1801 1249.53L2512.92 1337L2719 921.537Z" fill="white"/>
<path d="M2675 354L2131.69 354V897.537L2675 897.537V354Z" fill="#4D94FF"/>
<path d="M2675 897.537L2131.69 897.537L1757 1225.53L2468.92 1313L2675 897.537Z" fill="#4D94FF"/>
<path d="M2610 410L2195.71 410V824.313H2610V410Z" fill="white"/>
<path d="M949 378H1492.31V921.537H949V378Z" fill="#4D94FF"/>
<path d="M949 921.537H1492.31L1867 1249.53L1155.08 1337L949 921.537Z" fill="#4D94FF"/>
<path d="M993 354H1536.31V897.537H993V354Z" fill="white"/>
<path d="M993 897.537H1536.31L1911 1225.53L1199.08 1313L993 897.537Z" fill="white"/>
<path d="M1058 410H1472.29V824.313H1058V410Z" fill="#4D94FF"/>
<circle cx="1275" cy="608" r="108" fill="white"/>
<circle cx="1275" cy="608" r="108" fill="white"/>
<ellipse cx="1274.5" cy="919" rx="162.5" ry="222" fill="white"/>
<circle cx="2403" cy="608" r="108" fill="#4D94FF"/>
<ellipse cx="2402.5" cy="919" rx="162.5" ry="222" fill="#4D94FF"/>
<rect x="1669" y="634" width="340" height="164" fill="#4D94FF"/>
<path d="M1736.21 671.99V754.35H1773.13V765H1724.14V671.99H1736.21ZM1800.14 671.99V765H1788.07V671.99H1800.14ZM1883.69 671.99L1855.71 765H1839.81L1812.69 671.99H1825.47L1847.76 753.356L1870.91 671.99H1883.69ZM1945.23 671.99V682.924H1908.31V712.318H1942.39V723.11H1908.31V754.066H1945.23V765H1896.24V671.99H1945.23Z" fill="white"/>
<rect x="1312" y="1386" width="1044" height="164" fill="#4D94FF"/>
<path d="M1414.17 1502L1413.61 1441.74L1398.04 1494.38H1386.28L1370.71 1441.74L1370.15 1502H1360.86L1361.53 1428.64H1375.64L1392.22 1485.87L1408.68 1428.64H1422.79L1423.46 1502H1414.17ZM1448.69 1447.34V1502H1439.17V1447.34H1448.69ZM1443.87 1425.28C1445.89 1425.28 1447.42 1425.73 1448.46 1426.62C1449.58 1427.52 1450.14 1428.79 1450.14 1430.43V1433.68C1450.14 1435.32 1449.58 1436.59 1448.46 1437.49C1447.42 1438.31 1445.89 1438.72 1443.87 1438.72C1441.93 1438.72 1440.4 1438.31 1439.28 1437.49C1438.23 1436.59 1437.71 1435.32 1437.71 1433.68V1430.43C1437.71 1428.79 1438.23 1427.52 1439.28 1426.62C1440.4 1425.73 1441.93 1425.28 1443.87 1425.28ZM1488.18 1446C1492.96 1446 1496.62 1447.64 1499.16 1450.93C1501.77 1454.14 1503.08 1458.73 1503.08 1464.7V1502H1493.56V1466.05C1493.56 1458.58 1491.13 1454.85 1486.28 1454.85C1484.11 1454.85 1481.91 1455.67 1479.67 1457.31C1477.43 1458.95 1475.49 1461.19 1473.84 1464.03V1502H1464.32V1447.34H1473.28V1455.52C1475.3 1452.46 1477.54 1450.11 1480 1448.46C1482.54 1446.82 1485.27 1446 1488.18 1446ZM1537.39 1446C1544.03 1446 1548.96 1447.79 1552.17 1451.38C1555.45 1454.89 1557.1 1459.89 1557.1 1466.38V1482.96C1557.1 1489.46 1555.45 1494.5 1552.17 1498.08C1548.96 1501.59 1544.03 1503.34 1537.39 1503.34C1530.74 1503.34 1525.77 1501.59 1522.49 1498.08C1519.28 1494.5 1517.67 1489.46 1517.67 1482.96V1466.38C1517.67 1459.89 1519.28 1454.89 1522.49 1451.38C1525.77 1447.79 1530.74 1446 1537.39 1446ZM1537.39 1453.95C1534.17 1453.95 1531.67 1454.96 1529.88 1456.98C1528.09 1458.99 1527.19 1461.87 1527.19 1465.6V1483.74C1527.19 1487.48 1528.09 1490.35 1529.88 1492.37C1531.67 1494.38 1534.17 1495.39 1537.39 1495.39C1540.6 1495.39 1543.1 1494.38 1544.89 1492.37C1546.68 1490.35 1547.58 1487.48 1547.58 1483.74V1465.49C1547.58 1461.75 1546.68 1458.92 1544.89 1456.98C1543.1 1454.96 1540.6 1453.95 1537.39 1453.95ZM1595.48 1446C1596.52 1446 1597.34 1446.07 1597.94 1446.22V1456.98C1596.82 1456.75 1595.37 1456.64 1593.57 1456.64C1588.35 1456.64 1584.2 1459.25 1581.14 1464.48V1502H1571.62V1447.34H1580.58V1455.52C1582.6 1452.46 1584.84 1450.11 1587.3 1448.46C1589.84 1446.82 1592.57 1446 1595.48 1446ZM1617.56 1447.34V1502H1608.04V1447.34H1617.56ZM1612.75 1425.28C1614.76 1425.28 1616.29 1425.73 1617.34 1426.62C1618.46 1427.52 1619.02 1428.79 1619.02 1430.43V1433.68C1619.02 1435.32 1618.46 1436.59 1617.34 1437.49C1616.29 1438.31 1614.76 1438.72 1612.75 1438.72C1610.81 1438.72 1609.28 1438.31 1608.16 1437.49C1607.11 1436.59 1606.59 1435.32 1606.59 1433.68V1430.43C1606.59 1428.79 1607.11 1427.52 1608.16 1426.62C1609.28 1425.73 1610.81 1425.28 1612.75 1425.28ZM1644.4 1447.34H1658.96V1455.18H1644.4V1487.22C1644.4 1490.05 1644.96 1492.11 1646.08 1493.38C1647.27 1494.57 1649.1 1495.17 1651.57 1495.17C1654.7 1495.17 1657.76 1494.79 1660.75 1494.05L1660.98 1502C1657.69 1502.9 1654.7 1503.34 1652.02 1503.34C1646.04 1503.34 1641.67 1502.04 1638.91 1499.42C1636.22 1496.74 1634.88 1492.41 1634.88 1486.43V1455.18H1627.04V1447.34H1634.88L1636.67 1432.78H1644.4V1447.34ZM1712.01 1447.34L1686.92 1522.72H1677.4L1684.57 1502H1680.98L1665.42 1447.34H1675.83L1687.59 1495.17L1702.15 1447.34H1712.01ZM1760.98 1427.3C1769.79 1427.3 1776.32 1429.09 1780.58 1432.67C1784.91 1436.18 1787.08 1441.22 1787.08 1447.79V1450.48C1787.08 1457.5 1784.98 1462.91 1780.8 1466.72C1776.62 1470.53 1770.31 1472.43 1761.88 1472.43C1758.52 1472.43 1754.93 1472.13 1751.12 1471.54V1502H1741.6V1427.86C1747.95 1427.48 1754.41 1427.3 1760.98 1427.3ZM1760.76 1435.36C1757.47 1435.36 1754.26 1435.43 1751.12 1435.58V1463.36C1755.6 1463.96 1759.04 1464.26 1761.43 1464.26C1772.18 1464.26 1777.56 1459.51 1777.56 1450.03V1448.13C1777.56 1443.87 1776.21 1440.7 1773.52 1438.61C1770.84 1436.44 1766.58 1435.36 1760.76 1435.36ZM1822.1 1446C1823.15 1446 1823.97 1446.07 1824.57 1446.22V1456.98C1823.45 1456.75 1821.99 1456.64 1820.2 1456.64C1814.97 1456.64 1810.83 1459.25 1807.77 1464.48V1502H1798.25V1447.34H1807.21V1455.52C1809.22 1452.46 1811.46 1450.11 1813.93 1448.46C1816.46 1446.82 1819.19 1446 1822.1 1446ZM1852.49 1446C1859.14 1446 1864.07 1447.79 1867.28 1451.38C1870.56 1454.89 1872.21 1459.89 1872.21 1466.38V1482.96C1872.21 1489.46 1870.56 1494.5 1867.28 1498.08C1864.07 1501.59 1859.14 1503.34 1852.49 1503.34C1845.85 1503.34 1840.88 1501.59 1837.6 1498.08C1834.39 1494.5 1832.78 1489.46 1832.78 1482.96V1466.38C1832.78 1459.89 1834.39 1454.89 1837.6 1451.38C1840.88 1447.79 1845.85 1446 1852.49 1446ZM1852.49 1453.95C1849.28 1453.95 1846.78 1454.96 1844.99 1456.98C1843.2 1458.99 1842.3 1461.87 1842.3 1465.6V1483.74C1842.3 1487.48 1843.2 1490.35 1844.99 1492.37C1846.78 1494.38 1849.28 1495.39 1852.49 1495.39C1855.71 1495.39 1858.21 1494.38 1860 1492.37C1861.79 1490.35 1862.69 1487.48 1862.69 1483.74V1465.49C1862.69 1461.75 1861.79 1458.92 1860 1456.98C1858.21 1454.96 1855.71 1453.95 1852.49 1453.95ZM1904.65 1446C1907.94 1446 1910.92 1446.49 1913.61 1447.46L1931.08 1447.23V1455.63L1921.9 1455.41C1923.17 1458.1 1923.8 1460.9 1923.8 1463.81V1466.27C1923.8 1471.72 1922.12 1476.13 1918.76 1479.49C1915.4 1482.77 1910.7 1484.42 1904.65 1484.42C1900.77 1484.42 1897.59 1484.04 1895.13 1483.3C1893.49 1484.64 1892.67 1486.17 1892.67 1487.89V1488.56C1892.67 1489.75 1893.04 1490.65 1893.79 1491.25C1894.53 1491.77 1895.99 1492.11 1898.15 1492.26L1914.84 1493.49C1918.28 1493.79 1921.04 1495.09 1923.13 1497.41C1925.3 1499.65 1926.38 1502.49 1926.38 1505.92V1510.06C1926.38 1513.27 1925.74 1515.89 1924.47 1517.9C1923.21 1519.92 1920.85 1521.45 1917.42 1522.5C1914.06 1523.54 1909.21 1524.06 1902.86 1524.06C1900.47 1524.06 1897.63 1523.8 1894.35 1523.28C1891.14 1522.76 1888.07 1522.09 1885.16 1521.26L1885.5 1512.42C1892.44 1514.73 1898.34 1515.89 1903.19 1515.89C1907.23 1515.89 1910.21 1515.63 1912.15 1515.1C1914.17 1514.66 1915.48 1513.95 1916.07 1512.98C1916.75 1512.01 1917.08 1510.55 1917.08 1508.61V1507.71C1917.08 1505.99 1916.6 1504.65 1915.63 1503.68C1914.73 1502.71 1913.42 1502.19 1911.71 1502.11L1894.91 1500.99C1891.32 1500.77 1888.6 1499.76 1886.73 1497.97C1884.86 1496.18 1883.93 1493.75 1883.93 1490.69V1488.45C1883.93 1486.81 1884.34 1485.2 1885.16 1483.63C1886.06 1482.06 1887.33 1480.68 1888.97 1479.49C1887.7 1478.07 1886.77 1476.28 1886.17 1474.11C1885.65 1471.87 1885.39 1469.15 1885.39 1465.94V1463.47C1885.39 1458.17 1887.03 1453.95 1890.31 1450.82C1893.6 1447.61 1898.38 1446 1904.65 1446ZM1904.65 1453.95C1901.51 1453.95 1899.09 1454.77 1897.37 1456.42C1895.73 1457.98 1894.91 1460.26 1894.91 1463.25V1466.94C1894.91 1469.71 1895.13 1471.76 1895.58 1473.1C1896.1 1474.37 1897 1475.27 1898.27 1475.79C1899.54 1476.24 1901.44 1476.46 1903.98 1476.46C1907.41 1476.46 1909.99 1475.64 1911.71 1474C1913.42 1472.36 1914.28 1470.01 1914.28 1466.94V1463.58C1914.28 1460.45 1913.83 1457.72 1912.94 1455.41C1912.04 1455.03 1910.81 1454.7 1909.24 1454.4C1907.75 1454.1 1906.22 1453.95 1904.65 1453.95ZM1963.85 1446C1964.9 1446 1965.72 1446.07 1966.32 1446.22V1456.98C1965.2 1456.75 1963.74 1456.64 1961.95 1456.64C1956.72 1456.64 1952.58 1459.25 1949.52 1464.48V1502H1940V1447.34H1948.96V1455.52C1950.97 1452.46 1953.21 1450.11 1955.68 1448.46C1958.21 1446.82 1960.94 1446 1963.85 1446ZM1991.47 1446C1997.89 1446 2002.55 1447.46 2005.47 1450.37C2008.45 1453.21 2009.95 1457.76 2009.95 1464.03V1502H2000.87V1493.26C1996.54 1499.98 1991.65 1503.34 1986.2 1503.34C1981.87 1503.34 1978.4 1501.85 1975.79 1498.86C1973.25 1495.88 1971.98 1491.81 1971.98 1486.66V1483.52C1971.98 1479.04 1973.51 1475.34 1976.57 1472.43C1979.63 1469.45 1983.74 1467.95 1988.89 1467.95C1991.73 1467.95 1995.57 1468.44 2000.43 1469.41V1463.25C2000.43 1460.04 1999.68 1457.72 1998.19 1456.3C1996.77 1454.89 1994.53 1454.18 1991.47 1454.18C1987.88 1454.18 1982.84 1454.74 1976.35 1455.86V1447.68C1983.36 1446.56 1988.4 1446 1991.47 1446ZM1991.24 1475.34C1988.11 1475.34 1985.72 1476.17 1984.07 1477.81C1982.43 1479.45 1981.61 1481.77 1981.61 1484.75V1485.98C1981.61 1488.75 1982.24 1490.91 1983.51 1492.48C1984.78 1494.05 1986.39 1494.83 1988.33 1494.83C1990.35 1494.83 1992.4 1493.97 1994.49 1492.26C1996.65 1490.46 1998.63 1487.96 2000.43 1484.75V1476.13C1997.59 1475.61 1994.53 1475.34 1991.24 1475.34ZM2077.62 1446C2082.4 1446 2086.06 1447.64 2088.59 1450.93C2091.13 1454.14 2092.4 1458.73 2092.4 1464.7V1502H2082.88V1466.05C2082.88 1458.58 2080.49 1454.85 2075.71 1454.85C2073.62 1454.85 2071.46 1455.67 2069.22 1457.31C2067.05 1458.95 2065.15 1461.19 2063.51 1464.03V1502H2053.99V1466.05C2053.99 1458.58 2051.6 1454.85 2046.82 1454.85C2044.73 1454.85 2042.56 1455.67 2040.32 1457.31C2038.16 1458.95 2036.25 1461.19 2034.61 1464.03V1502H2025.09V1447.34H2034.05V1455.52C2035.99 1452.46 2038.23 1450.11 2040.77 1448.46C2043.31 1446.82 2045.96 1446 2048.72 1446C2052.16 1446 2055.03 1446.9 2057.35 1448.69C2059.66 1450.41 2061.34 1452.94 2062.39 1456.3C2064.4 1452.94 2066.72 1450.41 2069.33 1448.69C2071.94 1446.9 2074.71 1446 2077.62 1446ZM2160.63 1446C2165.41 1446 2169.07 1447.64 2171.61 1450.93C2174.15 1454.14 2175.42 1458.73 2175.42 1464.7V1502H2165.9V1466.05C2165.9 1458.58 2163.51 1454.85 2158.73 1454.85C2156.64 1454.85 2154.47 1455.67 2152.23 1457.31C2150.07 1458.95 2148.16 1461.19 2146.52 1464.03V1502H2137V1466.05C2137 1458.58 2134.61 1454.85 2129.83 1454.85C2127.74 1454.85 2125.58 1455.67 2123.34 1457.31C2121.17 1458.95 2119.27 1461.19 2117.63 1464.03V1502H2108.11V1447.34H2117.07V1455.52C2119.01 1452.46 2121.25 1450.11 2123.79 1448.46C2126.32 1446.82 2128.97 1446 2131.74 1446C2135.17 1446 2138.05 1446.9 2140.36 1448.69C2142.68 1450.41 2144.36 1452.94 2145.4 1456.3C2147.42 1452.94 2149.73 1450.41 2152.35 1448.69C2154.96 1446.9 2157.72 1446 2160.63 1446ZM2209.04 1446C2215.31 1446 2220.09 1447.72 2223.38 1451.15C2226.66 1454.59 2228.31 1459.55 2228.31 1466.05V1477.58H2199.52V1484.19C2199.52 1488 2200.42 1490.76 2202.21 1492.48C2204.08 1494.12 2206.99 1494.94 2210.95 1494.94C2214.83 1494.94 2219.68 1494.35 2225.51 1493.15L2225.73 1501.44C2218.79 1502.71 2213.82 1503.34 2210.83 1503.34C2203.44 1503.34 2198.1 1501.74 2194.82 1498.53C2191.61 1495.32 2190 1490.35 2190 1483.63V1466.05C2190 1459.55 2191.57 1454.59 2194.71 1451.15C2197.92 1447.72 2202.69 1446 2209.04 1446ZM2209.04 1453.95C2206.13 1453.95 2203.81 1454.89 2202.1 1456.75C2200.38 1458.54 2199.52 1461.16 2199.52 1464.59V1469.97H2218.79V1464.93C2218.79 1461.34 2217.89 1458.62 2216.1 1456.75C2214.38 1454.89 2212.03 1453.95 2209.04 1453.95ZM2265.07 1446C2266.12 1446 2266.94 1446.07 2267.54 1446.22V1456.98C2266.42 1456.75 2264.96 1456.64 2263.17 1456.64C2257.94 1456.64 2253.8 1459.25 2250.74 1464.48V1502H2241.22V1447.34H2250.18V1455.52C2252.19 1452.46 2254.43 1450.11 2256.9 1448.46C2259.43 1446.82 2262.16 1446 2265.07 1446ZM2294.74 1446C2297.87 1446 2301.65 1446.45 2306.05 1447.34L2305.83 1455.41C2301.94 1454.51 2298.4 1454.06 2295.19 1454.06C2288.47 1454.06 2285.11 1456.23 2285.11 1460.56V1461.57C2285.11 1462.91 2285.44 1463.99 2286.11 1464.82C2286.86 1465.64 2288.17 1466.5 2290.03 1467.39L2300.56 1472.32C2306.91 1475.31 2310.08 1479.67 2310.08 1485.42V1487.89C2310.01 1493.04 2308.44 1496.92 2305.38 1499.54C2302.39 1502.07 2297.65 1503.34 2291.15 1503.34C2287.79 1503.34 2282.98 1502.56 2276.71 1500.99L2277.15 1492.48C2282.75 1494.12 2287.35 1494.94 2290.93 1494.94C2294.59 1494.94 2297.13 1494.46 2298.55 1493.49C2299.97 1492.44 2300.67 1490.76 2300.67 1488.45V1487.33C2300.67 1485.54 2300.3 1484.12 2299.55 1483.07C2298.88 1482.03 2297.73 1481.13 2296.08 1480.38L2285.22 1475.57C2281.93 1474.07 2279.51 1472.28 2277.94 1470.19C2276.45 1468.1 2275.7 1465.67 2275.7 1462.91V1461.34C2275.85 1456.27 2277.42 1452.46 2280.4 1449.92C2283.46 1447.31 2288.24 1446 2294.74 1446Z" fill="white"/>
</svg>
