<svg width="905" height="333" viewBox="0 0 905 333" fill="none" xmlns="http://www.w3.org/2000/svg">
<path d="M562.5 174.5C562.5 240.222 509.222 293.5 443.5 293.5C377.778 293.5 324.5 240.222 324.5 174.5C324.5 108.778 377.778 55.5 443.5 55.5C509.222 55.5 562.5 108.778 562.5 174.5Z" stroke="#2ED270" stroke-width="29"/>
<path d="M527 234.5C527 255.763 509.763 273 488.5 273C467.237 273 450 255.763 450 234.5C450 213.237 467.237 196 488.5 196C509.763 196 527 213.237 527 234.5Z" stroke="#2ED270" stroke-width="12"/>
<path d="M393 190C393 207.121 379.121 221 362 221C344.879 221 331 207.121 331 190C331 172.879 344.879 159 362 159C379.121 159 393 172.879 393 190Z" stroke="#2ED270" stroke-width="8"/>
<path d="M484 95C484 112.121 470.121 126 453 126C435.879 126 422 112.121 422 95C422 77.8792 435.879 64 453 64C470.121 64 484 77.8792 484 95Z" stroke="#2ED270" stroke-width="8"/>
<path d="M514 179.5C514 217.884 482.884 249 444.5 249C406.116 249 375 217.884 375 179.5C375 141.116 406.116 110 444.5 110C482.884 110 514 141.116 514 179.5Z" fill="#A8D22E"/>
<path d="M370 146.5C370 150.642 366.642 154 362.5 154C358.358 154 355 150.642 355 146.5C355 142.358 358.358 139 362.5 139C366.642 139 370 142.358 370 146.5Z" fill="#A8D22E"/>
<path d="M529 217.5C529 221.642 525.642 225 521.5 225C517.358 225 514 221.642 514 217.5C514 213.358 517.358 210 521.5 210C525.642 210 529 213.358 529 217.5Z" fill="#A8D22E"/>
<path d="M390 271.5C390 275.642 386.642 279 382.5 279C378.358 279 375 275.642 375 271.5C375 267.358 378.358 264 382.5 264C386.642 264 390 267.358 390 271.5Z" fill="#A8D22E"/>
<path d="M473 60.5C473 64.6421 469.642 68 465.5 68C461.358 68 458 64.6421 458 60.5C458 56.3579 461.358 53 465.5 53C469.642 53 473 56.3579 473 60.5Z" fill="#A8D22E"/>
<path d="M407.6 190.64C402.248 191.12 397.808 191.36 394.28 191.36C391.928 191.36 390.2 190.808 389.096 189.704C387.992 188.6 387.44 186.872 387.44 184.52V173C387.44 170.48 388.004 168.656 389.132 167.528C390.284 166.376 392.12 165.8 394.64 165.8H407.6V170.84H396.08C394.64 170.84 393.92 171.56 393.92 173V184.52C393.92 185.072 394.076 185.516 394.388 185.852C394.724 186.164 395.144 186.32 395.648 186.32C396.152 186.32 396.704 186.32 397.304 186.32C397.904 186.296 398.528 186.272 399.176 186.248C399.824 186.224 400.472 186.2 401.12 186.176C401.792 186.152 402.644 186.104 403.676 186.032C404.732 185.96 406.04 185.876 407.6 185.78V190.64ZM426.684 172.64C426.684 171.2 425.964 170.48 424.524 170.48H418.404C416.964 170.48 416.244 171.2 416.244 172.64V184.16C416.244 185.6 416.964 186.32 418.404 186.32H424.524C425.964 186.32 426.684 185.6 426.684 184.16V172.64ZM433.164 184.16C433.164 186.68 432.588 188.516 431.436 189.668C430.308 190.796 428.484 191.36 425.964 191.36H416.964C414.444 191.36 412.608 190.796 411.456 189.668C410.328 188.516 409.764 186.68 409.764 184.16V172.64C409.764 170.12 410.328 168.296 411.456 167.168C412.608 166.016 414.444 165.44 416.964 165.44H425.964C428.484 165.44 430.308 166.016 431.436 167.168C432.588 168.296 433.164 170.12 433.164 172.64V184.16ZM446.698 183.44L452.818 165.8H459.838L450.298 191H443.098L433.558 165.8H440.578L446.698 183.44ZM473.517 191H460.557V185.96H463.797V170.84H460.557V165.8H473.517V170.84H470.277V185.96H473.517V191ZM490.794 165.8C493.506 165.8 495.558 166.508 496.95 167.924C498.366 169.316 499.074 171.368 499.074 174.08V182.72C499.074 185.432 498.366 187.496 496.95 188.912C495.558 190.304 493.506 191 490.794 191H476.754V165.8H490.794ZM492.594 174.08C492.594 171.92 491.514 170.84 489.354 170.84H483.234V185.96H489.354C491.514 185.96 492.594 184.88 492.594 182.72V174.08Z" fill="white"/>
<rect x="350.161" y="56.0441" width="3" height="20" transform="rotate(-38.0058 350.161 56.0441)" fill="#2ED270"/>
<circle r="7.5" transform="matrix(0.787948 -0.615741 -0.615741 -0.787948 355.961 61.0301)" fill="#2ED270"/>
<rect x="368.216" y="43.2502" width="3" height="20" transform="rotate(-26.8217 368.216 43.2502)" fill="#2ED270"/>
<circle r="7.5" transform="matrix(0.892415 -0.451216 -0.451216 -0.892415 372.939 49.2665)" fill="#2ED270"/>
<rect x="386.635" y="33.0913" width="3" height="20" transform="rotate(-20.0891 386.635 33.0913)" fill="#2ED270"/>
<circle r="7.5" transform="matrix(0.93916 -0.343481 -0.343481 -0.93916 390.62 39.6198)" fill="#2ED270"/>
<rect x="534.289" y="292.453" width="3" height="20" transform="rotate(141.994 534.289 292.453)" fill="#2ED270"/>
<circle r="7.5" transform="matrix(-0.787949 0.615741 0.615741 0.787949 528.489 287.467)" fill="#2ED270"/>
<rect x="516.233" y="305.247" width="3" height="20" transform="rotate(153.178 516.233 305.247)" fill="#2ED270"/>
<circle r="7.5" transform="matrix(-0.892415 0.451216 0.451216 0.892415 511.511 299.231)" fill="#2ED270"/>
<rect x="497.815" y="315.406" width="3" height="20" transform="rotate(159.911 497.815 315.406)" fill="#2ED270"/>
<circle r="7.5" transform="matrix(-0.93916 0.343481 0.343481 0.93916 493.83 308.878)" fill="#2ED270"/>
<rect x="476.537" y="321.967" width="3" height="20" transform="rotate(170.208 476.537 321.967)" fill="#2ED270"/>
<circle r="7.5" transform="matrix(-0.985433 0.170064 0.170064 0.985433 473.783 314.831)" fill="#2ED270"/>
<rect x="452.473" y="324.71" width="3" height="20" transform="rotate(174.981 452.473 324.71)" fill="#2ED270"/>
<circle r="7.5" transform="matrix(-0.996166 0.0874857 0.0874857 0.996166 450.322 317.37)" fill="#2ED270"/>
<rect x="428.998" y="325.362" width="3" height="20" transform="rotate(-178.701 428.998 325.362)" fill="#2ED270"/>
<circle r="7.5" transform="matrix(-0.999743 -0.0226737 -0.0226737 0.999743 427.668 317.829)" fill="#2ED270"/>
<rect x="407.913" y="26.5306" width="3" height="20" transform="rotate(-9.79155 407.913 26.5306)" fill="#2ED270"/>
<circle r="7.5" transform="matrix(0.985433 -0.170064 -0.170064 -0.985433 410.666 33.6662)" fill="#2ED270"/>
<rect x="431.977" y="23.7874" width="3" height="20" transform="rotate(-5.01898 431.977 23.7874)" fill="#2ED270"/>
<circle r="7.5" transform="matrix(0.996166 -0.0874857 -0.0874857 -0.996166 434.127 31.1274)" fill="#2ED270"/>
<rect x="455.452" y="23.136" width="3" height="20" transform="rotate(1.29921 455.452 23.136)" fill="#2ED270"/>
<circle r="7.5" transform="matrix(0.999743 0.0226736 0.0226736 -0.999743 456.781 30.6681)" fill="#2ED270"/>
<path d="M634 69.5C634 107.884 602.884 139 564.5 139C526.116 139 495 107.884 495 69.5C495 31.1162 526.116 0 564.5 0C602.884 0 634 31.1162 634 69.5Z" fill="#DF2222"/>
<path d="M541.56 90V55.12L534.2 57.68L531 50.32L542.84 45.2H553.08V90H541.56ZM561.418 80.72C570.207 81.36 576.394 81.68 579.978 81.68C580.959 81.68 581.727 81.4027 582.282 80.848C582.879 80.2507 583.178 79.4613 583.178 78.48V72.72C579.039 73.5733 575.412 74 572.298 74H567.818C564.916 74 562.591 73.1253 560.842 71.376C559.092 69.6267 558.218 67.3013 558.218 64.4V56.08C558.218 52.1973 559.199 49.3173 561.161 47.44C563.124 45.52 566.196 44.56 570.378 44.56H582.538C586.719 44.56 589.791 45.52 591.754 47.44C593.716 49.3173 594.698 52.1973 594.698 56.08V78.48C594.698 82.6613 593.716 85.7333 591.754 87.696C589.791 89.6587 586.719 90.64 582.538 90.64C576.692 90.64 569.652 90.2133 561.418 89.36V80.72ZM575.498 65.04C577.93 65.04 580.49 64.8267 583.178 64.4V57.36C583.178 54.8 581.898 53.52 579.338 53.52H573.578C571.018 53.52 569.738 54.8 569.738 57.36V62.8C569.738 63.44 569.951 63.9733 570.378 64.4C570.804 64.8267 571.338 65.04 571.978 65.04H575.498Z" fill="white"/>
<path d="M23.76 95.96L18.72 104.96H13.68L8.64 95.96V110H2.16V84.8H9L16.2 98.12L23.4 84.8H30.24V110H23.76V95.96ZM34.5741 84.8H49.6941C52.2141 84.8 54.0381 85.376 55.1661 86.528C56.3181 87.656 56.8941 89.48 56.8941 92V95.6C56.8941 98.12 56.3181 99.956 55.1661 101.108C54.0381 102.236 52.2141 102.8 49.6941 102.8H41.0541V110H34.5741V84.8ZM50.4141 92C50.4141 90.56 49.6941 89.84 48.2541 89.84H41.0541V97.76H48.2541C49.6941 97.76 50.4141 97.04 50.4141 95.6V92ZM62.4881 110H55.4681L65.0081 84.8H72.2081L81.7481 110H74.7281L73.1081 105.5H64.1081L62.4881 110ZM65.7281 100.82H71.4881L68.6081 92.36L65.7281 100.82ZM94.3397 84.8H109.46C111.98 84.8 113.804 85.376 114.932 86.528C116.084 87.656 116.66 89.48 116.66 92V95.6C116.66 98.12 116.084 99.956 114.932 101.108C113.804 102.236 111.98 102.8 109.46 102.8H100.82V110H94.3397V84.8ZM110.18 92C110.18 90.56 109.46 89.84 108.02 89.84H100.82V97.76H108.02C109.46 97.76 110.18 97.04 110.18 95.6V92ZM130.518 96.14C129.006 96.14 127.446 96.5 125.838 97.22V110H119.538V90.92H125.118L125.478 93.26C127.542 91.46 129.702 90.56 131.958 90.56H133.578V96.14H130.518ZM142.774 95.06C141.814 95.06 141.334 95.54 141.334 96.5V98.48H147.454V96.5C147.454 95.54 146.974 95.06 146.014 95.06H142.774ZM153.034 109.64C148.402 110.12 144.202 110.36 140.434 110.36C138.802 110.36 137.494 109.868 136.51 108.884C135.526 107.9 135.034 106.592 135.034 104.96V96.32C135.034 94.52 135.538 93.116 136.546 92.108C137.578 91.076 138.994 90.56 140.794 90.56H147.994C149.794 90.56 151.198 91.076 152.206 92.108C153.238 93.116 153.754 94.52 153.754 96.32V102.98H141.334V104.42C141.334 104.78 141.454 105.08 141.694 105.32C141.934 105.56 142.234 105.68 142.594 105.68C144.97 105.68 148.45 105.5 153.034 105.14V109.64ZM156.26 104.96C161.132 105.32 164.972 105.5 167.78 105.5C168.14 105.5 168.44 105.38 168.68 105.14C168.92 104.9 169.04 104.6 169.04 104.24V102.98H161.3C159.668 102.98 158.36 102.488 157.376 101.504C156.392 100.52 155.9 99.212 155.9 97.58V96.32C155.9 94.688 156.392 93.38 157.376 92.396C158.36 91.412 159.668 90.92 161.3 90.92H173.54V95.6H163.46C163.1 95.6 162.8 95.72 162.56 95.96C162.32 96.2 162.2 96.5 162.2 96.86C162.2 97.22 162.32 97.52 162.56 97.76C162.8 98 163.1 98.12 163.46 98.12H169.94C171.572 98.12 172.88 98.612 173.864 99.596C174.848 100.58 175.34 101.888 175.34 103.52V104.96C175.34 106.592 174.848 107.9 173.864 108.884C172.88 109.868 171.572 110.36 169.94 110.36C165.692 110.36 161.132 110.12 156.26 109.64V104.96ZM185.243 95.06C184.283 95.06 183.803 95.54 183.803 96.5V98.48H189.923V96.5C189.923 95.54 189.443 95.06 188.483 95.06H185.243ZM195.503 109.64C190.871 110.12 186.671 110.36 182.903 110.36C181.271 110.36 179.963 109.868 178.979 108.884C177.995 107.9 177.503 106.592 177.503 104.96V96.32C177.503 94.52 178.007 93.116 179.015 92.108C180.047 91.076 181.463 90.56 183.263 90.56H190.463C192.263 90.56 193.667 91.076 194.675 92.108C195.707 93.116 196.223 94.52 196.223 96.32V102.98H183.803V104.42C183.803 104.78 183.923 105.08 184.163 105.32C184.403 105.56 184.703 105.68 185.062 105.68C187.439 105.68 190.919 105.5 195.503 105.14V109.64ZM210.068 95.78C208.796 95.78 207.356 96.02 205.748 96.5V110H199.448V90.92H205.028L205.388 92.72C206.516 91.976 207.668 91.436 208.844 91.1C210.044 90.74 211.052 90.56 211.868 90.56H213.488C215.12 90.56 216.428 91.052 217.412 92.036C218.396 93.02 218.888 94.328 218.888 95.96V110H212.588V97.04C212.588 96.68 212.468 96.38 212.228 96.14C211.988 95.9 211.688 95.78 211.328 95.78H210.068ZM235.444 110C233.116 110.24 230.836 110.36 228.604 110.36C226.972 110.36 225.664 109.868 224.68 108.884C223.696 107.9 223.204 106.592 223.204 104.96V95.78H221.044V90.92H223.204L223.924 86.6H229.504V90.92H234.004V95.78H229.504V104.06C229.504 104.42 229.624 104.72 229.864 104.96C230.104 105.2 230.404 105.32 230.764 105.32H235.444V110ZM237.26 104.96C242.132 105.32 245.972 105.5 248.78 105.5C249.14 105.5 249.44 105.38 249.68 105.14C249.92 104.9 250.04 104.6 250.04 104.24V102.98H242.3C240.668 102.98 239.36 102.488 238.376 101.504C237.392 100.52 236.9 99.212 236.9 97.58V96.32C236.9 94.688 237.392 93.38 238.376 92.396C239.36 91.412 240.668 90.92 242.3 90.92H254.54V95.6H244.46C244.1 95.6 243.8 95.72 243.56 95.96C243.32 96.2 243.2 96.5 243.2 96.86C243.2 97.22 243.32 97.52 243.56 97.76C243.8 98 244.1 98.12 244.46 98.12H250.94C252.572 98.12 253.88 98.612 254.864 99.596C255.848 100.58 256.34 101.888 256.34 103.52V104.96C256.34 106.592 255.848 107.9 254.864 108.884C253.88 109.868 252.572 110.36 250.94 110.36C246.692 110.36 242.132 110.12 237.26 109.64V104.96Z" fill="black"/>
<path d="M73.03 210H53.41V178.935H26.16V210H6.54V133.7H26.16V163.675H53.41V133.7H73.03V210ZM99.7861 210H78.5311L107.416 133.7H129.216L158.101 210H136.846L131.941 196.375H104.691L99.7861 210ZM109.596 182.205H127.036L118.316 156.59L109.596 182.205ZM220.278 208.91C204.073 210.363 190.63 211.09 179.948 211.09C172.827 211.09 167.595 209.419 164.252 206.076C160.909 202.733 159.238 197.501 159.238 190.38V155.5C159.238 147.87 160.946 142.347 164.361 138.932C167.849 135.444 173.408 133.7 181.038 133.7H220.278V148.96H185.398C181.038 148.96 178.858 151.14 178.858 155.5V190.38C178.858 192.051 179.33 193.396 180.275 194.413C181.292 195.358 182.564 195.83 184.09 195.83C185.616 195.83 187.287 195.83 189.104 195.83C190.921 195.757 192.81 195.685 194.772 195.612C196.734 195.539 198.696 195.467 200.658 195.394C202.693 195.321 205.272 195.176 208.397 194.958C211.594 194.74 215.555 194.486 220.278 194.195V208.91ZM248.631 210H229.011V133.7H248.631V163.675H258.441L275.445 133.7H296.155L274.791 171.305L296.046 210H275.336L258.441 178.935H248.631V210Z" fill="black"/>
<path d="M641.6 219H621.98V157.96H599.09V142.7H664.49V157.96H641.6V219ZM738.623 219H719.003V187.935H691.753V219H672.133V142.7H691.753V172.675H719.003V142.7H738.623V219ZM800.804 163.41C800.804 159.05 798.624 156.87 794.264 156.87H775.734C771.374 156.87 769.194 159.05 769.194 163.41V198.29C769.194 202.65 771.374 204.83 775.734 204.83H794.264C798.624 204.83 800.804 202.65 800.804 198.29V163.41ZM820.424 198.29C820.424 205.92 818.68 211.479 815.192 214.967C811.777 218.382 806.254 220.09 798.624 220.09H771.374C763.744 220.09 758.185 218.382 754.697 214.967C751.282 211.479 749.574 205.92 749.574 198.29V163.41C749.574 155.78 751.282 150.257 754.697 146.842C758.185 143.354 763.744 141.61 771.374 141.61H798.624C806.254 141.61 811.777 143.354 815.192 146.842C818.68 150.257 820.424 155.78 820.424 163.41V198.29ZM897.865 219H877.155L850.995 173.22V219H831.375V142.7H852.085L878.245 188.48V142.7H897.865V219Z" fill="black"/>
</svg>
