<svg width="4389" height="3111" viewBox="0 0 4389 3111" fill="none" xmlns="http://www.w3.org/2000/svg">
<path d="M689 0L3401 423L3737 3048L1161 3111L689 0Z" fill="#08066F"/>
<path d="M4388.92 2294.79L541.246 2339.29L1.54168 1260.04L3644.88 1021.79L4388.92 2294.79Z" fill="#0A0947"/>
<path d="M2046.82 897.768C1585.17 940.893 1149.15 1059.75 832.361 1228.81C515.574 1397.88 343.272 1603.68 352.442 1802.05C361.611 2000.41 551.522 2175.52 881.406 2289.78C1211.29 2404.05 1654.85 2448.36 2116.88 2413.21C2578.9 2378.06 3022.55 2266.24 3352.6 2101.77C3682.65 1937.3 3872.78 1733.28 3882.19 1533.5C3891.59 1333.72 3719.52 1154.12 3402.9 1033.24C3086.28 912.367 2650.37 859.852 2188.72 886.972L2181.25 967.094C2594.57 942.813 2984.87 989.831 3268.34 1098.06C3551.82 1206.28 3705.89 1367.09 3697.47 1545.95C3689.05 1724.82 3518.81 1907.49 3223.31 2054.75C2655.06 886.972 2530.59 2302.12 2116.92 2333.59C1703.26 2365.06 1306.12 2325.38 1010.76 2223.08C715.406 2120.77 1125.21 1723.55 1117 1545.95C1108.79 1368.35 683.221 1424.53 966.852 1273.16C1250.48 1121.78 1463.67 1136.67 1877 1098.06L2046.82 897.768Z" fill="white"/>
<path d="M3002 1111H2458.69V1654.54H3002V1111Z" fill="white"/>
<path d="M3002 1654.54H2458.69L2084 1982.53L2795.92 2070L3002 1654.54Z" fill="white"/>
<path d="M2958 1087H2414.69V1630.54H2958V1087Z" fill="#4D94FF"/>
<path d="M2958 1630.54H2414.69L2040 1958.53L2751.92 2046L2958 1630.54Z" fill="#4D94FF"/>
<path d="M2893 1143H2478.71V1557.31H2893V1143Z" fill="white"/>
<path d="M1232 1111H1775.31V1654.54H1232V1111Z" fill="#4D94FF"/>
<path d="M1232 1654.54H1775.31L2150 1982.53L1438.08 2070L1232 1654.54Z" fill="#4D94FF"/>
<path d="M1276 1087H1819.31V1630.54H1276V1087Z" fill="white"/>
<path d="M1276 1630.54H1819.31L2194 1958.53L1482.08 2046L1276 1630.54Z" fill="white"/>
<path d="M1341 1143H1755.28V1557.31H1341V1143Z" fill="#4D94FF"/>
<circle cx="1558" cy="1341" r="108" fill="white"/>
<circle cx="1558" cy="1341" r="108" fill="white"/>
<ellipse cx="1557.5" cy="1652" rx="162.5" ry="222" fill="white"/>
<circle cx="2686" cy="1341" r="108" fill="#4D94FF"/>
<ellipse cx="2685.5" cy="1652" rx="162.5" ry="222" fill="#4D94FF"/>
<rect x="1952" y="1367" width="340" height="164" fill="#4D94FF"/>
<path d="M2019.21 1404.99V1487.35H2056.13V1498H2007.14V1404.99H2019.21ZM2083.14 1404.99V1498H2071.07V1404.99H2083.14ZM2166.69 1404.99L2138.71 1498H2122.81L2095.69 1404.99H2108.47L2130.76 1486.36L2153.91 1404.99H2166.69ZM2228.22 1404.99V1415.92H2191.3V1445.32H2225.38V1456.11H2191.3V1487.07H2228.22V1498H2179.23V1404.99H2228.22Z" fill="white"/>
<rect x="1595" y="2119" width="1044" height="164" fill="#4D94FF"/>
<path d="M1697.17 2235L1696.61 2174.74L1681.04 2227.38H1669.28L1653.71 2174.74L1653.15 2235H1643.85L1644.53 2161.64H1658.64L1675.21 2218.87L1691.68 2161.64H1705.79L1706.46 2235H1697.17ZM1731.69 2180.34V2235H1722.17V2180.34H1731.69ZM1726.87 2158.28C1728.89 2158.28 1730.42 2158.73 1731.46 2159.62C1732.58 2160.52 1733.14 2161.79 1733.14 2163.43V2166.68C1733.14 2168.32 1732.58 2169.59 1731.46 2170.49C1730.42 2171.31 1728.89 2171.72 1726.87 2171.72C1724.93 2171.72 1723.4 2171.31 1722.28 2170.49C1721.23 2169.59 1720.71 2168.32 1720.71 2166.68V2163.43C1720.71 2161.79 1721.23 2160.52 1722.28 2159.62C1723.4 2158.73 1724.93 2158.28 1726.87 2158.28ZM1771.18 2179C1775.96 2179 1779.62 2180.64 1782.16 2183.93C1784.77 2187.14 1786.08 2191.73 1786.08 2197.7V2235H1776.56V2199.05C1776.56 2191.58 1774.13 2187.85 1769.28 2187.85C1767.11 2187.85 1764.91 2188.67 1762.67 2190.31C1760.43 2191.95 1758.49 2194.19 1756.84 2197.03V2235H1747.32V2180.34H1756.28V2188.52C1758.3 2185.46 1760.54 2183.11 1763 2181.46C1765.54 2179.82 1768.27 2179 1771.18 2179ZM1820.38 2179C1827.03 2179 1831.96 2180.79 1835.17 2184.38C1838.45 2187.89 1840.1 2192.89 1840.1 2199.38V2215.96C1840.1 2222.46 1838.45 2227.5 1835.17 2231.08C1831.96 2234.59 1827.03 2236.34 1820.38 2236.34C1813.74 2236.34 1808.77 2234.59 1805.49 2231.08C1802.28 2227.5 1800.67 2222.46 1800.67 2215.96V2199.38C1800.67 2192.89 1802.28 2187.89 1805.49 2184.38C1808.77 2180.79 1813.74 2179 1820.38 2179ZM1820.38 2186.95C1817.17 2186.95 1814.67 2187.96 1812.88 2189.98C1811.09 2191.99 1810.19 2194.87 1810.19 2198.6V2216.74C1810.19 2220.48 1811.09 2223.35 1812.88 2225.37C1814.67 2227.38 1817.17 2228.39 1820.38 2228.39C1823.59 2228.39 1826.1 2227.38 1827.89 2225.37C1829.68 2223.35 1830.58 2220.48 1830.58 2216.74V2198.49C1830.58 2194.75 1829.68 2191.92 1827.89 2189.98C1826.1 2187.96 1823.59 2186.95 1820.38 2186.95ZM1878.48 2179C1879.52 2179 1880.34 2179.07 1880.94 2179.22V2189.98C1879.82 2189.75 1878.36 2189.64 1876.57 2189.64C1871.35 2189.64 1867.2 2192.25 1864.14 2197.48V2235H1854.62V2180.34H1863.58V2188.52C1865.6 2185.46 1867.84 2183.11 1870.3 2181.46C1872.84 2179.82 1875.56 2179 1878.48 2179ZM1900.56 2180.34V2235H1891.04V2180.34H1900.56ZM1895.75 2158.28C1897.76 2158.28 1899.29 2158.73 1900.34 2159.62C1901.46 2160.52 1902.02 2161.79 1902.02 2163.43V2166.68C1902.02 2168.32 1901.46 2169.59 1900.34 2170.49C1899.29 2171.31 1897.76 2171.72 1895.75 2171.72C1893.8 2171.72 1892.27 2171.31 1891.15 2170.49C1890.11 2169.59 1889.59 2168.32 1889.59 2166.68V2163.43C1889.59 2161.79 1890.11 2160.52 1891.15 2159.62C1892.27 2158.73 1893.8 2158.28 1895.75 2158.28ZM1927.4 2180.34H1941.96V2188.18H1927.4V2220.22C1927.4 2223.05 1927.96 2225.11 1929.08 2226.38C1930.27 2227.57 1932.1 2228.17 1934.57 2228.17C1937.7 2228.17 1940.76 2227.79 1943.75 2227.05L1943.97 2235C1940.69 2235.9 1937.7 2236.34 1935.01 2236.34C1929.04 2236.34 1924.67 2235.04 1921.91 2232.42C1919.22 2229.74 1917.88 2225.41 1917.88 2219.43V2188.18H1910.04V2180.34H1917.88L1919.67 2165.78H1927.4V2180.34ZM1995.01 2180.34L1969.92 2255.72H1960.4L1967.57 2235H1963.98L1948.42 2180.34H1958.83L1970.59 2228.17L1985.15 2180.34H1995.01ZM2043.98 2160.3C2052.79 2160.3 2059.32 2162.09 2063.58 2165.67C2067.91 2169.18 2070.07 2174.22 2070.07 2180.79V2183.48C2070.07 2190.5 2067.98 2195.91 2063.8 2199.72C2059.62 2203.53 2053.31 2205.43 2044.87 2205.43C2041.51 2205.43 2037.93 2205.13 2034.12 2204.54V2235H2024.6V2160.86C2030.95 2160.48 2037.41 2160.3 2043.98 2160.3ZM2043.75 2168.36C2040.47 2168.36 2037.26 2168.43 2034.12 2168.58V2196.36C2038.6 2196.96 2042.04 2197.26 2044.43 2197.26C2055.18 2197.26 2060.55 2192.51 2060.55 2183.03V2181.13C2060.55 2176.87 2059.21 2173.7 2056.52 2171.61C2053.83 2169.44 2049.58 2168.36 2043.75 2168.36ZM2105.1 2179C2106.15 2179 2106.97 2179.07 2107.57 2179.22V2189.98C2106.45 2189.75 2104.99 2189.64 2103.2 2189.64C2097.97 2189.64 2093.83 2192.25 2090.77 2197.48V2235H2081.25V2180.34H2090.21V2188.52C2092.22 2185.46 2094.46 2183.11 2096.93 2181.46C2099.46 2179.82 2102.19 2179 2105.1 2179ZM2135.49 2179C2142.14 2179 2147.07 2180.79 2150.28 2184.38C2153.56 2187.89 2155.21 2192.89 2155.21 2199.38V2215.96C2155.21 2222.46 2153.56 2227.5 2150.28 2231.08C2147.07 2234.59 2142.14 2236.34 2135.49 2236.34C2128.85 2236.34 2123.88 2234.59 2120.6 2231.08C2117.39 2227.5 2115.78 2222.46 2115.78 2215.96V2199.38C2115.78 2192.89 2117.39 2187.89 2120.6 2184.38C2123.88 2180.79 2128.85 2179 2135.49 2179ZM2135.49 2186.95C2132.28 2186.95 2129.78 2187.96 2127.99 2189.98C2126.2 2191.99 2125.3 2194.87 2125.3 2198.6V2216.74C2125.3 2220.48 2126.2 2223.35 2127.99 2225.37C2129.78 2227.38 2132.28 2228.39 2135.49 2228.39C2138.7 2228.39 2141.21 2227.38 2143 2225.37C2144.79 2223.35 2145.69 2220.48 2145.69 2216.74V2198.49C2145.69 2194.75 2144.79 2191.92 2143 2189.98C2141.21 2187.96 2138.7 2186.95 2135.49 2186.95ZM2187.65 2179C2190.93 2179 2193.92 2179.49 2196.61 2180.46L2214.08 2180.23V2188.63L2204.9 2188.41C2206.17 2191.1 2206.8 2193.9 2206.8 2196.81V2199.27C2206.8 2204.72 2205.12 2209.13 2201.76 2212.49C2198.4 2215.77 2193.7 2217.42 2187.65 2217.42C2183.77 2217.42 2180.59 2217.04 2178.13 2216.3C2176.49 2217.64 2175.67 2219.17 2175.67 2220.89V2221.56C2175.67 2222.75 2176.04 2223.65 2176.79 2224.25C2177.53 2224.77 2178.99 2225.11 2181.15 2225.26L2197.84 2226.49C2201.28 2226.79 2204.04 2228.09 2206.13 2230.41C2208.29 2232.65 2209.38 2235.49 2209.38 2238.92V2243.06C2209.38 2246.27 2208.74 2248.89 2207.47 2250.9C2206.2 2252.92 2203.85 2254.45 2200.42 2255.5C2197.06 2256.54 2192.2 2257.06 2185.86 2257.06C2183.47 2257.06 2180.63 2256.8 2177.35 2256.28C2174.13 2255.76 2171.07 2255.09 2168.16 2254.26L2168.5 2245.42C2175.44 2247.73 2181.34 2248.89 2186.19 2248.89C2190.23 2248.89 2193.21 2248.63 2195.15 2248.1C2197.17 2247.66 2198.48 2246.95 2199.07 2245.98C2199.75 2245.01 2200.08 2243.55 2200.08 2241.61V2240.71C2200.08 2238.99 2199.6 2237.65 2198.63 2236.68C2197.73 2235.71 2196.42 2235.19 2194.71 2235.11L2177.91 2233.99C2174.32 2233.77 2171.6 2232.76 2169.73 2230.97C2167.86 2229.18 2166.93 2226.75 2166.93 2223.69V2221.45C2166.93 2219.81 2167.34 2218.2 2168.16 2216.63C2169.06 2215.06 2170.33 2213.68 2171.97 2212.49C2170.7 2211.07 2169.77 2209.28 2169.17 2207.11C2168.65 2204.87 2168.39 2202.15 2168.39 2198.94V2196.47C2168.39 2191.17 2170.03 2186.95 2173.31 2183.82C2176.6 2180.61 2181.38 2179 2187.65 2179ZM2187.65 2186.95C2184.51 2186.95 2182.09 2187.77 2180.37 2189.42C2178.73 2190.98 2177.91 2193.26 2177.91 2196.25V2199.94C2177.91 2202.71 2178.13 2204.76 2178.58 2206.1C2179.1 2207.37 2180 2208.27 2181.27 2208.79C2182.53 2209.24 2184.44 2209.46 2186.98 2209.46C2190.41 2209.46 2192.99 2208.64 2194.71 2207C2196.42 2205.36 2197.28 2203.01 2197.28 2199.94V2196.58C2197.28 2193.45 2196.83 2190.72 2195.94 2188.41C2195.04 2188.03 2193.81 2187.7 2192.24 2187.4C2190.75 2187.1 2189.22 2186.95 2187.65 2186.95ZM2246.85 2179C2247.9 2179 2248.72 2179.07 2249.32 2179.22V2189.98C2248.2 2189.75 2246.74 2189.64 2244.95 2189.64C2239.72 2189.64 2235.58 2192.25 2232.52 2197.48V2235H2223V2180.34H2231.96V2188.52C2233.97 2185.46 2236.21 2183.11 2238.68 2181.46C2241.21 2179.82 2243.94 2179 2246.85 2179ZM2274.46 2179C2280.89 2179 2285.55 2180.46 2288.46 2183.37C2291.45 2186.21 2292.94 2190.76 2292.94 2197.03V2235H2283.87V2226.26C2279.54 2232.98 2274.65 2236.34 2269.2 2236.34C2264.87 2236.34 2261.4 2234.85 2258.78 2231.86C2256.25 2228.88 2254.98 2224.81 2254.98 2219.66V2216.52C2254.98 2212.04 2256.51 2208.34 2259.57 2205.43C2262.63 2202.45 2266.74 2200.95 2271.89 2200.95C2274.73 2200.95 2278.57 2201.44 2283.42 2202.41V2196.25C2283.42 2193.04 2282.68 2190.72 2281.18 2189.3C2279.77 2187.89 2277.53 2187.18 2274.46 2187.18C2270.88 2187.18 2265.84 2187.74 2259.34 2188.86V2180.68C2266.36 2179.56 2271.4 2179 2274.46 2179ZM2274.24 2208.34C2271.1 2208.34 2268.72 2209.17 2267.07 2210.81C2265.43 2212.45 2264.61 2214.77 2264.61 2217.75V2218.98C2264.61 2221.75 2265.24 2223.91 2266.51 2225.48C2267.78 2227.05 2269.39 2227.83 2271.33 2227.83C2273.34 2227.83 2275.4 2226.97 2277.49 2225.26C2279.65 2223.46 2281.63 2220.96 2283.42 2217.75V2209.13C2280.59 2208.61 2277.53 2208.34 2274.24 2208.34ZM2360.62 2179C2365.4 2179 2369.05 2180.64 2371.59 2183.93C2374.13 2187.14 2375.4 2191.73 2375.4 2197.7V2235H2365.88V2199.05C2365.88 2191.58 2363.49 2187.85 2358.71 2187.85C2356.62 2187.85 2354.46 2188.67 2352.22 2190.31C2350.05 2191.95 2348.15 2194.19 2346.51 2197.03V2235H2336.99V2199.05C2336.99 2191.58 2334.6 2187.85 2329.82 2187.85C2327.73 2187.85 2325.56 2188.67 2323.32 2190.31C2321.16 2191.95 2319.25 2194.19 2317.61 2197.03V2235H2308.09V2180.34H2317.05V2188.52C2318.99 2185.46 2321.23 2183.11 2323.77 2181.46C2326.31 2179.82 2328.96 2179 2331.72 2179C2335.16 2179 2338.03 2179.9 2340.35 2181.69C2342.66 2183.41 2344.34 2185.94 2345.39 2189.3C2347.4 2185.94 2349.72 2183.41 2352.33 2181.69C2354.94 2179.9 2357.71 2179 2360.62 2179ZM2443.63 2179C2448.41 2179 2452.07 2180.64 2454.61 2183.93C2457.15 2187.14 2458.42 2191.73 2458.42 2197.7V2235H2448.9V2199.05C2448.9 2191.58 2446.51 2187.85 2441.73 2187.85C2439.64 2187.85 2437.47 2188.67 2435.23 2190.31C2433.07 2191.95 2431.16 2194.19 2429.52 2197.03V2235H2420V2199.05C2420 2191.58 2417.61 2187.85 2412.83 2187.85C2410.74 2187.85 2408.58 2188.67 2406.34 2190.31C2404.17 2191.95 2402.27 2194.19 2400.62 2197.03V2235H2391.1V2180.34H2400.06V2188.52C2402.01 2185.46 2404.25 2183.11 2406.78 2181.46C2409.32 2179.82 2411.97 2179 2414.74 2179C2418.17 2179 2421.05 2179.9 2423.36 2181.69C2425.68 2183.41 2427.36 2185.94 2428.4 2189.3C2430.42 2185.94 2432.73 2183.41 2435.34 2181.69C2437.96 2179.9 2440.72 2179 2443.63 2179ZM2492.04 2179C2498.31 2179 2503.09 2180.72 2506.38 2184.15C2509.66 2187.59 2511.3 2192.55 2511.3 2199.05V2210.58H2482.52V2217.19C2482.52 2221 2483.42 2223.76 2485.21 2225.48C2487.07 2227.12 2489.99 2227.94 2493.94 2227.94C2497.83 2227.94 2502.68 2227.35 2508.5 2226.15L2508.73 2234.44C2501.78 2235.71 2496.82 2236.34 2493.83 2236.34C2486.44 2236.34 2481.1 2234.74 2477.82 2231.53C2474.61 2228.32 2473 2223.35 2473 2216.63V2199.05C2473 2192.55 2474.57 2187.59 2477.7 2184.15C2480.91 2180.72 2485.69 2179 2492.04 2179ZM2492.04 2186.95C2489.13 2186.95 2486.81 2187.89 2485.1 2189.75C2483.38 2191.54 2482.52 2194.16 2482.52 2197.59V2202.97H2501.78V2197.93C2501.78 2194.34 2500.89 2191.62 2499.1 2189.75C2497.38 2187.89 2495.03 2186.95 2492.04 2186.95ZM2548.07 2179C2549.12 2179 2549.94 2179.07 2550.53 2179.22V2189.98C2549.41 2189.75 2547.96 2189.64 2546.17 2189.64C2540.94 2189.64 2536.8 2192.25 2533.73 2197.48V2235H2524.21V2180.34H2533.17V2188.52C2535.19 2185.46 2537.43 2183.11 2539.89 2181.46C2542.43 2179.82 2545.16 2179 2548.07 2179ZM2577.74 2179C2580.87 2179 2584.64 2179.45 2589.05 2180.34L2588.83 2188.41C2584.94 2187.51 2581.4 2187.06 2578.19 2187.06C2571.47 2187.06 2568.11 2189.23 2568.11 2193.56V2194.57C2568.11 2195.91 2568.44 2196.99 2569.11 2197.82C2569.86 2198.64 2571.17 2199.5 2573.03 2200.39L2583.56 2205.32C2589.91 2208.31 2593.08 2212.67 2593.08 2218.42V2220.89C2593.01 2226.04 2591.44 2229.92 2588.38 2232.54C2585.39 2235.07 2580.65 2236.34 2574.15 2236.34C2570.79 2236.34 2565.98 2235.56 2559.71 2233.99L2560.15 2225.48C2565.75 2227.12 2570.35 2227.94 2573.93 2227.94C2577.59 2227.94 2580.13 2227.46 2581.55 2226.49C2582.96 2225.44 2583.67 2223.76 2583.67 2221.45V2220.33C2583.67 2218.54 2583.3 2217.12 2582.55 2216.07C2581.88 2215.03 2580.72 2214.13 2579.08 2213.38L2568.22 2208.57C2564.93 2207.07 2562.51 2205.28 2560.94 2203.19C2559.44 2201.1 2558.7 2198.67 2558.7 2195.91V2194.34C2558.85 2189.27 2560.42 2185.46 2563.4 2182.92C2566.46 2180.31 2571.24 2179 2577.74 2179Z" fill="white"/>
</svg>
