<svg width="752" height="316" viewBox="0 0 752 316" fill="none" xmlns="http://www.w3.org/2000/svg">
<path d="M10 55H742L670 287L278 195L70 267L10 55Z" stroke="#FF00B8" stroke-width="14"/>
<path d="M157.793 7H661.793L597.793 307L29.7932 203L157.793 7Z" stroke="#34107A" stroke-width="14"/>
<rect x="82" y="43" width="604" height="218" fill="white" stroke="#FFC700" stroke-width="14"/>
<path fill-rule="evenodd" clip-rule="evenodd" d="M155.577 110.897L155.577 190.298L105.793 156.866V77.4649L105.793 77.4649H105.793V77.4648L105.793 77.4649H224.03L273.814 110.897H155.577Z" fill="url(#paint0_linear)"/>
<path fill-rule="evenodd" clip-rule="evenodd" d="M267.009 157.568L267.009 78.1673L316.793 111.599L316.793 191L316.793 191L316.793 191L316.793 191L316.793 191L198.556 191L148.772 157.568L267.009 157.568Z" fill="url(#paint1_linear)"/>
<path fill-rule="evenodd" clip-rule="evenodd" d="M262.639 154.401V74.9999L312.423 108.432V187.83L312.426 187.832H312.423V187.833L312.423 187.832H194.189L144.405 154.401H262.639Z" fill="#FFC700"/>
<path d="M265.988 87.2168V152.808L307.23 180.425V114.834L265.988 87.2168Z" fill="url(#paint2_linear)"/>
<path d="M365.997 119V92.428L355.025 112.552H351.801L340.777 92.428V119H334.953V82.08H341.193L353.413 104.648L365.633 82.08H371.873V119H365.997ZM378.691 119V91.804H384.411V119H378.691ZM378.691 87.332V81.04H384.411V87.332H378.691ZM414.893 119H409.173V103.764C409.173 101.199 408.757 99.344 407.925 98.2C407.128 97.0213 405.932 96.432 404.337 96.432C403.505 96.432 402.673 96.588 401.841 96.9C401.009 97.212 400.229 97.6627 399.501 98.252C398.773 98.8067 398.114 99.4827 397.525 100.28C396.97 101.043 396.537 101.892 396.225 102.828V119H390.505V91.804H395.705V97.264C396.745 95.4267 398.253 93.988 400.229 92.948C402.205 91.8733 404.389 91.336 406.781 91.336C408.41 91.336 409.745 91.6307 410.785 92.22C411.825 92.8093 412.64 93.624 413.229 94.664C413.853 95.6693 414.286 96.848 414.529 98.2C414.772 99.5173 414.893 100.921 414.893 102.412V119ZM432.972 119.52C430.823 119.52 428.882 119.139 427.148 118.376C425.45 117.613 423.994 116.591 422.78 115.308C421.567 114.025 420.631 112.535 419.972 110.836C419.314 109.103 418.984 107.3 418.984 105.428C418.984 103.556 419.314 101.771 419.972 100.072C420.631 98.3387 421.567 96.8307 422.78 95.548C424.028 94.2653 425.502 93.2427 427.2 92.48C428.934 91.7173 430.858 91.336 432.972 91.336C435.087 91.336 436.994 91.7173 438.692 92.48C440.426 93.2427 441.899 94.2653 443.112 95.548C444.36 96.8307 445.314 98.3387 445.972 100.072C446.631 101.771 446.96 103.556 446.96 105.428C446.96 107.3 446.631 109.103 445.972 110.836C445.314 112.535 444.36 114.025 443.112 115.308C441.899 116.591 440.426 117.613 438.692 118.376C436.994 119.139 435.087 119.52 432.972 119.52ZM424.86 105.48C424.86 106.797 425.068 108.011 425.484 109.12C425.9 110.229 426.472 111.2 427.2 112.032C427.928 112.829 428.778 113.471 429.748 113.956C430.754 114.407 431.828 114.632 432.972 114.632C434.116 114.632 435.174 114.407 436.144 113.956C437.15 113.471 438.016 112.812 438.744 111.98C439.472 111.148 440.044 110.177 440.46 109.068C440.876 107.959 441.084 106.745 441.084 105.428C441.084 104.145 440.876 102.949 440.46 101.84C440.044 100.696 439.472 99.708 438.744 98.876C438.016 98.044 437.15 97.4027 436.144 96.952C435.174 96.4667 434.116 96.224 432.972 96.224C431.863 96.224 430.806 96.4667 429.8 96.952C428.83 97.4373 427.98 98.096 427.252 98.928C426.524 99.76 425.935 100.748 425.484 101.892C425.068 103.001 424.86 104.197 424.86 105.48ZM466.542 96.744C464.323 96.8133 462.347 97.3333 460.614 98.304C458.915 99.24 457.702 100.592 456.974 102.36V119H451.254V91.804H456.558V97.888C457.494 96.016 458.707 94.5253 460.198 93.416C461.723 92.272 463.352 91.648 465.086 91.544C465.432 91.544 465.71 91.544 465.918 91.544C466.16 91.544 466.368 91.5613 466.542 91.596V96.744ZM469.923 119V91.804H475.643V119H469.923ZM469.923 87.332V81.04H475.643V87.332H469.923ZM496.869 117.596C496.141 117.943 495.135 118.341 493.853 118.792C492.57 119.208 491.201 119.416 489.745 119.416C488.843 119.416 487.994 119.295 487.197 119.052C486.399 118.809 485.689 118.445 485.065 117.96C484.475 117.475 484.007 116.851 483.661 116.088C483.314 115.291 483.141 114.337 483.141 113.228V96.224H479.553V91.804H483.141V82.86H488.861V91.804H494.789V96.224H488.861V111.408C488.93 112.379 489.225 113.089 489.745 113.54C490.299 113.956 490.975 114.164 491.773 114.164C492.57 114.164 493.333 114.025 494.061 113.748C494.789 113.471 495.326 113.245 495.673 113.072L496.869 117.596ZM500.986 125.396C501.506 125.5 502.009 125.587 502.494 125.656C503.014 125.725 503.43 125.76 503.742 125.76C504.193 125.76 504.574 125.656 504.886 125.448C505.233 125.275 505.58 124.945 505.926 124.46C506.273 123.975 506.62 123.281 506.966 122.38C507.348 121.513 507.781 120.387 508.266 119L497.086 91.804H502.962L511.386 113.956L518.874 91.804H524.282L511.958 125.292C511.404 126.852 510.433 128.152 509.046 129.192C507.694 130.267 505.944 130.804 503.794 130.804C503.378 130.804 502.945 130.769 502.494 130.7C502.044 130.665 501.541 130.561 500.986 130.388V125.396ZM334.953 180V143.08H350.449C352.113 143.08 353.639 143.427 355.025 144.12C356.447 144.813 357.66 145.732 358.665 146.876C359.671 147.985 360.451 149.268 361.005 150.724C361.595 152.145 361.889 153.601 361.889 155.092C361.889 156.652 361.612 158.16 361.057 159.616C360.537 161.037 359.792 162.32 358.821 163.464C357.851 164.573 356.672 165.475 355.285 166.168C353.933 166.827 352.425 167.156 350.761 167.156H340.777V180H334.953ZM340.777 162.008H350.397C351.229 162.008 351.975 161.835 352.633 161.488C353.327 161.141 353.916 160.656 354.401 160.032C354.887 159.408 355.268 158.68 355.545 157.848C355.823 157.016 355.961 156.097 355.961 155.092C355.961 154.052 355.805 153.116 355.493 152.284C355.181 151.452 354.748 150.741 354.193 150.152C353.639 149.528 352.997 149.06 352.269 148.748C351.576 148.401 350.848 148.228 350.085 148.228H340.777V162.008ZM381.132 157.744C378.913 157.813 376.937 158.333 375.204 159.304C373.505 160.24 372.292 161.592 371.564 163.36V180H365.844V152.804H371.148V158.888C372.084 157.016 373.297 155.525 374.788 154.416C376.313 153.272 377.942 152.648 379.676 152.544C380.022 152.544 380.3 152.544 380.508 152.544C380.75 152.544 380.958 152.561 381.132 152.596V157.744ZM395.362 180.52C393.212 180.52 391.271 180.139 389.538 179.376C387.839 178.613 386.383 177.591 385.17 176.308C383.956 175.025 383.02 173.535 382.362 171.836C381.703 170.103 381.374 168.3 381.374 166.428C381.374 164.556 381.703 162.771 382.362 161.072C383.02 159.339 383.956 157.831 385.17 156.548C386.418 155.265 387.891 154.243 389.59 153.48C391.323 152.717 393.247 152.336 395.362 152.336C397.476 152.336 399.383 152.717 401.082 153.48C402.815 154.243 404.288 155.265 405.502 156.548C406.75 157.831 407.703 159.339 408.362 161.072C409.02 162.771 409.35 164.556 409.35 166.428C409.35 168.3 409.02 170.103 408.362 171.836C407.703 173.535 406.75 175.025 405.502 176.308C404.288 177.591 402.815 178.613 401.082 179.376C399.383 180.139 397.476 180.52 395.362 180.52ZM387.25 166.48C387.25 167.797 387.458 169.011 387.874 170.12C388.29 171.229 388.862 172.2 389.59 173.032C390.318 173.829 391.167 174.471 392.138 174.956C393.143 175.407 394.218 175.632 395.362 175.632C396.506 175.632 397.563 175.407 398.534 174.956C399.539 174.471 400.406 173.812 401.134 172.98C401.862 172.148 402.434 171.177 402.85 170.068C403.266 168.959 403.474 167.745 403.474 166.428C403.474 165.145 403.266 163.949 402.85 162.84C402.434 161.696 401.862 160.708 401.134 159.876C400.406 159.044 399.539 158.403 398.534 157.952C397.563 157.467 396.506 157.224 395.362 157.224C394.252 157.224 393.195 157.467 392.19 157.952C391.219 158.437 390.37 159.096 389.642 159.928C388.914 160.76 388.324 161.748 387.874 162.892C387.458 164.001 387.25 165.197 387.25 166.48ZM424.407 180.26C422.57 180.26 420.888 179.896 419.363 179.168C417.838 178.405 416.52 177.383 415.411 176.1C414.336 174.817 413.487 173.344 412.863 171.68C412.274 170.016 411.979 168.265 411.979 166.428C411.979 164.487 412.291 162.667 412.915 160.968C413.539 159.235 414.406 157.744 415.515 156.496C416.624 155.213 417.942 154.208 419.467 153.48C421.027 152.717 422.743 152.336 424.615 152.336C426.799 152.336 428.706 152.856 430.335 153.896C431.999 154.936 433.368 156.288 434.443 157.952V152.804H439.487V179.22C439.487 181.196 439.123 182.947 438.395 184.472C437.667 185.997 436.644 187.28 435.327 188.32C434.044 189.395 432.519 190.209 430.751 190.764C428.983 191.319 427.076 191.596 425.031 191.596C422.015 191.596 419.502 191.076 417.491 190.036C415.515 189.031 413.851 187.609 412.499 185.772L415.723 182.756C416.763 184.212 418.098 185.321 419.727 186.084C421.391 186.847 423.159 187.228 425.031 187.228C426.21 187.228 427.319 187.072 428.359 186.76C429.434 186.448 430.37 185.963 431.167 185.304C431.964 184.645 432.588 183.813 433.039 182.808C433.524 181.803 433.767 180.607 433.767 179.22V175.06C432.796 176.724 431.462 178.007 429.763 178.908C428.064 179.809 426.279 180.26 424.407 180.26ZM426.279 175.632C427.146 175.632 427.978 175.493 428.775 175.216C429.572 174.904 430.3 174.505 430.959 174.02C431.652 173.5 432.242 172.928 432.727 172.304C433.212 171.645 433.559 170.952 433.767 170.224V163.1C433.42 162.233 432.97 161.453 432.415 160.76C431.86 160.032 431.219 159.408 430.491 158.888C429.798 158.368 429.052 157.969 428.255 157.692C427.458 157.38 426.66 157.224 425.863 157.224C424.615 157.224 423.488 157.501 422.483 158.056C421.512 158.576 420.68 159.287 419.987 160.188C419.294 161.055 418.756 162.043 418.375 163.152C417.994 164.261 417.803 165.405 417.803 166.584C417.803 167.832 418.011 169.011 418.427 170.12C418.878 171.195 419.484 172.148 420.247 172.98C421.01 173.777 421.894 174.419 422.899 174.904C423.939 175.389 425.066 175.632 426.279 175.632ZM460.854 157.744C458.635 157.813 456.659 158.333 454.926 159.304C453.227 160.24 452.014 161.592 451.286 163.36V180H445.566V152.804H450.87V158.888C451.806 157.016 453.019 155.525 454.51 154.416C456.035 153.272 457.665 152.648 459.398 152.544C459.745 152.544 460.022 152.544 460.23 152.544C460.473 152.544 460.681 152.561 460.854 152.596V157.744ZM471.108 180.52C469.791 180.52 468.56 180.312 467.416 179.896C466.307 179.445 465.336 178.839 464.504 178.076C463.707 177.313 463.065 176.412 462.58 175.372C462.129 174.332 461.904 173.205 461.904 171.992C461.904 170.709 462.181 169.548 462.736 168.508C463.291 167.468 464.071 166.567 465.076 165.804C466.116 165.041 467.329 164.452 468.716 164.036C470.137 163.62 471.697 163.412 473.396 163.412C474.679 163.412 475.944 163.533 477.192 163.776C478.44 163.984 479.567 164.279 480.572 164.66V162.788C480.572 160.777 480 159.217 478.856 158.108C477.712 156.964 476.065 156.392 473.916 156.392C472.46 156.392 471.021 156.669 469.6 157.224C468.213 157.744 466.775 158.507 465.284 159.512L463.516 155.872C467.017 153.515 470.657 152.336 474.436 152.336C478.18 152.336 481.092 153.289 483.172 155.196C485.252 157.103 486.292 159.841 486.292 163.412V173.24C486.292 174.453 486.795 175.077 487.8 175.112V180C487.245 180.104 486.76 180.173 486.344 180.208C485.963 180.243 485.581 180.26 485.2 180.26C484.091 180.26 483.224 179.983 482.6 179.428C482.011 178.873 481.647 178.163 481.508 177.296L481.352 175.58C480.139 177.175 478.631 178.405 476.828 179.272C475.06 180.104 473.153 180.52 471.108 180.52ZM472.668 176.308C474.055 176.308 475.355 176.065 476.568 175.58C477.816 175.06 478.787 174.349 479.48 173.448C480.208 172.824 480.572 172.165 480.572 171.472V167.884C479.601 167.503 478.561 167.208 477.452 167C476.377 166.792 475.32 166.688 474.28 166.688C472.235 166.688 470.553 167.139 469.236 168.04C467.953 168.907 467.312 170.068 467.312 171.524C467.312 172.876 467.815 174.02 468.82 174.956C469.825 175.857 471.108 176.308 472.668 176.308ZM534.051 180H528.331V164.764C528.331 162.233 527.915 160.379 527.083 159.2C526.251 158.021 525.038 157.432 523.443 157.432C521.814 157.432 520.323 158.039 518.971 159.252C517.654 160.431 516.701 161.973 516.111 163.88V180H510.391V164.764C510.391 162.199 509.975 160.344 509.143 159.2C508.311 158.021 507.115 157.432 505.555 157.432C503.926 157.432 502.435 158.021 501.083 159.2C499.731 160.379 498.761 161.921 498.171 163.828V180H492.451V152.804H497.651V158.264C498.726 156.357 500.13 154.901 501.863 153.896C503.631 152.856 505.642 152.336 507.895 152.336C510.149 152.336 511.917 152.925 513.199 154.104C514.517 155.283 515.331 156.756 515.643 158.524C516.787 156.513 518.226 154.988 519.959 153.948C521.693 152.873 523.669 152.336 525.887 152.336C527.482 152.336 528.799 152.648 529.839 153.272C530.914 153.861 531.763 154.659 532.387 155.664C533.011 156.669 533.445 157.848 533.687 159.2C533.93 160.517 534.051 161.921 534.051 163.412V180ZM581.463 180H575.743V164.764C575.743 162.233 575.327 160.379 574.495 159.2C573.663 158.021 572.45 157.432 570.855 157.432C569.226 157.432 567.735 158.039 566.383 159.252C565.066 160.431 564.112 161.973 563.523 163.88V180H557.803V164.764C557.803 162.199 557.387 160.344 556.555 159.2C555.723 158.021 554.527 157.432 552.967 157.432C551.338 157.432 549.847 158.021 548.495 159.2C547.143 160.379 546.172 161.921 545.583 163.828V180H539.863V152.804H545.063V158.264C546.138 156.357 547.542 154.901 549.275 153.896C551.043 152.856 553.054 152.336 555.307 152.336C557.56 152.336 559.328 152.925 560.611 154.104C561.928 155.283 562.743 156.756 563.055 158.524C564.199 156.513 565.638 154.988 567.371 153.948C569.104 152.873 571.08 152.336 573.299 152.336C574.894 152.336 576.211 152.648 577.251 153.272C578.326 153.861 579.175 154.659 579.799 155.664C580.423 156.669 580.856 157.848 581.099 159.2C581.342 160.517 581.463 161.921 581.463 163.412V180ZM599.598 180.52C597.484 180.52 595.56 180.156 593.826 179.428C592.093 178.665 590.602 177.643 589.354 176.36C588.141 175.077 587.188 173.587 586.494 171.888C585.836 170.189 585.506 168.387 585.506 166.48C585.506 164.573 585.836 162.771 586.494 161.072C587.188 159.339 588.141 157.831 589.354 156.548C590.602 155.231 592.093 154.208 593.826 153.48C595.56 152.717 597.501 152.336 599.65 152.336C601.765 152.336 603.672 152.717 605.37 153.48C607.104 154.243 608.577 155.265 609.79 156.548C611.004 157.796 611.922 159.269 612.546 160.968C613.205 162.632 613.534 164.383 613.534 166.22C613.534 166.636 613.517 167.035 613.482 167.416C613.448 167.763 613.413 168.057 613.378 168.3H591.59C591.694 169.513 591.972 170.605 592.422 171.576C592.908 172.547 593.514 173.396 594.242 174.124C595.005 174.817 595.854 175.355 596.79 175.736C597.761 176.117 598.766 176.308 599.806 176.308C600.569 176.308 601.314 176.221 602.042 176.048C602.805 175.84 603.498 175.563 604.122 175.216C604.746 174.835 605.301 174.384 605.786 173.864C606.272 173.344 606.653 172.772 606.93 172.148L611.818 173.552C610.882 175.597 609.322 177.279 607.138 178.596C604.989 179.879 602.476 180.52 599.598 180.52ZM607.866 164.348C607.762 163.204 607.468 162.147 606.982 161.176C606.532 160.205 605.942 159.391 605.214 158.732C604.486 158.039 603.637 157.501 602.666 157.12C601.696 156.739 600.673 156.548 599.598 156.548C598.524 156.548 597.501 156.739 596.53 157.12C595.594 157.501 594.762 158.039 594.034 158.732C593.306 159.391 592.717 160.205 592.266 161.176C591.816 162.147 591.538 163.204 591.434 164.348H607.866ZM632.708 157.744C630.489 157.813 628.513 158.333 626.78 159.304C625.081 160.24 623.868 161.592 623.14 163.36V180H617.42V152.804H622.724V158.888C623.66 157.016 624.873 155.525 626.364 154.416C627.889 153.272 629.519 152.648 631.252 152.544C631.599 152.544 631.876 152.544 632.084 152.544C632.327 152.544 632.535 152.561 632.708 152.596V157.744ZM645.969 180.52C643.785 180.52 641.601 180.173 639.417 179.48C637.268 178.752 635.413 177.729 633.853 176.412L636.141 172.772C637.771 173.951 639.383 174.852 640.977 175.476C642.572 176.065 644.201 176.36 645.865 176.36C647.564 176.36 648.899 176.031 649.869 175.372C650.875 174.713 651.377 173.777 651.377 172.564C651.377 171.42 650.823 170.588 649.713 170.068C648.604 169.548 646.871 168.976 644.513 168.352C642.815 167.901 641.359 167.468 640.145 167.052C638.932 166.636 637.944 166.151 637.181 165.596C636.419 165.041 635.864 164.4 635.517 163.672C635.171 162.944 634.997 162.06 634.997 161.02C634.997 159.633 635.257 158.403 635.777 157.328C636.332 156.253 637.077 155.352 638.013 154.624C638.984 153.861 640.111 153.289 641.393 152.908C642.676 152.527 644.063 152.336 645.553 152.336C647.599 152.336 649.505 152.648 651.273 153.272C653.041 153.896 654.619 154.797 656.005 155.976L653.561 159.408C651.031 157.397 648.344 156.392 645.501 156.392C644.045 156.392 642.815 156.704 641.809 157.328C640.839 157.917 640.353 158.871 640.353 160.188C640.353 160.743 640.457 161.211 640.665 161.592C640.873 161.973 641.203 162.303 641.653 162.58C642.139 162.857 642.745 163.117 643.473 163.36C644.236 163.568 645.172 163.811 646.281 164.088C648.119 164.539 649.696 164.989 651.013 165.44C652.365 165.891 653.475 166.428 654.341 167.052C655.208 167.641 655.849 168.352 656.265 169.184C656.681 169.981 656.889 170.952 656.889 172.096C656.889 174.696 655.901 176.759 653.925 178.284C651.984 179.775 649.332 180.52 645.969 180.52Z" fill="black"/>
<path d="M259.104 219.64C259.104 218.531 259.294 217.43 259.676 216.338C260.074 215.229 260.646 214.241 261.392 213.374C262.154 212.49 263.082 211.779 264.174 211.242C265.266 210.705 266.505 210.436 267.892 210.436C269.538 210.436 270.951 210.809 272.13 211.554C273.308 212.299 274.184 213.27 274.756 214.466L272.91 215.662C272.632 215.073 272.294 214.579 271.896 214.18C271.514 213.781 271.09 213.461 270.622 213.218C270.171 212.975 269.703 212.802 269.218 212.698C268.732 212.594 268.256 212.542 267.788 212.542C266.765 212.542 265.855 212.759 265.058 213.192C264.278 213.608 263.619 214.163 263.082 214.856C262.544 215.532 262.137 216.303 261.86 217.17C261.6 218.019 261.47 218.877 261.47 219.744C261.47 220.715 261.626 221.642 261.938 222.526C262.267 223.393 262.718 224.164 263.29 224.84C263.862 225.516 264.538 226.053 265.318 226.452C266.098 226.851 266.947 227.05 267.866 227.05C268.351 227.05 268.845 226.989 269.348 226.868C269.868 226.747 270.362 226.556 270.83 226.296C271.298 226.019 271.731 225.681 272.13 225.282C272.546 224.866 272.884 224.372 273.144 223.8L275.094 224.866C274.799 225.559 274.383 226.175 273.846 226.712C273.326 227.232 272.728 227.674 272.052 228.038C271.393 228.402 270.691 228.679 269.946 228.87C269.2 229.061 268.472 229.156 267.762 229.156C266.496 229.156 265.335 228.879 264.278 228.324C263.22 227.769 262.302 227.05 261.522 226.166C260.759 225.265 260.161 224.251 259.728 223.124C259.312 221.98 259.104 220.819 259.104 219.64ZM286.347 229.13C285.047 229.13 283.86 228.87 282.785 228.35C281.728 227.813 280.818 227.111 280.055 226.244C279.292 225.36 278.703 224.355 278.287 223.228C277.871 222.101 277.663 220.949 277.663 219.77C277.663 218.539 277.88 217.361 278.313 216.234C278.764 215.107 279.379 214.111 280.159 213.244C280.939 212.377 281.858 211.693 282.915 211.19C283.99 210.67 285.151 210.41 286.399 210.41C287.699 210.41 288.878 210.687 289.935 211.242C290.992 211.779 291.902 212.49 292.665 213.374C293.428 214.258 294.017 215.263 294.433 216.39C294.849 217.499 295.057 218.635 295.057 219.796C295.057 221.027 294.832 222.205 294.381 223.332C293.948 224.459 293.341 225.455 292.561 226.322C291.798 227.171 290.88 227.856 289.805 228.376C288.748 228.879 287.595 229.13 286.347 229.13ZM280.029 219.77C280.029 220.706 280.176 221.616 280.471 222.5C280.783 223.367 281.216 224.138 281.771 224.814C282.326 225.49 282.993 226.027 283.773 226.426C284.553 226.825 285.42 227.024 286.373 227.024C287.361 227.024 288.245 226.816 289.025 226.4C289.805 225.967 290.464 225.412 291.001 224.736C291.556 224.043 291.972 223.263 292.249 222.396C292.544 221.529 292.691 220.654 292.691 219.77C292.691 218.834 292.535 217.933 292.223 217.066C291.928 216.182 291.495 215.411 290.923 214.752C290.368 214.076 289.701 213.539 288.921 213.14C288.158 212.741 287.309 212.542 286.373 212.542C285.385 212.542 284.501 212.75 283.721 213.166C282.941 213.582 282.274 214.128 281.719 214.804C281.182 215.48 280.766 216.251 280.471 217.118C280.176 217.985 280.029 218.869 280.029 219.77ZM299.348 229V210.54H305.744C307.218 210.54 308.509 210.783 309.618 211.268C310.745 211.753 311.681 212.412 312.426 213.244C313.172 214.076 313.726 215.055 314.09 216.182C314.472 217.291 314.662 218.479 314.662 219.744C314.662 221.148 314.454 222.422 314.038 223.566C313.622 224.693 313.024 225.663 312.244 226.478C311.464 227.275 310.52 227.899 309.41 228.35C308.318 228.783 307.096 229 305.744 229H299.348ZM312.296 219.744C312.296 218.704 312.149 217.751 311.854 216.884C311.577 216 311.152 215.246 310.58 214.622C310.026 213.998 309.341 213.513 308.526 213.166C307.712 212.802 306.784 212.62 305.744 212.62H301.688V226.92H305.744C306.802 226.92 307.738 226.738 308.552 226.374C309.384 226.01 310.069 225.507 310.606 224.866C311.161 224.225 311.577 223.471 311.854 222.604C312.149 221.72 312.296 220.767 312.296 219.744ZM331.532 226.92V229H319V210.54H331.298V212.62H321.34V218.6H329.998V220.55H321.34V226.92H331.532ZM335.496 231.106L336.016 228.792H335.236V226.088H337.394V228.792L336.614 231.106H335.496ZM348.726 219.64C348.726 218.531 348.917 217.43 349.298 216.338C349.697 215.229 350.269 214.241 351.014 213.374C351.777 212.49 352.704 211.779 353.796 211.242C354.888 210.705 356.128 210.436 357.514 210.436C359.161 210.436 360.574 210.809 361.752 211.554C362.931 212.299 363.806 213.27 364.378 214.466L362.532 215.662C362.255 215.073 361.917 214.579 361.518 214.18C361.137 213.781 360.712 213.461 360.244 213.218C359.794 212.975 359.326 212.802 358.84 212.698C358.355 212.594 357.878 212.542 357.41 212.542C356.388 212.542 355.478 212.759 354.68 213.192C353.9 213.608 353.242 214.163 352.704 214.856C352.167 215.532 351.76 216.303 351.482 217.17C351.222 218.019 351.092 218.877 351.092 219.744C351.092 220.715 351.248 221.642 351.56 222.526C351.89 223.393 352.34 224.164 352.912 224.84C353.484 225.516 354.16 226.053 354.94 226.452C355.72 226.851 356.57 227.05 357.488 227.05C357.974 227.05 358.468 226.989 358.97 226.868C359.49 226.747 359.984 226.556 360.452 226.296C360.92 226.019 361.354 225.681 361.752 225.282C362.168 224.866 362.506 224.372 362.766 223.8L364.716 224.866C364.422 225.559 364.006 226.175 363.468 226.712C362.948 227.232 362.35 227.674 361.674 228.038C361.016 228.402 360.314 228.679 359.568 228.87C358.823 229.061 358.095 229.156 357.384 229.156C356.119 229.156 354.958 228.879 353.9 228.324C352.843 227.769 351.924 227.05 351.144 226.166C350.382 225.265 349.784 224.251 349.35 223.124C348.934 221.98 348.726 220.819 348.726 219.64ZM376.277 227.024C377.352 227.024 378.244 226.816 378.955 226.4C379.666 225.984 380.229 225.447 380.645 224.788C381.078 224.112 381.382 223.349 381.555 222.5C381.728 221.633 381.815 220.758 381.815 219.874V210.54H384.155V219.874C384.155 221.122 384.008 222.309 383.713 223.436C383.436 224.545 382.985 225.525 382.361 226.374C381.737 227.223 380.922 227.899 379.917 228.402C378.929 228.887 377.724 229.13 376.303 229.13C374.83 229.13 373.59 228.87 372.585 228.35C371.58 227.83 370.765 227.145 370.141 226.296C369.534 225.429 369.092 224.441 368.815 223.332C368.555 222.205 368.425 221.053 368.425 219.874V210.54H370.765V219.874C370.765 220.793 370.852 221.685 371.025 222.552C371.216 223.401 371.519 224.155 371.935 224.814C372.368 225.473 372.932 226.01 373.625 226.426C374.336 226.825 375.22 227.024 376.277 227.024ZM389.352 229V210.54H391.692V226.92H401.988V229H389.352ZM416.044 212.62H409.674V229H407.334V212.62H400.964V210.54H416.044V212.62ZM427.335 227.024C428.409 227.024 429.302 226.816 430.013 226.4C430.723 225.984 431.287 225.447 431.703 224.788C432.136 224.112 432.439 223.349 432.613 222.5C432.786 221.633 432.873 220.758 432.873 219.874V210.54H435.213V219.874C435.213 221.122 435.065 222.309 434.771 223.436C434.493 224.545 434.043 225.525 433.419 226.374C432.795 227.223 431.98 227.899 430.975 228.402C429.987 228.887 428.782 229.13 427.361 229.13C425.887 229.13 424.648 228.87 423.643 228.35C422.637 227.83 421.823 227.145 421.199 226.296C420.592 225.429 420.15 224.441 419.873 223.332C419.613 222.205 419.483 221.053 419.483 219.874V210.54H421.823V219.874C421.823 220.793 421.909 221.685 422.083 222.552C422.273 223.401 422.577 224.155 422.993 224.814C423.426 225.473 423.989 226.01 424.683 226.426C425.393 226.825 426.277 227.024 427.335 227.024ZM440.41 229V210.54H448.314C449.128 210.54 449.874 210.713 450.55 211.06C451.243 211.389 451.832 211.84 452.318 212.412C452.82 212.967 453.21 213.599 453.488 214.31C453.765 215.003 453.904 215.714 453.904 216.442C453.904 217.083 453.808 217.707 453.618 218.314C453.444 218.903 453.184 219.441 452.838 219.926C452.508 220.411 452.101 220.827 451.616 221.174C451.148 221.521 450.619 221.772 450.03 221.928L454.502 229H451.85L447.638 222.37H442.75V229H440.41ZM442.75 220.29H448.34C448.825 220.29 449.258 220.186 449.64 219.978C450.038 219.77 450.376 219.493 450.654 219.146C450.931 218.782 451.148 218.366 451.304 217.898C451.46 217.43 451.538 216.945 451.538 216.442C451.538 215.922 451.442 215.437 451.252 214.986C451.078 214.518 450.836 214.111 450.524 213.764C450.229 213.4 449.874 213.123 449.458 212.932C449.059 212.724 448.634 212.62 448.184 212.62H442.75V220.29ZM471.069 226.92V229H458.537V210.54H470.835V212.62H460.877V218.6H469.535V220.55H460.877V226.92H471.069ZM475.034 231.106L475.554 228.792H474.774V226.088H476.932V228.792L476.152 231.106H475.034ZM488.264 219.64C488.264 218.531 488.455 217.43 488.836 216.338C489.235 215.229 489.807 214.241 490.552 213.374C491.315 212.49 492.242 211.779 493.334 211.242C494.426 210.705 495.665 210.436 497.052 210.436C498.699 210.436 500.111 210.809 501.29 211.554C502.469 212.299 503.344 213.27 503.916 214.466L502.07 215.662C501.793 215.073 501.455 214.579 501.056 214.18C500.675 213.781 500.25 213.461 499.782 213.218C499.331 212.975 498.863 212.802 498.378 212.698C497.893 212.594 497.416 212.542 496.948 212.542C495.925 212.542 495.015 212.759 494.218 213.192C493.438 213.608 492.779 214.163 492.242 214.856C491.705 215.532 491.297 216.303 491.02 217.17C490.76 218.019 490.63 218.877 490.63 219.744C490.63 220.715 490.786 221.642 491.098 222.526C491.427 223.393 491.878 224.164 492.45 224.84C493.022 225.516 493.698 226.053 494.478 226.452C495.258 226.851 496.107 227.05 497.026 227.05C497.511 227.05 498.005 226.989 498.508 226.868C499.028 226.747 499.522 226.556 499.99 226.296C500.458 226.019 500.891 225.681 501.29 225.282C501.706 224.866 502.044 224.372 502.304 223.8L504.254 224.866C503.959 225.559 503.543 226.175 503.006 226.712C502.486 227.232 501.888 227.674 501.212 228.038C500.553 228.402 499.851 228.679 499.106 228.87C498.361 229.061 497.633 229.156 496.922 229.156C495.657 229.156 494.495 228.879 493.438 228.324C492.381 227.769 491.462 227.05 490.682 226.166C489.919 225.265 489.321 224.251 488.888 223.124C488.472 221.98 488.264 220.819 488.264 219.64ZM515.508 229.13C514.208 229.13 513.02 228.87 511.946 228.35C510.888 227.813 509.978 227.111 509.216 226.244C508.453 225.36 507.864 224.355 507.448 223.228C507.032 222.101 506.824 220.949 506.824 219.77C506.824 218.539 507.04 217.361 507.474 216.234C507.924 215.107 508.54 214.111 509.32 213.244C510.1 212.377 511.018 211.693 512.076 211.19C513.15 210.67 514.312 210.41 515.56 210.41C516.86 210.41 518.038 210.687 519.096 211.242C520.153 211.779 521.063 212.49 521.826 213.374C522.588 214.258 523.178 215.263 523.594 216.39C524.01 217.499 524.218 218.635 524.218 219.796C524.218 221.027 523.992 222.205 523.542 223.332C523.108 224.459 522.502 225.455 521.722 226.322C520.959 227.171 520.04 227.856 518.966 228.376C517.908 228.879 516.756 229.13 515.508 229.13ZM509.19 219.77C509.19 220.706 509.337 221.616 509.632 222.5C509.944 223.367 510.377 224.138 510.932 224.814C511.486 225.49 512.154 226.027 512.934 226.426C513.714 226.825 514.58 227.024 515.534 227.024C516.522 227.024 517.406 226.816 518.186 226.4C518.966 225.967 519.624 225.412 520.162 224.736C520.716 224.043 521.132 223.263 521.41 222.396C521.704 221.529 521.852 220.654 521.852 219.77C521.852 218.834 521.696 217.933 521.384 217.066C521.089 216.182 520.656 215.411 520.084 214.752C519.529 214.076 518.862 213.539 518.082 213.14C517.319 212.741 516.47 212.542 515.534 212.542C514.546 212.542 513.662 212.75 512.882 213.166C512.102 213.582 511.434 214.128 510.88 214.804C510.342 215.48 509.926 216.251 509.632 217.118C509.337 217.985 509.19 218.869 509.19 219.77ZM544.473 229V214.726L538.337 225.672H537.011L530.849 214.726V229H528.509V210.54H530.979L537.661 222.526L544.369 210.54H546.813V229H544.473ZM568.237 229V214.726L562.101 225.672H560.775L554.613 214.726V229H552.273V210.54H554.743L561.425 222.526L568.133 210.54H570.577V229H568.237ZM583.63 227.024C584.705 227.024 585.597 226.816 586.308 226.4C587.019 225.984 587.582 225.447 587.998 224.788C588.431 224.112 588.735 223.349 588.908 222.5C589.081 221.633 589.168 220.758 589.168 219.874V210.54H591.508V219.874C591.508 221.122 591.361 222.309 591.066 223.436C590.789 224.545 590.338 225.525 589.714 226.374C589.09 227.223 588.275 227.899 587.27 228.402C586.282 228.887 585.077 229.13 583.656 229.13C582.183 229.13 580.943 228.87 579.938 228.35C578.933 227.83 578.118 227.145 577.494 226.296C576.887 225.429 576.445 224.441 576.168 223.332C575.908 222.205 575.778 221.053 575.778 219.874V210.54H578.118V219.874C578.118 220.793 578.205 221.685 578.378 222.552C578.569 223.401 578.872 224.155 579.288 224.814C579.721 225.473 580.285 226.01 580.978 226.426C581.689 226.825 582.573 227.024 583.63 227.024ZM599.045 214.908V229H596.705V210.54H598.525L609.965 224.918V210.566H612.305V229H610.329L599.045 214.908ZM617.753 229V210.54H620.093V229H617.753ZM638.859 212.62H632.489V229H630.149V212.62H623.779V210.54H638.859V212.62ZM643.259 210.54L648.849 220.16L654.491 210.54H657.039L650.019 222.266V229H647.679V222.214L640.685 210.54H643.259ZM657.905 229V226.088H659.829V229H657.905Z" fill="black"/>
<path d="M261.793 235L658.793 238L619.793 246L258.293 240L261.793 235Z" fill="#FFC700"/>
<defs>
<linearGradient id="paint0_linear" x1="224.03" y1="77.4648" x2="190.543" y2="199.864" gradientUnits="userSpaceOnUse">
<stop stop-color="#151371"/>
<stop offset="0.0001" stop-color="#151371"/>
<stop offset="1" stop-color="#FF00B8"/>
</linearGradient>
<linearGradient id="paint1_linear" x1="198.556" y1="191" x2="232.043" y2="68.601" gradientUnits="userSpaceOnUse">
<stop stop-color="#151371"/>
<stop offset="0.0001" stop-color="#151371"/>
<stop offset="1" stop-color="#FF00B8"/>
</linearGradient>
<linearGradient id="paint2_linear" x1="265.988" y1="133.821" x2="307.23" y2="133.821" gradientUnits="userSpaceOnUse">
<stop stop-color="#34107A"/>
<stop offset="1" stop-color="#D503AB"/>
</linearGradient>
</defs>
</svg>
