<svg width="487" height="257" viewBox="0 0 487 257" fill="none" xmlns="http://www.w3.org/2000/svg">
<path d="M222.307 147V118.384L210.491 140.056H207.019L195.147 118.384V147H188.875V107.24H195.595L208.755 131.544L221.915 107.24H228.635V147H222.307ZM236.761 147V107.24H253.449C255.241 107.24 256.884 107.613 258.377 108.36C259.908 109.107 261.215 110.096 262.297 111.328C263.38 112.523 264.22 113.904 264.817 115.472C265.452 117.003 265.769 118.571 265.769 120.176C265.769 121.856 265.471 123.48 264.873 125.048C264.313 126.579 263.511 127.96 262.465 129.192C261.42 130.387 260.151 131.357 258.657 132.104C257.201 132.813 255.577 133.168 253.785 133.168H243.033V147H236.761ZM243.033 127.624H253.393C254.289 127.624 255.092 127.437 255.801 127.064C256.548 126.691 257.183 126.168 257.705 125.496C258.228 124.824 258.639 124.04 258.937 123.144C259.236 122.248 259.385 121.259 259.385 120.176C259.385 119.056 259.217 118.048 258.881 117.152C258.545 116.256 258.079 115.491 257.481 114.856C256.884 114.184 256.193 113.68 255.409 113.344C254.663 112.971 253.879 112.784 253.057 112.784H243.033V127.624ZM280 107.24H285.488L301.168 147H294.56L290.36 136.192H275.016L270.872 147H264.208L280 107.24ZM289.128 131.544L282.744 114.464L276.136 131.544H289.128Z" fill="black"/>
<path fill-rule="evenodd" clip-rule="evenodd" d="M272.353 5.44727H0L4.29153e-05 5.44736V180.931L114.675 254.819V79.3353L114.675 79.3352H387.029L272.353 5.44727Z" fill="url(#paint0_linear)"/>
<path fill-rule="evenodd" clip-rule="evenodd" d="M213.675 256.372L486.029 256.372L486.029 256.372L486.029 80.8882L371.354 7.00022L371.354 182.484L371.354 182.484L99.0001 182.484L213.675 256.372Z" fill="url(#paint1_linear)"/>
<path fill-rule="evenodd" clip-rule="evenodd" d="M203.616 249.372L475.97 249.372L475.962 249.367L475.962 73.8882L361.287 0.000228882L361.287 175.484L361.287 175.484L88.9411 175.484L203.616 249.372Z" fill="#FFC700"/>
<path d="M369 27L369 171.963L464 233L464 88.037L369 27Z" fill="url(#paint2_linear)"/>
<defs>
<linearGradient id="paint0_linear" x1="272.353" y1="5.44726" x2="200.948" y2="277.466" gradientUnits="userSpaceOnUse">
<stop stop-color="#151371"/>
<stop offset="0.0001" stop-color="#151371"/>
<stop offset="1" stop-color="#FF00B8"/>
</linearGradient>
<linearGradient id="paint1_linear" x1="213.675" y1="256.372" x2="285.081" y2="-15.6466" gradientUnits="userSpaceOnUse">
<stop stop-color="#151371"/>
<stop offset="0.0001" stop-color="#151371"/>
<stop offset="1" stop-color="#FF00B8"/>
</linearGradient>
<linearGradient id="paint2_linear" x1="369" y1="130" x2="464" y2="130" gradientUnits="userSpaceOnUse">
<stop stop-color="#34107A"/>
<stop offset="1" stop-color="#D503AB"/>
</linearGradient>
</defs>
</svg>
