<svg width="1397" height="262" viewBox="0 0 1397 262" fill="none" xmlns="http://www.w3.org/2000/svg">
<path d="M536.622 222.04C536.622 220.504 536.886 218.98 537.414 217.468C537.966 215.932 538.758 214.564 539.79 213.364C540.846 212.14 542.13 211.156 543.642 210.412C545.154 209.668 546.87 209.296 548.79 209.296C551.07 209.296 553.026 209.812 554.658 210.844C556.29 211.876 557.502 213.22 558.294 214.876L555.738 216.532C555.354 215.716 554.886 215.032 554.334 214.48C553.806 213.928 553.218 213.484 552.57 213.148C551.946 212.812 551.298 212.572 550.626 212.428C549.954 212.284 549.294 212.212 548.646 212.212C547.23 212.212 545.97 212.512 544.866 213.112C543.786 213.688 542.874 214.456 542.13 215.416C541.386 216.352 540.822 217.42 540.438 218.62C540.078 219.796 539.898 220.984 539.898 222.184C539.898 223.528 540.114 224.812 540.546 226.036C541.002 227.236 541.626 228.304 542.418 229.24C543.21 230.176 544.146 230.92 545.226 231.472C546.306 232.024 547.482 232.3 548.754 232.3C549.426 232.3 550.11 232.216 550.806 232.048C551.526 231.88 552.21 231.616 552.858 231.256C553.506 230.872 554.106 230.404 554.658 229.852C555.234 229.276 555.702 228.592 556.062 227.8L558.762 229.276C558.354 230.236 557.778 231.088 557.034 231.832C556.314 232.552 555.486 233.164 554.55 233.668C553.638 234.172 552.666 234.556 551.634 234.82C550.602 235.084 549.594 235.216 548.61 235.216C546.858 235.216 545.25 234.832 543.786 234.064C542.322 233.296 541.05 232.3 539.97 231.076C538.914 229.828 538.086 228.424 537.486 226.864C536.91 225.28 536.622 223.672 536.622 222.04ZM574.344 235.18C572.544 235.18 570.9 234.82 569.412 234.1C567.948 233.356 566.688 232.384 565.632 231.184C564.576 229.96 563.76 228.568 563.184 227.008C562.608 225.448 562.32 223.852 562.32 222.22C562.32 220.516 562.62 218.884 563.22 217.324C563.844 215.764 564.696 214.384 565.776 213.184C566.856 211.984 568.128 211.036 569.592 210.34C571.08 209.62 572.688 209.26 574.416 209.26C576.216 209.26 577.848 209.644 579.312 210.412C580.776 211.156 582.036 212.14 583.092 213.364C584.148 214.588 584.964 215.98 585.54 217.54C586.116 219.076 586.404 220.648 586.404 222.256C586.404 223.96 586.092 225.592 585.468 227.152C584.868 228.712 584.028 230.092 582.948 231.292C581.892 232.468 580.62 233.416 579.132 234.136C577.668 234.832 576.072 235.18 574.344 235.18ZM565.596 222.22C565.596 223.516 565.8 224.776 566.208 226C566.64 227.2 567.24 228.268 568.008 229.204C568.776 230.14 569.7 230.884 570.78 231.436C571.86 231.988 573.06 232.264 574.38 232.264C575.748 232.264 576.972 231.976 578.052 231.4C579.132 230.8 580.044 230.032 580.788 229.096C581.556 228.136 582.132 227.056 582.516 225.856C582.924 224.656 583.128 223.444 583.128 222.22C583.128 220.924 582.912 219.676 582.48 218.476C582.072 217.252 581.472 216.184 580.68 215.272C579.912 214.336 578.988 213.592 577.908 213.04C576.852 212.488 575.676 212.212 574.38 212.212C573.012 212.212 571.788 212.5 570.708 213.076C569.628 213.652 568.704 214.408 567.936 215.344C567.192 216.28 566.616 217.348 566.208 218.548C565.8 219.748 565.596 220.972 565.596 222.22ZM592.346 235V209.44H601.202C603.242 209.44 605.03 209.776 606.566 210.448C608.126 211.12 609.422 212.032 610.454 213.184C611.486 214.336 612.254 215.692 612.758 217.252C613.286 218.788 613.55 220.432 613.55 222.184C613.55 224.128 613.262 225.892 612.686 227.476C612.11 229.036 611.282 230.38 610.202 231.508C609.122 232.612 607.814 233.476 606.278 234.1C604.766 234.7 603.074 235 601.202 235H592.346ZM610.274 222.184C610.274 220.744 610.07 219.424 609.662 218.224C609.278 217 608.69 215.956 607.898 215.092C607.13 214.228 606.182 213.556 605.054 213.076C603.926 212.572 602.642 212.32 601.202 212.32H595.586V232.12H601.202C602.666 232.12 603.962 231.868 605.09 231.364C606.242 230.86 607.19 230.164 607.934 229.276C608.702 228.388 609.278 227.344 609.662 226.144C610.07 224.92 610.274 223.6 610.274 222.184ZM636.907 232.12V235H619.555V209.44H636.583V212.32H622.795V220.6H634.783V223.3H622.795V232.12H636.907ZM642.396 237.916L643.116 234.712H642.036V230.968H645.024V234.712L643.944 237.916H642.396ZM660.715 222.04C660.715 220.504 660.979 218.98 661.507 217.468C662.059 215.932 662.851 214.564 663.883 213.364C664.939 212.14 666.223 211.156 667.735 210.412C669.247 209.668 670.963 209.296 672.883 209.296C675.163 209.296 677.119 209.812 678.751 210.844C680.383 211.876 681.595 213.22 682.387 214.876L679.831 216.532C679.447 215.716 678.979 215.032 678.427 214.48C677.899 213.928 677.311 213.484 676.663 213.148C676.039 212.812 675.391 212.572 674.719 212.428C674.047 212.284 673.387 212.212 672.739 212.212C671.323 212.212 670.063 212.512 668.959 213.112C667.879 213.688 666.967 214.456 666.223 215.416C665.479 216.352 664.915 217.42 664.531 218.62C664.171 219.796 663.991 220.984 663.991 222.184C663.991 223.528 664.207 224.812 664.639 226.036C665.095 227.236 665.719 228.304 666.511 229.24C667.303 230.176 668.239 230.92 669.319 231.472C670.399 232.024 671.575 232.3 672.847 232.3C673.519 232.3 674.203 232.216 674.899 232.048C675.619 231.88 676.303 231.616 676.951 231.256C677.599 230.872 678.199 230.404 678.751 229.852C679.327 229.276 679.795 228.592 680.155 227.8L682.855 229.276C682.447 230.236 681.871 231.088 681.127 231.832C680.407 232.552 679.579 233.164 678.643 233.668C677.731 234.172 676.759 234.556 675.727 234.82C674.695 235.084 673.687 235.216 672.703 235.216C670.951 235.216 669.343 234.832 667.879 234.064C666.415 233.296 665.143 232.3 664.063 231.076C663.007 229.828 662.179 228.424 661.579 226.864C661.003 225.28 660.715 223.672 660.715 222.04ZM698.862 232.264C700.35 232.264 701.586 231.976 702.57 231.4C703.554 230.824 704.334 230.08 704.91 229.168C705.51 228.232 705.93 227.176 706.17 226C706.41 224.8 706.53 223.588 706.53 222.364V209.44H709.77V222.364C709.77 224.092 709.566 225.736 709.158 227.296C708.774 228.832 708.15 230.188 707.286 231.364C706.422 232.54 705.294 233.476 703.902 234.172C702.534 234.844 700.866 235.18 698.898 235.18C696.858 235.18 695.142 234.82 693.75 234.1C692.358 233.38 691.23 232.432 690.366 231.256C689.526 230.056 688.914 228.688 688.53 227.152C688.17 225.592 687.99 223.996 687.99 222.364V209.44H691.23V222.364C691.23 223.636 691.35 224.872 691.59 226.072C691.854 227.248 692.274 228.292 692.85 229.204C693.45 230.116 694.23 230.86 695.19 231.436C696.174 231.988 697.398 232.264 698.862 232.264ZM716.966 235V209.44H720.206V232.12H734.462V235H716.966ZM753.924 212.32H745.104V235H741.864V212.32H733.044V209.44H753.924V212.32ZM769.557 232.264C771.045 232.264 772.281 231.976 773.265 231.4C774.249 230.824 775.029 230.08 775.605 229.168C776.205 228.232 776.625 227.176 776.865 226C777.105 224.8 777.225 223.588 777.225 222.364V209.44H780.465V222.364C780.465 224.092 780.261 225.736 779.853 227.296C779.469 228.832 778.845 230.188 777.981 231.364C777.117 232.54 775.989 233.476 774.597 234.172C773.229 234.844 771.561 235.18 769.593 235.18C767.553 235.18 765.837 234.82 764.445 234.1C763.053 233.38 761.925 232.432 761.061 231.256C760.221 230.056 759.609 228.688 759.225 227.152C758.865 225.592 758.685 223.996 758.685 222.364V209.44H761.925V222.364C761.925 223.636 762.045 224.872 762.285 226.072C762.549 227.248 762.969 228.292 763.545 229.204C764.145 230.116 764.925 230.86 765.885 231.436C766.869 231.988 768.093 232.264 769.557 232.264ZM787.661 235V209.44H798.605C799.733 209.44 800.765 209.68 801.701 210.16C802.661 210.616 803.477 211.24 804.149 212.032C804.845 212.8 805.385 213.676 805.769 214.66C806.153 215.62 806.345 216.604 806.345 217.612C806.345 218.5 806.213 219.364 805.949 220.204C805.709 221.02 805.349 221.764 804.869 222.436C804.413 223.108 803.849 223.684 803.177 224.164C802.529 224.644 801.797 224.992 800.981 225.208L807.173 235H803.501L797.669 225.82H790.901V235H787.661ZM790.901 222.94H798.641C799.313 222.94 799.913 222.796 800.441 222.508C800.993 222.22 801.461 221.836 801.845 221.356C802.229 220.852 802.529 220.276 802.745 219.628C802.961 218.98 803.069 218.308 803.069 217.612C803.069 216.892 802.937 216.22 802.673 215.596C802.433 214.948 802.097 214.384 801.665 213.904C801.257 213.4 800.765 213.016 800.189 212.752C799.637 212.464 799.049 212.32 798.425 212.32H790.901V222.94ZM830.113 232.12V235H812.761V209.44H829.789V212.32H816.001V220.6H827.989V223.3H816.001V232.12H830.113ZM835.602 237.916L836.322 234.712H835.242V230.968H838.23V234.712L837.15 237.916H835.602ZM853.921 222.04C853.921 220.504 854.185 218.98 854.713 217.468C855.265 215.932 856.057 214.564 857.089 213.364C858.145 212.14 859.429 211.156 860.941 210.412C862.453 209.668 864.169 209.296 866.089 209.296C868.369 209.296 870.325 209.812 871.957 210.844C873.589 211.876 874.801 213.22 875.593 214.876L873.037 216.532C872.653 215.716 872.185 215.032 871.633 214.48C871.105 213.928 870.517 213.484 869.869 213.148C869.245 212.812 868.597 212.572 867.925 212.428C867.253 212.284 866.593 212.212 865.945 212.212C864.529 212.212 863.269 212.512 862.165 213.112C861.085 213.688 860.173 214.456 859.429 215.416C858.685 216.352 858.121 217.42 857.737 218.62C857.377 219.796 857.197 220.984 857.197 222.184C857.197 223.528 857.413 224.812 857.845 226.036C858.301 227.236 858.925 228.304 859.717 229.24C860.509 230.176 861.445 230.92 862.525 231.472C863.605 232.024 864.781 232.3 866.053 232.3C866.725 232.3 867.409 232.216 868.105 232.048C868.825 231.88 869.509 231.616 870.157 231.256C870.805 230.872 871.405 230.404 871.957 229.852C872.533 229.276 873.001 228.592 873.361 227.8L876.061 229.276C875.653 230.236 875.077 231.088 874.333 231.832C873.613 232.552 872.785 233.164 871.849 233.668C870.937 234.172 869.965 234.556 868.933 234.82C867.901 235.084 866.893 235.216 865.909 235.216C864.157 235.216 862.549 234.832 861.085 234.064C859.621 233.296 858.349 232.3 857.269 231.076C856.213 229.828 855.385 228.424 854.785 226.864C854.209 225.28 853.921 223.672 853.921 222.04ZM891.643 235.18C889.843 235.18 888.199 234.82 886.711 234.1C885.247 233.356 883.987 232.384 882.931 231.184C881.875 229.96 881.059 228.568 880.483 227.008C879.907 225.448 879.619 223.852 879.619 222.22C879.619 220.516 879.919 218.884 880.519 217.324C881.143 215.764 881.995 214.384 883.075 213.184C884.155 211.984 885.427 211.036 886.891 210.34C888.379 209.62 889.987 209.26 891.715 209.26C893.515 209.26 895.147 209.644 896.611 210.412C898.075 211.156 899.335 212.14 900.391 213.364C901.447 214.588 902.263 215.98 902.839 217.54C903.415 219.076 903.703 220.648 903.703 222.256C903.703 223.96 903.391 225.592 902.767 227.152C902.167 228.712 901.327 230.092 900.247 231.292C899.191 232.468 897.919 233.416 896.431 234.136C894.967 234.832 893.371 235.18 891.643 235.18ZM882.895 222.22C882.895 223.516 883.099 224.776 883.507 226C883.939 227.2 884.539 228.268 885.307 229.204C886.075 230.14 886.999 230.884 888.079 231.436C889.159 231.988 890.359 232.264 891.679 232.264C893.047 232.264 894.271 231.976 895.351 231.4C896.431 230.8 897.343 230.032 898.087 229.096C898.855 228.136 899.431 227.056 899.815 225.856C900.223 224.656 900.427 223.444 900.427 222.22C900.427 220.924 900.211 219.676 899.779 218.476C899.371 217.252 898.771 216.184 897.979 215.272C897.211 214.336 896.287 213.592 895.207 213.04C894.151 212.488 892.975 212.212 891.679 212.212C890.311 212.212 889.087 212.5 888.007 213.076C886.927 213.652 886.003 214.408 885.235 215.344C884.491 216.28 883.915 217.348 883.507 218.548C883.099 219.748 882.895 220.972 882.895 222.22ZM931.749 235V215.236L923.253 230.392H921.417L912.885 215.236V235H909.645V209.44H913.065L922.317 226.036L931.605 209.44H934.989V235H931.749ZM964.654 235V215.236L956.158 230.392H954.322L945.79 215.236V235H942.55V209.44H945.97L955.222 226.036L964.51 209.44H967.894V235H964.654ZM985.966 232.264C987.454 232.264 988.69 231.976 989.674 231.4C990.658 230.824 991.438 230.08 992.014 229.168C992.614 228.232 993.034 227.176 993.274 226C993.514 224.8 993.634 223.588 993.634 222.364V209.44H996.874V222.364C996.874 224.092 996.67 225.736 996.262 227.296C995.878 228.832 995.254 230.188 994.39 231.364C993.526 232.54 992.398 233.476 991.006 234.172C989.638 234.844 987.97 235.18 986.002 235.18C983.962 235.18 982.246 234.82 980.854 234.1C979.462 233.38 978.334 232.432 977.47 231.256C976.63 230.056 976.018 228.688 975.634 227.152C975.274 225.592 975.094 223.996 975.094 222.364V209.44H978.334V222.364C978.334 223.636 978.454 224.872 978.694 226.072C978.958 227.248 979.378 228.292 979.954 229.204C980.554 230.116 981.334 230.86 982.294 231.436C983.278 231.988 984.502 232.264 985.966 232.264ZM1007.31 215.488V235H1004.07V209.44H1006.59L1022.43 229.348V209.476H1025.67V235H1022.93L1007.31 215.488ZM1033.21 235V209.44H1036.45V235H1033.21ZM1062.44 212.32H1053.62V235H1050.38V212.32H1041.56V209.44H1062.44V212.32ZM1068.53 209.44L1076.27 222.76L1084.08 209.44H1087.61L1077.89 225.676V235H1074.65V225.604L1064.97 209.44H1068.53ZM1088.81 235V230.968H1091.47V235H1088.81Z" fill="black"/>
<path d="M536.622 222.04C536.622 220.504 536.886 218.98 537.414 217.468C537.966 215.932 538.758 214.564 539.79 213.364C540.846 212.14 542.13 211.156 543.642 210.412C545.154 209.668 546.87 209.296 548.79 209.296C551.07 209.296 553.026 209.812 554.658 210.844C556.29 211.876 557.502 213.22 558.294 214.876L555.738 216.532C555.354 215.716 554.886 215.032 554.334 214.48C553.806 213.928 553.218 213.484 552.57 213.148C551.946 212.812 551.298 212.572 550.626 212.428C549.954 212.284 549.294 212.212 548.646 212.212C547.23 212.212 545.97 212.512 544.866 213.112C543.786 213.688 542.874 214.456 542.13 215.416C541.386 216.352 540.822 217.42 540.438 218.62C540.078 219.796 539.898 220.984 539.898 222.184C539.898 223.528 540.114 224.812 540.546 226.036C541.002 227.236 541.626 228.304 542.418 229.24C543.21 230.176 544.146 230.92 545.226 231.472C546.306 232.024 547.482 232.3 548.754 232.3C549.426 232.3 550.11 232.216 550.806 232.048C551.526 231.88 552.21 231.616 552.858 231.256C553.506 230.872 554.106 230.404 554.658 229.852C555.234 229.276 555.702 228.592 556.062 227.8L558.762 229.276C558.354 230.236 557.778 231.088 557.034 231.832C556.314 232.552 555.486 233.164 554.55 233.668C553.638 234.172 552.666 234.556 551.634 234.82C550.602 235.084 549.594 235.216 548.61 235.216C546.858 235.216 545.25 234.832 543.786 234.064C542.322 233.296 541.05 232.3 539.97 231.076C538.914 229.828 538.086 228.424 537.486 226.864C536.91 225.28 536.622 223.672 536.622 222.04ZM574.344 235.18C572.544 235.18 570.9 234.82 569.412 234.1C567.948 233.356 566.688 232.384 565.632 231.184C564.576 229.96 563.76 228.568 563.184 227.008C562.608 225.448 562.32 223.852 562.32 222.22C562.32 220.516 562.62 218.884 563.22 217.324C563.844 215.764 564.696 214.384 565.776 213.184C566.856 211.984 568.128 211.036 569.592 210.34C571.08 209.62 572.688 209.26 574.416 209.26C576.216 209.26 577.848 209.644 579.312 210.412C580.776 211.156 582.036 212.14 583.092 213.364C584.148 214.588 584.964 215.98 585.54 217.54C586.116 219.076 586.404 220.648 586.404 222.256C586.404 223.96 586.092 225.592 585.468 227.152C584.868 228.712 584.028 230.092 582.948 231.292C581.892 232.468 580.62 233.416 579.132 234.136C577.668 234.832 576.072 235.18 574.344 235.18ZM565.596 222.22C565.596 223.516 565.8 224.776 566.208 226C566.64 227.2 567.24 228.268 568.008 229.204C568.776 230.14 569.7 230.884 570.78 231.436C571.86 231.988 573.06 232.264 574.38 232.264C575.748 232.264 576.972 231.976 578.052 231.4C579.132 230.8 580.044 230.032 580.788 229.096C581.556 228.136 582.132 227.056 582.516 225.856C582.924 224.656 583.128 223.444 583.128 222.22C583.128 220.924 582.912 219.676 582.48 218.476C582.072 217.252 581.472 216.184 580.68 215.272C579.912 214.336 578.988 213.592 577.908 213.04C576.852 212.488 575.676 212.212 574.38 212.212C573.012 212.212 571.788 212.5 570.708 213.076C569.628 213.652 568.704 214.408 567.936 215.344C567.192 216.28 566.616 217.348 566.208 218.548C565.8 219.748 565.596 220.972 565.596 222.22ZM592.346 235V209.44H601.202C603.242 209.44 605.03 209.776 606.566 210.448C608.126 211.12 609.422 212.032 610.454 213.184C611.486 214.336 612.254 215.692 612.758 217.252C613.286 218.788 613.55 220.432 613.55 222.184C613.55 224.128 613.262 225.892 612.686 227.476C612.11 229.036 611.282 230.38 610.202 231.508C609.122 232.612 607.814 233.476 606.278 234.1C604.766 234.7 603.074 235 601.202 235H592.346ZM610.274 222.184C610.274 220.744 610.07 219.424 609.662 218.224C609.278 217 608.69 215.956 607.898 215.092C607.13 214.228 606.182 213.556 605.054 213.076C603.926 212.572 602.642 212.32 601.202 212.32H595.586V232.12H601.202C602.666 232.12 603.962 231.868 605.09 231.364C606.242 230.86 607.19 230.164 607.934 229.276C608.702 228.388 609.278 227.344 609.662 226.144C610.07 224.92 610.274 223.6 610.274 222.184ZM636.907 232.12V235H619.555V209.44H636.583V212.32H622.795V220.6H634.783V223.3H622.795V232.12H636.907ZM642.396 237.916L643.116 234.712H642.036V230.968H645.024V234.712L643.944 237.916H642.396ZM660.715 222.04C660.715 220.504 660.979 218.98 661.507 217.468C662.059 215.932 662.851 214.564 663.883 213.364C664.939 212.14 666.223 211.156 667.735 210.412C669.247 209.668 670.963 209.296 672.883 209.296C675.163 209.296 677.119 209.812 678.751 210.844C680.383 211.876 681.595 213.22 682.387 214.876L679.831 216.532C679.447 215.716 678.979 215.032 678.427 214.48C677.899 213.928 677.311 213.484 676.663 213.148C676.039 212.812 675.391 212.572 674.719 212.428C674.047 212.284 673.387 212.212 672.739 212.212C671.323 212.212 670.063 212.512 668.959 213.112C667.879 213.688 666.967 214.456 666.223 215.416C665.479 216.352 664.915 217.42 664.531 218.62C664.171 219.796 663.991 220.984 663.991 222.184C663.991 223.528 664.207 224.812 664.639 226.036C665.095 227.236 665.719 228.304 666.511 229.24C667.303 230.176 668.239 230.92 669.319 231.472C670.399 232.024 671.575 232.3 672.847 232.3C673.519 232.3 674.203 232.216 674.899 232.048C675.619 231.88 676.303 231.616 676.951 231.256C677.599 230.872 678.199 230.404 678.751 229.852C679.327 229.276 679.795 228.592 680.155 227.8L682.855 229.276C682.447 230.236 681.871 231.088 681.127 231.832C680.407 232.552 679.579 233.164 678.643 233.668C677.731 234.172 676.759 234.556 675.727 234.82C674.695 235.084 673.687 235.216 672.703 235.216C670.951 235.216 669.343 234.832 667.879 234.064C666.415 233.296 665.143 232.3 664.063 231.076C663.007 229.828 662.179 228.424 661.579 226.864C661.003 225.28 660.715 223.672 660.715 222.04ZM698.862 232.264C700.35 232.264 701.586 231.976 702.57 231.4C703.554 230.824 704.334 230.08 704.91 229.168C705.51 228.232 705.93 227.176 706.17 226C706.41 224.8 706.53 223.588 706.53 222.364V209.44H709.77V222.364C709.77 224.092 709.566 225.736 709.158 227.296C708.774 228.832 708.15 230.188 707.286 231.364C706.422 232.54 705.294 233.476 703.902 234.172C702.534 234.844 700.866 235.18 698.898 235.18C696.858 235.18 695.142 234.82 693.75 234.1C692.358 233.38 691.23 232.432 690.366 231.256C689.526 230.056 688.914 228.688 688.53 227.152C688.17 225.592 687.99 223.996 687.99 222.364V209.44H691.23V222.364C691.23 223.636 691.35 224.872 691.59 226.072C691.854 227.248 692.274 228.292 692.85 229.204C693.45 230.116 694.23 230.86 695.19 231.436C696.174 231.988 697.398 232.264 698.862 232.264ZM716.966 235V209.44H720.206V232.12H734.462V235H716.966ZM753.924 212.32H745.104V235H741.864V212.32H733.044V209.44H753.924V212.32ZM769.557 232.264C771.045 232.264 772.281 231.976 773.265 231.4C774.249 230.824 775.029 230.08 775.605 229.168C776.205 228.232 776.625 227.176 776.865 226C777.105 224.8 777.225 223.588 777.225 222.364V209.44H780.465V222.364C780.465 224.092 780.261 225.736 779.853 227.296C779.469 228.832 778.845 230.188 777.981 231.364C777.117 232.54 775.989 233.476 774.597 234.172C773.229 234.844 771.561 235.18 769.593 235.18C767.553 235.18 765.837 234.82 764.445 234.1C763.053 233.38 761.925 232.432 761.061 231.256C760.221 230.056 759.609 228.688 759.225 227.152C758.865 225.592 758.685 223.996 758.685 222.364V209.44H761.925V222.364C761.925 223.636 762.045 224.872 762.285 226.072C762.549 227.248 762.969 228.292 763.545 229.204C764.145 230.116 764.925 230.86 765.885 231.436C766.869 231.988 768.093 232.264 769.557 232.264ZM787.661 235V209.44H798.605C799.733 209.44 800.765 209.68 801.701 210.16C802.661 210.616 803.477 211.24 804.149 212.032C804.845 212.8 805.385 213.676 805.769 214.66C806.153 215.62 806.345 216.604 806.345 217.612C806.345 218.5 806.213 219.364 805.949 220.204C805.709 221.02 805.349 221.764 804.869 222.436C804.413 223.108 803.849 223.684 803.177 224.164C802.529 224.644 801.797 224.992 800.981 225.208L807.173 235H803.501L797.669 225.82H790.901V235H787.661ZM790.901 222.94H798.641C799.313 222.94 799.913 222.796 800.441 222.508C800.993 222.22 801.461 221.836 801.845 221.356C802.229 220.852 802.529 220.276 802.745 219.628C802.961 218.98 803.069 218.308 803.069 217.612C803.069 216.892 802.937 216.22 802.673 215.596C802.433 214.948 802.097 214.384 801.665 213.904C801.257 213.4 800.765 213.016 800.189 212.752C799.637 212.464 799.049 212.32 798.425 212.32H790.901V222.94ZM830.113 232.12V235H812.761V209.44H829.789V212.32H816.001V220.6H827.989V223.3H816.001V232.12H830.113ZM835.602 237.916L836.322 234.712H835.242V230.968H838.23V234.712L837.15 237.916H835.602ZM853.921 222.04C853.921 220.504 854.185 218.98 854.713 217.468C855.265 215.932 856.057 214.564 857.089 213.364C858.145 212.14 859.429 211.156 860.941 210.412C862.453 209.668 864.169 209.296 866.089 209.296C868.369 209.296 870.325 209.812 871.957 210.844C873.589 211.876 874.801 213.22 875.593 214.876L873.037 216.532C872.653 215.716 872.185 215.032 871.633 214.48C871.105 213.928 870.517 213.484 869.869 213.148C869.245 212.812 868.597 212.572 867.925 212.428C867.253 212.284 866.593 212.212 865.945 212.212C864.529 212.212 863.269 212.512 862.165 213.112C861.085 213.688 860.173 214.456 859.429 215.416C858.685 216.352 858.121 217.42 857.737 218.62C857.377 219.796 857.197 220.984 857.197 222.184C857.197 223.528 857.413 224.812 857.845 226.036C858.301 227.236 858.925 228.304 859.717 229.24C860.509 230.176 861.445 230.92 862.525 231.472C863.605 232.024 864.781 232.3 866.053 232.3C866.725 232.3 867.409 232.216 868.105 232.048C868.825 231.88 869.509 231.616 870.157 231.256C870.805 230.872 871.405 230.404 871.957 229.852C872.533 229.276 873.001 228.592 873.361 227.8L876.061 229.276C875.653 230.236 875.077 231.088 874.333 231.832C873.613 232.552 872.785 233.164 871.849 233.668C870.937 234.172 869.965 234.556 868.933 234.82C867.901 235.084 866.893 235.216 865.909 235.216C864.157 235.216 862.549 234.832 861.085 234.064C859.621 233.296 858.349 232.3 857.269 231.076C856.213 229.828 855.385 228.424 854.785 226.864C854.209 225.28 853.921 223.672 853.921 222.04ZM891.643 235.18C889.843 235.18 888.199 234.82 886.711 234.1C885.247 233.356 883.987 232.384 882.931 231.184C881.875 229.96 881.059 228.568 880.483 227.008C879.907 225.448 879.619 223.852 879.619 222.22C879.619 220.516 879.919 218.884 880.519 217.324C881.143 215.764 881.995 214.384 883.075 213.184C884.155 211.984 885.427 211.036 886.891 210.34C888.379 209.62 889.987 209.26 891.715 209.26C893.515 209.26 895.147 209.644 896.611 210.412C898.075 211.156 899.335 212.14 900.391 213.364C901.447 214.588 902.263 215.98 902.839 217.54C903.415 219.076 903.703 220.648 903.703 222.256C903.703 223.96 903.391 225.592 902.767 227.152C902.167 228.712 901.327 230.092 900.247 231.292C899.191 232.468 897.919 233.416 896.431 234.136C894.967 234.832 893.371 235.18 891.643 235.18ZM882.895 222.22C882.895 223.516 883.099 224.776 883.507 226C883.939 227.2 884.539 228.268 885.307 229.204C886.075 230.14 886.999 230.884 888.079 231.436C889.159 231.988 890.359 232.264 891.679 232.264C893.047 232.264 894.271 231.976 895.351 231.4C896.431 230.8 897.343 230.032 898.087 229.096C898.855 228.136 899.431 227.056 899.815 225.856C900.223 224.656 900.427 223.444 900.427 222.22C900.427 220.924 900.211 219.676 899.779 218.476C899.371 217.252 898.771 216.184 897.979 215.272C897.211 214.336 896.287 213.592 895.207 213.04C894.151 212.488 892.975 212.212 891.679 212.212C890.311 212.212 889.087 212.5 888.007 213.076C886.927 213.652 886.003 214.408 885.235 215.344C884.491 216.28 883.915 217.348 883.507 218.548C883.099 219.748 882.895 220.972 882.895 222.22ZM931.749 235V215.236L923.253 230.392H921.417L912.885 215.236V235H909.645V209.44H913.065L922.317 226.036L931.605 209.44H934.989V235H931.749ZM964.654 235V215.236L956.158 230.392H954.322L945.79 215.236V235H942.55V209.44H945.97L955.222 226.036L964.51 209.44H967.894V235H964.654ZM985.966 232.264C987.454 232.264 988.69 231.976 989.674 231.4C990.658 230.824 991.438 230.08 992.014 229.168C992.614 228.232 993.034 227.176 993.274 226C993.514 224.8 993.634 223.588 993.634 222.364V209.44H996.874V222.364C996.874 224.092 996.67 225.736 996.262 227.296C995.878 228.832 995.254 230.188 994.39 231.364C993.526 232.54 992.398 233.476 991.006 234.172C989.638 234.844 987.97 235.18 986.002 235.18C983.962 235.18 982.246 234.82 980.854 234.1C979.462 233.38 978.334 232.432 977.47 231.256C976.63 230.056 976.018 228.688 975.634 227.152C975.274 225.592 975.094 223.996 975.094 222.364V209.44H978.334V222.364C978.334 223.636 978.454 224.872 978.694 226.072C978.958 227.248 979.378 228.292 979.954 229.204C980.554 230.116 981.334 230.86 982.294 231.436C983.278 231.988 984.502 232.264 985.966 232.264ZM1007.31 215.488V235H1004.07V209.44H1006.59L1022.43 229.348V209.476H1025.67V235H1022.93L1007.31 215.488ZM1033.21 235V209.44H1036.45V235H1033.21ZM1062.44 212.32H1053.62V235H1050.38V212.32H1041.56V209.44H1062.44V212.32ZM1068.53 209.44L1076.27 222.76L1084.08 209.44H1087.61L1077.89 225.676V235H1074.65V225.604L1064.97 209.44H1068.53ZM1088.81 235V230.968H1091.47V235H1088.81Z" fill="black"/>
<rect x="535" y="254" width="567" height="8" fill="#FFC700"/>
<path d="M591.191 75V32.587L573.678 64.708H568.532L550.936 32.587V75H541.64V16.07H551.6L571.105 52.092L590.61 16.07H600.57V75H591.191ZM611.453 75V31.591H620.583V75H611.453ZM611.453 24.453V14.41H620.583V24.453H611.453ZM669.236 75H660.106V50.681C660.106 46.5863 659.442 43.626 658.114 41.8C656.842 39.9187 654.933 38.978 652.387 38.978C651.059 38.978 649.731 39.227 648.403 39.725C647.075 40.223 645.83 40.9423 644.668 41.883C643.506 42.7683 642.455 43.8473 641.514 45.12C640.629 46.3373 639.937 47.693 639.439 49.187V75H630.309V31.591H638.609V40.306C640.269 37.3733 642.676 35.077 645.83 33.417C648.984 31.7017 652.47 30.844 656.288 30.844C658.889 30.844 661.019 31.3143 662.679 32.255C664.339 33.1957 665.64 34.496 666.58 36.156C667.576 37.7607 668.268 39.642 668.655 41.8C669.043 43.9027 669.236 46.1437 669.236 48.523V75ZM698.094 75.83C694.663 75.83 691.564 75.2213 688.798 74.004C686.086 72.7867 683.762 71.1543 681.826 69.107C679.889 67.0597 678.395 64.6803 677.344 61.969C676.292 59.2023 675.767 56.325 675.767 53.337C675.767 50.349 676.292 47.4993 677.344 44.788C678.395 42.0213 679.889 39.6143 681.826 37.567C683.818 35.5197 686.169 33.8873 688.881 32.67C691.647 31.4527 694.718 30.844 698.094 30.844C701.469 30.844 704.512 31.4527 707.224 32.67C709.99 33.8873 712.342 35.5197 714.279 37.567C716.271 39.6143 717.792 42.0213 718.844 44.788C719.895 47.4993 720.421 50.349 720.421 53.337C720.421 56.325 719.895 59.2023 718.844 61.969C717.792 64.6803 716.271 67.0597 714.279 69.107C712.342 71.1543 709.99 72.7867 707.224 74.004C704.512 75.2213 701.469 75.83 698.094 75.83ZM685.146 53.42C685.146 55.5227 685.478 57.4593 686.142 59.23C686.806 61.0007 687.719 62.55 688.881 63.878C690.043 65.1507 691.398 66.1743 692.948 66.949C694.552 67.6683 696.268 68.028 698.094 68.028C699.92 68.028 701.607 67.6683 703.157 66.949C704.761 66.1743 706.145 65.123 707.307 63.795C708.469 62.467 709.382 60.9177 710.046 59.147C710.71 57.3763 711.042 55.4397 711.042 53.337C711.042 51.2897 710.71 49.3807 710.046 47.61C709.382 45.784 708.469 44.207 707.307 42.879C706.145 41.551 704.761 40.5273 703.157 39.808C701.607 39.0333 699.92 38.646 698.094 38.646C696.323 38.646 694.635 39.0333 693.031 39.808C691.481 40.5827 690.126 41.634 688.964 42.962C687.802 44.29 686.861 45.867 686.142 47.693C685.478 49.4637 685.146 51.3727 685.146 53.42ZM751.675 39.476C748.134 39.5867 744.98 40.4167 742.213 41.966C739.502 43.46 737.565 45.618 736.403 48.44V75H727.273V31.591H735.739V41.302C737.233 38.314 739.17 35.9347 741.549 34.164C743.984 32.338 746.585 31.342 749.351 31.176C749.905 31.176 750.347 31.176 750.679 31.176C751.067 31.176 751.399 31.2037 751.675 31.259V39.476ZM757.072 75V31.591H766.202V75H757.072ZM757.072 24.453V14.41H766.202V24.453H757.072ZM800.082 72.759C798.92 73.3123 797.315 73.9487 795.268 74.668C793.221 75.332 791.035 75.664 788.711 75.664C787.272 75.664 785.917 75.4703 784.644 75.083C783.371 74.6957 782.237 74.1147 781.241 73.34C780.3 72.5653 779.553 71.5693 779 70.352C778.447 69.0793 778.17 67.5577 778.17 65.787V38.646H772.443V31.591H778.17V17.315H787.3V31.591H796.762V38.646H787.3V62.882C787.411 64.4313 787.881 65.5657 788.711 66.285C789.596 66.949 790.675 67.281 791.948 67.281C793.221 67.281 794.438 67.0597 795.6 66.617C796.762 66.1743 797.62 65.8147 798.173 65.538L800.082 72.759ZM806.654 85.209C807.484 85.375 808.287 85.5133 809.061 85.624C809.891 85.7347 810.555 85.79 811.053 85.79C811.773 85.79 812.381 85.624 812.879 85.292C813.433 85.0153 813.986 84.4897 814.539 83.715C815.093 82.9403 815.646 81.8337 816.199 80.395C816.808 79.0117 817.5 77.2133 818.274 75L800.429 31.591H809.808L823.254 66.949L835.206 31.591H843.838L824.167 85.043C823.282 87.533 821.733 89.608 819.519 91.268C817.361 92.9833 814.567 93.841 811.136 93.841C810.472 93.841 809.781 93.7857 809.061 93.675C808.342 93.6197 807.54 93.4537 806.654 93.177V85.209ZM867.46 75V16.07H892.194C894.85 16.07 897.285 16.6233 899.498 17.73C901.767 18.8367 903.704 20.303 905.308 22.129C906.913 23.8997 908.158 25.947 909.043 28.271C909.984 30.5397 910.454 32.8637 910.454 35.243C910.454 37.733 910.012 40.14 909.126 42.464C908.296 44.7327 907.107 46.78 905.557 48.606C904.008 50.3767 902.127 51.8153 899.913 52.922C897.755 53.9733 895.348 54.499 892.692 54.499H876.756V75H867.46ZM876.756 46.282H892.111C893.439 46.282 894.629 46.0053 895.68 45.452C896.787 44.8987 897.728 44.124 898.502 43.128C899.277 42.132 899.886 40.97 900.328 39.642C900.771 38.314 900.992 36.8477 900.992 35.243C900.992 33.583 900.743 32.089 900.245 30.761C899.747 29.433 899.056 28.2987 898.17 27.358C897.285 26.362 896.261 25.615 895.099 25.117C893.993 24.5637 892.831 24.287 891.613 24.287H876.756V46.282ZM941.168 39.476C937.627 39.5867 934.473 40.4167 931.706 41.966C928.995 43.46 927.058 45.618 925.896 48.44V75H916.766V31.591H925.232V41.302C926.726 38.314 928.663 35.9347 931.042 34.164C933.477 32.338 936.078 31.342 938.844 31.176C939.398 31.176 939.84 31.176 940.172 31.176C940.56 31.176 940.892 31.2037 941.168 31.259V39.476ZM963.882 75.83C960.451 75.83 957.352 75.2213 954.586 74.004C951.874 72.7867 949.55 71.1543 947.614 69.107C945.677 67.0597 944.183 64.6803 943.132 61.969C942.08 59.2023 941.555 56.325 941.555 53.337C941.555 50.349 942.08 47.4993 943.132 44.788C944.183 42.0213 945.677 39.6143 947.614 37.567C949.606 35.5197 951.957 33.8873 954.669 32.67C957.435 31.4527 960.506 30.844 963.882 30.844C967.257 30.844 970.3 31.4527 973.012 32.67C975.778 33.8873 978.13 35.5197 980.067 37.567C982.059 39.6143 983.58 42.0213 984.632 44.788C985.683 47.4993 986.209 50.349 986.209 53.337C986.209 56.325 985.683 59.2023 984.632 61.969C983.58 64.6803 982.059 67.0597 980.067 69.107C978.13 71.1543 975.778 72.7867 973.012 74.004C970.3 75.2213 967.257 75.83 963.882 75.83ZM950.934 53.42C950.934 55.5227 951.266 57.4593 951.93 59.23C952.594 61.0007 953.507 62.55 954.669 63.878C955.831 65.1507 957.186 66.1743 958.736 66.949C960.34 67.6683 962.056 68.028 963.882 68.028C965.708 68.028 967.395 67.6683 968.945 66.949C970.549 66.1743 971.933 65.123 973.095 63.795C974.257 62.467 975.17 60.9177 975.834 59.147C976.498 57.3763 976.83 55.4397 976.83 53.337C976.83 51.2897 976.498 49.3807 975.834 47.61C975.17 45.784 974.257 44.207 973.095 42.879C971.933 41.551 970.549 40.5273 968.945 39.808C967.395 39.0333 965.708 38.646 963.882 38.646C962.111 38.646 960.423 39.0333 958.819 39.808C957.269 40.5827 955.914 41.634 954.752 42.962C953.59 44.29 952.649 45.867 951.93 47.693C951.266 49.4637 950.934 51.3727 950.934 53.42ZM1010.24 75.415C1007.31 75.415 1004.63 74.834 1002.19 73.672C999.757 72.4547 997.654 70.8223 995.883 68.775C994.168 66.7277 992.812 64.376 991.816 61.72C990.876 59.064 990.405 56.2697 990.405 53.337C990.405 50.2383 990.903 47.3333 991.899 44.622C992.895 41.8553 994.279 39.476 996.049 37.484C997.82 35.4367 999.923 33.832 1002.36 32.67C1004.85 31.4527 1007.59 30.844 1010.57 30.844C1014.06 30.844 1017.1 31.674 1019.7 33.334C1022.36 34.994 1024.55 37.152 1026.26 39.808V31.591H1034.31V73.755C1034.31 76.909 1033.73 79.7033 1032.57 82.138C1031.41 84.5727 1029.78 86.62 1027.67 88.28C1025.63 89.9953 1023.19 91.2957 1020.37 92.181C1017.55 93.0663 1014.5 93.509 1011.24 93.509C1006.42 93.509 1002.41 92.679 999.203 91.019C996.049 89.4143 993.393 87.1457 991.235 84.213L996.381 79.399C998.041 81.723 1000.17 83.4937 1002.77 84.711C1005.43 85.9283 1008.25 86.537 1011.24 86.537C1013.12 86.537 1014.89 86.288 1016.55 85.79C1018.27 85.292 1019.76 84.5173 1021.03 83.466C1022.31 82.4147 1023.3 81.0867 1024.02 79.482C1024.8 77.8773 1025.18 75.9683 1025.18 73.755V67.115C1023.63 69.771 1021.5 71.8183 1018.79 73.257C1016.08 74.6957 1013.23 75.415 1010.24 75.415ZM1013.23 68.028C1014.61 68.028 1015.94 67.8067 1017.21 67.364C1018.49 66.866 1019.65 66.2297 1020.7 65.455C1021.81 64.625 1022.75 63.712 1023.52 62.716C1024.3 61.6647 1024.85 60.558 1025.18 59.396V48.025C1024.63 46.6417 1023.91 45.3967 1023.02 44.29C1022.14 43.128 1021.12 42.132 1019.95 41.302C1018.85 40.472 1017.66 39.8357 1016.38 39.393C1015.11 38.895 1013.84 38.646 1012.57 38.646C1010.57 38.646 1008.78 39.0887 1007.17 39.974C1005.62 40.804 1004.29 41.9383 1003.19 43.377C1002.08 44.7603 1001.22 46.3373 1000.61 48.108C1000.01 49.8787 999.701 51.7047 999.701 53.586C999.701 55.578 1000.03 57.4593 1000.7 59.23C1001.42 60.9453 1002.39 62.467 1003.6 63.795C1004.82 65.0677 1006.23 66.0913 1007.84 66.866C1009.5 67.6407 1011.29 68.028 1013.23 68.028ZM1068.42 39.476C1064.88 39.5867 1061.72 40.4167 1058.96 41.966C1056.24 43.46 1054.31 45.618 1053.15 48.44V75H1044.02V31.591H1052.48V41.302C1053.98 38.314 1055.91 35.9347 1058.29 34.164C1060.73 32.338 1063.33 31.342 1066.09 31.176C1066.65 31.176 1067.09 31.176 1067.42 31.176C1067.81 31.176 1068.14 31.2037 1068.42 31.259V39.476ZM1084.78 75.83C1082.68 75.83 1080.72 75.498 1078.89 74.834C1077.12 74.1147 1075.57 73.1463 1074.24 71.929C1072.97 70.7117 1071.95 69.273 1071.17 67.613C1070.45 65.953 1070.09 64.1547 1070.09 62.218C1070.09 60.1707 1070.54 58.317 1071.42 56.657C1072.31 54.997 1073.55 53.5583 1075.16 52.341C1076.82 51.1237 1078.75 50.183 1080.97 49.519C1083.23 48.855 1085.72 48.523 1088.44 48.523C1090.48 48.523 1092.5 48.7167 1094.5 49.104C1096.49 49.436 1098.29 49.9063 1099.89 50.515V47.527C1099.89 44.3177 1098.98 41.8277 1097.15 40.057C1095.33 38.231 1092.7 37.318 1089.27 37.318C1086.94 37.318 1084.65 37.7607 1082.38 38.646C1080.16 39.476 1077.87 40.6933 1075.49 42.298L1072.67 36.488C1078.25 32.7253 1084.06 30.844 1090.1 30.844C1096.07 30.844 1100.72 32.3657 1104.04 35.409C1107.36 38.4523 1109.02 42.8237 1109.02 48.523V64.21C1109.02 66.1467 1109.82 67.1427 1111.43 67.198V75C1110.54 75.166 1109.77 75.2767 1109.1 75.332C1108.49 75.3873 1107.89 75.415 1107.28 75.415C1105.51 75.415 1104.12 74.9723 1103.13 74.087C1102.19 73.2017 1101.61 72.0673 1101.38 70.684L1101.14 67.945C1099.2 70.4903 1096.79 72.4547 1093.91 73.838C1091.09 75.166 1088.05 75.83 1084.78 75.83ZM1087.27 69.107C1089.49 69.107 1091.56 68.7197 1093.5 67.945C1095.49 67.115 1097.04 65.9807 1098.15 64.542C1099.31 63.546 1099.89 62.4947 1099.89 61.388V55.661C1098.34 55.0523 1096.68 54.582 1094.91 54.25C1093.19 53.918 1091.51 53.752 1089.85 53.752C1086.58 53.752 1083.9 54.4713 1081.8 55.91C1079.75 57.2933 1078.73 59.147 1078.73 61.471C1078.73 63.629 1079.53 65.455 1081.13 66.949C1082.74 68.3877 1084.78 69.107 1087.27 69.107ZM1185.25 75H1176.12V50.681C1176.12 46.6417 1175.46 43.6813 1174.13 41.8C1172.8 39.9187 1170.87 38.978 1168.32 38.978C1165.72 38.978 1163.34 39.9463 1161.18 41.883C1159.08 43.7643 1157.56 46.2267 1156.62 49.27V75H1147.49V50.681C1147.49 46.5863 1146.82 43.626 1145.49 41.8C1144.17 39.9187 1142.26 38.978 1139.77 38.978C1137.17 38.978 1134.79 39.9187 1132.63 41.8C1130.47 43.6813 1128.92 46.1437 1127.98 49.187V75H1118.85V31.591H1127.15V40.306C1128.87 37.2627 1131.11 34.9387 1133.87 33.334C1136.7 31.674 1139.91 30.844 1143.5 30.844C1147.1 30.844 1149.92 31.7847 1151.97 33.666C1154.07 35.5473 1155.37 37.899 1155.87 40.721C1157.7 37.5117 1159.99 35.077 1162.76 33.417C1165.53 31.7017 1168.68 30.844 1172.22 30.844C1174.77 30.844 1176.87 31.342 1178.53 32.338C1180.24 33.2787 1181.6 34.5513 1182.6 36.156C1183.59 37.7607 1184.28 39.642 1184.67 41.8C1185.06 43.9027 1185.25 46.1437 1185.25 48.523V75ZM1260.93 75H1251.8V50.681C1251.8 46.6417 1251.13 43.6813 1249.81 41.8C1248.48 39.9187 1246.54 38.978 1244 38.978C1241.4 38.978 1239.02 39.9463 1236.86 41.883C1234.76 43.7643 1233.23 46.2267 1232.29 49.27V75H1223.16V50.681C1223.16 46.5863 1222.5 43.626 1221.17 41.8C1219.84 39.9187 1217.93 38.978 1215.44 38.978C1212.84 38.978 1210.46 39.9187 1208.31 41.8C1206.15 43.6813 1204.6 46.1437 1203.66 49.187V75H1194.53V31.591H1202.83V40.306C1204.54 37.2627 1206.78 34.9387 1209.55 33.334C1212.37 31.674 1215.58 30.844 1219.18 30.844C1222.78 30.844 1225.6 31.7847 1227.64 33.666C1229.75 35.5473 1231.05 37.899 1231.55 40.721C1233.37 37.5117 1235.67 35.077 1238.43 33.417C1241.2 31.7017 1244.36 30.844 1247.9 30.844C1250.44 30.844 1252.54 31.342 1254.2 32.338C1255.92 33.2787 1257.28 34.5513 1258.27 36.156C1259.27 37.7607 1259.96 39.642 1260.35 41.8C1260.73 43.9027 1260.93 46.1437 1260.93 48.523V75ZM1289.87 75.83C1286.5 75.83 1283.43 75.249 1280.66 74.087C1277.89 72.8697 1275.52 71.2373 1273.52 69.19C1271.59 67.1427 1270.07 64.7633 1268.96 62.052C1267.91 59.3407 1267.38 56.4633 1267.38 53.42C1267.38 50.3767 1267.91 47.4993 1268.96 44.788C1270.07 42.0213 1271.59 39.6143 1273.52 37.567C1275.52 35.4643 1277.89 33.832 1280.66 32.67C1283.43 31.4527 1286.53 30.844 1289.96 30.844C1293.33 30.844 1296.38 31.4527 1299.09 32.67C1301.85 33.8873 1304.21 35.5197 1306.14 37.567C1308.08 39.559 1309.55 41.9107 1310.54 44.622C1311.59 47.278 1312.12 50.0723 1312.12 53.005C1312.12 53.669 1312.09 54.3053 1312.04 54.914C1311.98 55.4673 1311.92 55.9377 1311.87 56.325H1277.09C1277.26 58.2617 1277.7 60.0047 1278.42 61.554C1279.2 63.1033 1280.16 64.459 1281.33 65.621C1282.54 66.7277 1283.9 67.5853 1285.39 68.194C1286.94 68.8027 1288.55 69.107 1290.21 69.107C1291.42 69.107 1292.61 68.9687 1293.78 68.692C1294.99 68.36 1296.1 67.9173 1297.1 67.364C1298.09 66.7553 1298.98 66.036 1299.75 65.206C1300.53 64.376 1301.13 63.463 1301.58 62.467L1309.38 64.708C1307.89 67.9727 1305.4 70.6563 1301.91 72.759C1298.48 74.8063 1294.47 75.83 1289.87 75.83ZM1303.07 50.017C1302.91 48.191 1302.44 46.5033 1301.66 44.954C1300.94 43.4047 1300 42.1043 1298.84 41.053C1297.68 39.9463 1296.32 39.0887 1294.77 38.48C1293.22 37.8713 1291.59 37.567 1289.87 37.567C1288.16 37.567 1286.53 37.8713 1284.98 38.48C1283.48 39.0887 1282.16 39.9463 1280.99 41.053C1279.83 42.1043 1278.89 43.4047 1278.17 44.954C1277.45 46.5033 1277.01 48.191 1276.84 50.017H1303.07ZM1342.72 39.476C1339.18 39.5867 1336.03 40.4167 1333.26 41.966C1330.55 43.46 1328.61 45.618 1327.45 48.44V75H1318.32V31.591H1326.79V41.302C1328.28 38.314 1330.22 35.9347 1332.6 34.164C1335.03 32.338 1337.63 31.342 1340.4 31.176C1340.95 31.176 1341.39 31.176 1341.73 31.176C1342.11 31.176 1342.45 31.2037 1342.72 31.259V39.476ZM1363.89 75.83C1360.4 75.83 1356.92 75.2767 1353.43 74.17C1350 73.008 1347.04 71.3757 1344.55 69.273L1348.2 63.463C1350.8 65.3443 1353.38 66.783 1355.92 67.779C1358.47 68.7197 1361.07 69.19 1363.72 69.19C1366.44 69.19 1368.57 68.6643 1370.11 67.613C1371.72 66.5617 1372.52 65.0677 1372.52 63.131C1372.52 61.305 1371.64 59.977 1369.87 59.147C1368.1 58.317 1365.33 57.404 1361.57 56.408C1358.85 55.6887 1356.53 54.997 1354.59 54.333C1352.66 53.669 1351.08 52.8943 1349.86 52.009C1348.65 51.1237 1347.76 50.1 1347.21 48.938C1346.65 47.776 1346.38 46.365 1346.38 44.705C1346.38 42.4917 1346.79 40.5273 1347.62 38.812C1348.51 37.0967 1349.7 35.658 1351.19 34.496C1352.74 33.2787 1354.54 32.3657 1356.59 31.757C1358.63 31.1483 1360.85 30.844 1363.23 30.844C1366.49 30.844 1369.53 31.342 1372.36 32.338C1375.18 33.334 1377.7 34.7727 1379.91 36.654L1376.01 42.132C1371.97 38.9227 1367.68 37.318 1363.14 37.318C1360.82 37.318 1358.85 37.816 1357.25 38.812C1355.7 39.7527 1354.93 41.2743 1354.93 43.377C1354.93 44.2623 1355.09 45.0093 1355.42 45.618C1355.76 46.2267 1356.28 46.7523 1357 47.195C1357.78 47.6377 1358.74 48.0527 1359.91 48.44C1361.12 48.772 1362.62 49.1593 1364.39 49.602C1367.32 50.3213 1369.84 51.0407 1371.94 51.76C1374.1 52.4793 1375.87 53.337 1377.25 54.333C1378.64 55.2737 1379.66 56.408 1380.32 57.736C1380.99 59.0087 1381.32 60.558 1381.32 62.384C1381.32 66.534 1379.74 69.8263 1376.59 72.261C1373.49 74.6403 1369.26 75.83 1363.89 75.83ZM558.987 113.07H567.121L590.361 172H580.567L574.342 155.981H551.6L545.458 172H535.581L558.987 113.07ZM572.516 149.092L563.054 123.777L553.26 149.092H572.516ZM610.525 172.83C607.039 172.83 603.553 172.277 600.067 171.17C596.637 170.008 593.676 168.376 591.186 166.273L594.838 160.463C597.439 162.344 600.012 163.783 602.557 164.779C605.103 165.72 607.703 166.19 610.359 166.19C613.071 166.19 615.201 165.664 616.75 164.613C618.355 163.562 619.157 162.068 619.157 160.131C619.157 158.305 618.272 156.977 616.501 156.147C614.731 155.317 611.964 154.404 608.201 153.408C605.49 152.689 603.166 151.997 601.229 151.333C599.293 150.669 597.716 149.894 596.498 149.009C595.281 148.124 594.396 147.1 593.842 145.938C593.289 144.776 593.012 143.365 593.012 141.705C593.012 139.492 593.427 137.527 594.257 135.812C595.143 134.097 596.332 132.658 597.826 131.496C599.376 130.279 601.174 129.366 603.221 128.757C605.269 128.148 607.482 127.844 609.861 127.844C613.126 127.844 616.169 128.342 618.991 129.338C621.813 130.334 624.331 131.773 626.544 133.654L622.643 139.132C618.604 135.923 614.316 134.318 609.778 134.318C607.454 134.318 605.49 134.816 603.885 135.812C602.336 136.753 601.561 138.274 601.561 140.377C601.561 141.262 601.727 142.009 602.059 142.618C602.391 143.227 602.917 143.752 603.636 144.195C604.411 144.638 605.379 145.053 606.541 145.44C607.759 145.772 609.253 146.159 611.023 146.602C613.956 147.321 616.474 148.041 618.576 148.76C620.734 149.479 622.505 150.337 623.888 151.333C625.272 152.274 626.295 153.408 626.959 154.736C627.623 156.009 627.955 157.558 627.955 159.384C627.955 163.534 626.378 166.826 623.224 169.261C620.126 171.64 615.893 172.83 610.525 172.83ZM650.456 172.83C646.97 172.83 643.484 172.277 639.998 171.17C636.568 170.008 633.607 168.376 631.117 166.273L634.769 160.463C637.37 162.344 639.943 163.783 642.488 164.779C645.034 165.72 647.634 166.19 650.29 166.19C653.002 166.19 655.132 165.664 656.681 164.613C658.286 163.562 659.088 162.068 659.088 160.131C659.088 158.305 658.203 156.977 656.432 156.147C654.662 155.317 651.895 154.404 648.132 153.408C645.421 152.689 643.097 151.997 641.16 151.333C639.224 150.669 637.647 149.894 636.429 149.009C635.212 148.124 634.327 147.1 633.773 145.938C633.22 144.776 632.943 143.365 632.943 141.705C632.943 139.492 633.358 137.527 634.188 135.812C635.074 134.097 636.263 132.658 637.757 131.496C639.307 130.279 641.105 129.366 643.152 128.757C645.2 128.148 647.413 127.844 649.792 127.844C653.057 127.844 656.1 128.342 658.922 129.338C661.744 130.334 664.262 131.773 666.475 133.654L662.574 139.132C658.535 135.923 654.247 134.318 649.709 134.318C647.385 134.318 645.421 134.816 643.816 135.812C642.267 136.753 641.492 138.274 641.492 140.377C641.492 141.262 641.658 142.009 641.99 142.618C642.322 143.227 642.848 143.752 643.567 144.195C644.342 144.638 645.31 145.053 646.472 145.44C647.69 145.772 649.184 146.159 650.954 146.602C653.887 147.321 656.405 148.041 658.507 148.76C660.665 149.479 662.436 150.337 663.819 151.333C665.203 152.274 666.226 153.408 666.89 154.736C667.554 156.009 667.886 157.558 667.886 159.384C667.886 163.534 666.309 166.826 663.155 169.261C660.057 171.64 655.824 172.83 650.456 172.83ZM694.122 172.83C690.691 172.83 687.593 172.221 684.826 171.004C682.115 169.787 679.791 168.154 677.854 166.107C675.917 164.06 674.423 161.68 673.372 158.969C672.321 156.202 671.795 153.325 671.795 150.337C671.795 147.349 672.321 144.499 673.372 141.788C674.423 139.021 675.917 136.614 677.854 134.567C679.846 132.52 682.198 130.887 684.909 129.67C687.676 128.453 690.747 127.844 694.122 127.844C697.497 127.844 700.541 128.453 703.252 129.67C706.019 130.887 708.37 132.52 710.307 134.567C712.299 136.614 713.821 139.021 714.872 141.788C715.923 144.499 716.449 147.349 716.449 150.337C716.449 153.325 715.923 156.202 714.872 158.969C713.821 161.68 712.299 164.06 710.307 166.107C708.37 168.154 706.019 169.787 703.252 171.004C700.541 172.221 697.497 172.83 694.122 172.83ZM681.174 150.42C681.174 152.523 681.506 154.459 682.17 156.23C682.834 158.001 683.747 159.55 684.909 160.878C686.071 162.151 687.427 163.174 688.976 163.949C690.581 164.668 692.296 165.028 694.122 165.028C695.948 165.028 697.636 164.668 699.185 163.949C700.79 163.174 702.173 162.123 703.335 160.795C704.497 159.467 705.41 157.918 706.074 156.147C706.738 154.376 707.07 152.44 707.07 150.337C707.07 148.29 706.738 146.381 706.074 144.61C705.41 142.784 704.497 141.207 703.335 139.879C702.173 138.551 700.79 137.527 699.185 136.808C697.636 136.033 695.948 135.646 694.122 135.646C692.351 135.646 690.664 136.033 689.059 136.808C687.51 137.583 686.154 138.634 684.992 139.962C683.83 141.29 682.889 142.867 682.17 144.693C681.506 146.464 681.174 148.373 681.174 150.42ZM720.48 150.254C720.48 147.211 721.005 144.333 722.057 141.622C723.108 138.911 724.602 136.531 726.539 134.484C728.531 132.437 730.91 130.832 733.677 129.67C736.443 128.453 739.542 127.844 742.973 127.844C747.455 127.844 751.3 128.84 754.51 130.832C757.774 132.769 760.209 135.369 761.814 138.634L752.933 141.456C751.881 139.63 750.47 138.219 748.7 137.223C746.929 136.172 744.965 135.646 742.807 135.646C740.981 135.646 739.265 136.006 737.661 136.725C736.111 137.444 734.756 138.468 733.594 139.796C732.432 141.069 731.519 142.59 730.855 144.361C730.191 146.132 729.859 148.096 729.859 150.254C729.859 152.357 730.191 154.321 730.855 156.147C731.574 157.918 732.515 159.467 733.677 160.795C734.894 162.123 736.277 163.174 737.827 163.949C739.431 164.668 741.119 165.028 742.89 165.028C743.996 165.028 745.103 164.89 746.21 164.613C747.316 164.281 748.312 163.838 749.198 163.285C750.138 162.732 750.941 162.095 751.605 161.376C752.324 160.657 752.85 159.882 753.182 159.052L762.146 161.708C760.707 164.973 758.3 167.656 754.925 169.759C751.549 171.806 747.565 172.83 742.973 172.83C739.597 172.83 736.526 172.221 733.76 171.004C730.993 169.787 728.614 168.154 726.622 166.107C724.685 164.004 723.163 161.597 722.057 158.886C721.005 156.175 720.48 153.297 720.48 150.254ZM768.42 172V128.591H777.55V172H768.42ZM768.42 121.453V111.41H777.55V121.453H768.42ZM798.814 172.83C796.711 172.83 794.747 172.498 792.921 171.834C791.15 171.115 789.601 170.146 788.273 168.929C787 167.712 785.976 166.273 785.202 164.613C784.482 162.953 784.123 161.155 784.123 159.218C784.123 157.171 784.565 155.317 785.451 153.657C786.336 151.997 787.581 150.558 789.186 149.341C790.846 148.124 792.782 147.183 794.996 146.519C797.264 145.855 799.754 145.523 802.466 145.523C804.513 145.523 806.533 145.717 808.525 146.104C810.517 146.436 812.315 146.906 813.92 147.515V144.527C813.92 141.318 813.007 138.828 811.181 137.057C809.355 135.231 806.726 134.318 803.296 134.318C800.972 134.318 798.675 134.761 796.407 135.646C794.193 136.476 791.897 137.693 789.518 139.298L786.696 133.488C792.284 129.725 798.094 127.844 804.126 127.844C810.102 127.844 814.75 129.366 818.07 132.409C821.39 135.452 823.05 139.824 823.05 145.523V161.21C823.05 163.147 823.852 164.143 825.457 164.198V172C824.571 172.166 823.797 172.277 823.133 172.332C822.524 172.387 821.915 172.415 821.307 172.415C819.536 172.415 818.153 171.972 817.157 171.087C816.216 170.202 815.635 169.067 815.414 167.684L815.165 164.945C813.228 167.49 810.821 169.455 807.944 170.838C805.122 172.166 802.078 172.83 798.814 172.83ZM801.304 166.107C803.517 166.107 805.592 165.72 807.529 164.945C809.521 164.115 811.07 162.981 812.177 161.542C813.339 160.546 813.92 159.495 813.92 158.388V152.661C812.37 152.052 810.71 151.582 808.94 151.25C807.224 150.918 805.537 150.752 803.877 150.752C800.612 150.752 797.928 151.471 795.826 152.91C793.778 154.293 792.755 156.147 792.755 158.471C792.755 160.629 793.557 162.455 795.162 163.949C796.766 165.388 798.814 166.107 801.304 166.107ZM856.71 169.759C855.548 170.312 853.943 170.949 851.896 171.668C849.849 172.332 847.663 172.664 845.339 172.664C843.9 172.664 842.545 172.47 841.272 172.083C839.999 171.696 838.865 171.115 837.869 170.34C836.928 169.565 836.181 168.569 835.628 167.352C835.075 166.079 834.798 164.558 834.798 162.787V135.646H829.071V128.591H834.798V114.315H843.928V128.591H853.39V135.646H843.928V159.882C844.039 161.431 844.509 162.566 845.339 163.285C846.224 163.949 847.303 164.281 848.576 164.281C849.849 164.281 851.066 164.06 852.228 163.617C853.39 163.174 854.248 162.815 854.801 162.538L856.71 169.759ZM861.789 172V128.591H870.919V172H861.789ZM861.789 121.453V111.41H870.919V121.453H861.789ZM900.15 172.83C896.719 172.83 893.621 172.221 890.854 171.004C888.143 169.787 885.819 168.154 883.882 166.107C881.945 164.06 880.451 161.68 879.4 158.969C878.349 156.202 877.823 153.325 877.823 150.337C877.823 147.349 878.349 144.499 879.4 141.788C880.451 139.021 881.945 136.614 883.882 134.567C885.874 132.52 888.226 130.887 890.937 129.67C893.704 128.453 896.775 127.844 900.15 127.844C903.525 127.844 906.569 128.453 909.28 129.67C912.047 130.887 914.398 132.52 916.335 134.567C918.327 136.614 919.849 139.021 920.9 141.788C921.951 144.499 922.477 147.349 922.477 150.337C922.477 153.325 921.951 156.202 920.9 158.969C919.849 161.68 918.327 164.06 916.335 166.107C914.398 168.154 912.047 169.787 909.28 171.004C906.569 172.221 903.525 172.83 900.15 172.83ZM887.202 150.42C887.202 152.523 887.534 154.459 888.198 156.23C888.862 158.001 889.775 159.55 890.937 160.878C892.099 162.151 893.455 163.174 895.004 163.949C896.609 164.668 898.324 165.028 900.15 165.028C901.976 165.028 903.664 164.668 905.213 163.949C906.818 163.174 908.201 162.123 909.363 160.795C910.525 159.467 911.438 157.918 912.102 156.147C912.766 154.376 913.098 152.44 913.098 150.337C913.098 148.29 912.766 146.381 912.102 144.61C911.438 142.784 910.525 141.207 909.363 139.879C908.201 138.551 906.818 137.527 905.213 136.808C903.664 136.033 901.976 135.646 900.15 135.646C898.379 135.646 896.692 136.033 895.087 136.808C893.538 137.583 892.182 138.634 891.02 139.962C889.858 141.29 888.917 142.867 888.198 144.693C887.534 146.464 887.202 148.373 887.202 150.42ZM968.257 172H959.127V147.681C959.127 143.586 958.463 140.626 957.135 138.8C955.862 136.919 953.953 135.978 951.408 135.978C950.08 135.978 948.752 136.227 947.424 136.725C946.096 137.223 944.851 137.942 943.689 138.883C942.527 139.768 941.475 140.847 940.535 142.12C939.649 143.337 938.958 144.693 938.46 146.187V172H929.33V128.591H937.63V137.306C939.29 134.373 941.697 132.077 944.851 130.417C948.005 128.702 951.491 127.844 955.309 127.844C957.909 127.844 960.04 128.314 961.7 129.255C963.36 130.196 964.66 131.496 965.601 133.156C966.597 134.761 967.288 136.642 967.676 138.8C968.063 140.903 968.257 143.144 968.257 145.523V172Z" fill="black"/>
<path fill-rule="evenodd" clip-rule="evenodd" d="M272.353 5.44727H0L4.29153e-05 5.44736V180.931L114.675 254.819V79.3353L114.675 79.3352H387.029L272.353 5.44727Z" fill="url(#paint0_linear)"/>
<path fill-rule="evenodd" clip-rule="evenodd" d="M213.675 256.372L486.029 256.372L486.029 256.372L486.029 80.8879L371.354 6.99997L371.354 182.484L371.354 182.484L99.0002 182.484L213.675 256.372Z" fill="url(#paint1_linear)"/>
<path fill-rule="evenodd" clip-rule="evenodd" d="M203.616 249.372L475.97 249.372L475.962 249.367L475.962 73.8879L361.287 -1.52588e-05L361.287 175.484L361.287 175.484L88.9412 175.484L203.616 249.372Z" fill="#FFC700"/>
<path d="M369 27L369 171.963L464 233L464 88.037L369 27Z" fill="url(#paint2_linear)"/>
<defs>
<linearGradient id="paint0_linear" x1="272.353" y1="5.44726" x2="200.948" y2="277.466" gradientUnits="userSpaceOnUse">
<stop stop-color="#151371"/>
<stop offset="0.0001" stop-color="#151371"/>
<stop offset="1" stop-color="#FF00B8"/>
</linearGradient>
<linearGradient id="paint1_linear" x1="213.675" y1="256.372" x2="285.081" y2="-15.6468" gradientUnits="userSpaceOnUse">
<stop stop-color="#151371"/>
<stop offset="0.0001" stop-color="#151371"/>
<stop offset="1" stop-color="#FF00B8"/>
</linearGradient>
<linearGradient id="paint2_linear" x1="369" y1="130" x2="464" y2="130" gradientUnits="userSpaceOnUse">
<stop stop-color="#34107A"/>
<stop offset="1" stop-color="#D503AB"/>
</linearGradient>
</defs>
</svg>
