<svg width="648" height="643" viewBox="0 0 648 643" fill="none" xmlns="http://www.w3.org/2000/svg">
<rect x="7" y="32" width="604" height="604" fill="white" stroke="#34107A" stroke-width="14"/>
<rect x="37" y="213" width="604" height="203" fill="white" stroke="#FFC700" stroke-width="14"/>
<path fill-rule="evenodd" clip-rule="evenodd" d="M110.784 280.897L110.784 360.298L61 326.866V247.465L61 247.465H61V247.465L61.0001 247.465H179.237L229.021 280.897H110.784Z" fill="url(#paint0_linear)"/>
<path fill-rule="evenodd" clip-rule="evenodd" d="M222.216 327.568L222.216 248.167L272 281.599L272 361L272 361L272 361L272 361L272 361L153.763 361L103.979 327.568L222.216 327.568Z" fill="url(#paint1_linear)"/>
<path fill-rule="evenodd" clip-rule="evenodd" d="M217.846 324.401L217.846 245L267.63 278.432V357.83L267.633 357.832H267.63V357.833L267.63 357.832H149.396L99.6121 324.401H217.846Z" fill="#FFC700"/>
<path d="M221.194 257.217L221.194 322.808L262.437 350.425V284.834L221.194 257.217Z" fill="url(#paint2_linear)"/>
<path d="M321.204 289V262.428L310.232 282.552H307.008L295.984 262.428V289H290.16V252.08H296.4L308.62 274.648L320.84 252.08H327.08V289H321.204ZM333.898 289V261.804H339.618V289H333.898ZM333.898 257.332V251.04H339.618V257.332H333.898ZM370.1 289H364.38V273.764C364.38 271.199 363.964 269.344 363.132 268.2C362.335 267.021 361.139 266.432 359.544 266.432C358.712 266.432 357.88 266.588 357.048 266.9C356.216 267.212 355.436 267.663 354.708 268.252C353.98 268.807 353.321 269.483 352.732 270.28C352.177 271.043 351.744 271.892 351.432 272.828V289H345.712V261.804H350.912V267.264C351.952 265.427 353.46 263.988 355.436 262.948C357.412 261.873 359.596 261.336 361.988 261.336C363.617 261.336 364.952 261.631 365.992 262.22C367.032 262.809 367.847 263.624 368.436 264.664C369.06 265.669 369.493 266.848 369.736 268.2C369.979 269.517 370.1 270.921 370.1 272.412V289ZM388.179 289.52C386.03 289.52 384.089 289.139 382.355 288.376C380.657 287.613 379.201 286.591 377.987 285.308C376.774 284.025 375.838 282.535 375.179 280.836C374.521 279.103 374.191 277.3 374.191 275.428C374.191 273.556 374.521 271.771 375.179 270.072C375.838 268.339 376.774 266.831 377.987 265.548C379.235 264.265 380.709 263.243 382.407 262.48C384.141 261.717 386.065 261.336 388.179 261.336C390.294 261.336 392.201 261.717 393.899 262.48C395.633 263.243 397.106 264.265 398.319 265.548C399.567 266.831 400.521 268.339 401.179 270.072C401.838 271.771 402.167 273.556 402.167 275.428C402.167 277.3 401.838 279.103 401.179 280.836C400.521 282.535 399.567 284.025 398.319 285.308C397.106 286.591 395.633 287.613 393.899 288.376C392.201 289.139 390.294 289.52 388.179 289.52ZM380.067 275.48C380.067 276.797 380.275 278.011 380.691 279.12C381.107 280.229 381.679 281.2 382.407 282.032C383.135 282.829 383.985 283.471 384.955 283.956C385.961 284.407 387.035 284.632 388.179 284.632C389.323 284.632 390.381 284.407 391.351 283.956C392.357 283.471 393.223 282.812 393.951 281.98C394.679 281.148 395.251 280.177 395.667 279.068C396.083 277.959 396.291 276.745 396.291 275.428C396.291 274.145 396.083 272.949 395.667 271.84C395.251 270.696 394.679 269.708 393.951 268.876C393.223 268.044 392.357 267.403 391.351 266.952C390.381 266.467 389.323 266.224 388.179 266.224C387.07 266.224 386.013 266.467 385.007 266.952C384.037 267.437 383.187 268.096 382.459 268.928C381.731 269.76 381.142 270.748 380.691 271.892C380.275 273.001 380.067 274.197 380.067 275.48ZM421.748 266.744C419.53 266.813 417.554 267.333 415.82 268.304C414.122 269.24 412.908 270.592 412.18 272.36V289H406.46V261.804H411.764V267.888C412.7 266.016 413.914 264.525 415.404 263.416C416.93 262.272 418.559 261.648 420.292 261.544C420.639 261.544 420.916 261.544 421.124 261.544C421.367 261.544 421.575 261.561 421.748 261.596V266.744ZM425.13 289V261.804H430.85V289H425.13ZM425.13 257.332V251.04H430.85V257.332H425.13ZM452.075 287.596C451.347 287.943 450.342 288.341 449.059 288.792C447.777 289.208 446.407 289.416 444.951 289.416C444.05 289.416 443.201 289.295 442.403 289.052C441.606 288.809 440.895 288.445 440.271 287.96C439.682 287.475 439.214 286.851 438.867 286.088C438.521 285.291 438.347 284.337 438.347 283.228V266.224H434.759V261.804H438.347V252.86H444.067V261.804H449.995V266.224H444.067V281.408C444.137 282.379 444.431 283.089 444.951 283.54C445.506 283.956 446.182 284.164 446.979 284.164C447.777 284.164 448.539 284.025 449.267 283.748C449.995 283.471 450.533 283.245 450.879 283.072L452.075 287.596ZM456.193 295.396C456.713 295.5 457.216 295.587 457.701 295.656C458.221 295.725 458.637 295.76 458.949 295.76C459.4 295.76 459.781 295.656 460.093 295.448C460.44 295.275 460.786 294.945 461.133 294.46C461.48 293.975 461.826 293.281 462.173 292.38C462.554 291.513 462.988 290.387 463.473 289L452.293 261.804H458.169L466.593 283.956L474.081 261.804H479.489L467.165 295.292C466.61 296.852 465.64 298.152 464.253 299.192C462.901 300.267 461.15 300.804 459.001 300.804C458.585 300.804 458.152 300.769 457.701 300.7C457.25 300.665 456.748 300.561 456.193 300.388V295.396ZM290.16 350V313.08H305.656C307.32 313.08 308.845 313.427 310.232 314.12C311.653 314.813 312.867 315.732 313.872 316.876C314.877 317.985 315.657 319.268 316.212 320.724C316.801 322.145 317.096 323.601 317.096 325.092C317.096 326.652 316.819 328.16 316.264 329.616C315.744 331.037 314.999 332.32 314.028 333.464C313.057 334.573 311.879 335.475 310.492 336.168C309.14 336.827 307.632 337.156 305.968 337.156H295.984V350H290.16ZM295.984 332.008H305.604C306.436 332.008 307.181 331.835 307.84 331.488C308.533 331.141 309.123 330.656 309.608 330.032C310.093 329.408 310.475 328.68 310.752 327.848C311.029 327.016 311.168 326.097 311.168 325.092C311.168 324.052 311.012 323.116 310.7 322.284C310.388 321.452 309.955 320.741 309.4 320.152C308.845 319.528 308.204 319.06 307.476 318.748C306.783 318.401 306.055 318.228 305.292 318.228H295.984V332.008ZM336.338 327.744C334.12 327.813 332.144 328.333 330.41 329.304C328.712 330.24 327.498 331.592 326.77 333.36V350H321.05V322.804H326.354V328.888C327.29 327.016 328.504 325.525 329.994 324.416C331.52 323.272 333.149 322.648 334.882 322.544C335.229 322.544 335.506 322.544 335.714 322.544C335.957 322.544 336.165 322.561 336.338 322.596V327.744ZM350.569 350.52C348.419 350.52 346.478 350.139 344.745 349.376C343.046 348.613 341.59 347.591 340.377 346.308C339.163 345.025 338.227 343.535 337.569 341.836C336.91 340.103 336.581 338.3 336.581 336.428C336.581 334.556 336.91 332.771 337.569 331.072C338.227 329.339 339.163 327.831 340.377 326.548C341.625 325.265 343.098 324.243 344.797 323.48C346.53 322.717 348.454 322.336 350.569 322.336C352.683 322.336 354.59 322.717 356.289 323.48C358.022 324.243 359.495 325.265 360.709 326.548C361.957 327.831 362.91 329.339 363.569 331.072C364.227 332.771 364.557 334.556 364.557 336.428C364.557 338.3 364.227 340.103 363.569 341.836C362.91 343.535 361.957 345.025 360.709 346.308C359.495 347.591 358.022 348.613 356.289 349.376C354.59 350.139 352.683 350.52 350.569 350.52ZM342.457 336.48C342.457 337.797 342.665 339.011 343.081 340.12C343.497 341.229 344.069 342.2 344.797 343.032C345.525 343.829 346.374 344.471 347.345 344.956C348.35 345.407 349.425 345.632 350.569 345.632C351.713 345.632 352.77 345.407 353.741 344.956C354.746 344.471 355.613 343.812 356.341 342.98C357.069 342.148 357.641 341.177 358.057 340.068C358.473 338.959 358.681 337.745 358.681 336.428C358.681 335.145 358.473 333.949 358.057 332.84C357.641 331.696 357.069 330.708 356.341 329.876C355.613 329.044 354.746 328.403 353.741 327.952C352.77 327.467 351.713 327.224 350.569 327.224C349.459 327.224 348.402 327.467 347.397 327.952C346.426 328.437 345.577 329.096 344.849 329.928C344.121 330.76 343.531 331.748 343.081 332.892C342.665 334.001 342.457 335.197 342.457 336.48ZM379.614 350.26C377.776 350.26 376.095 349.896 374.57 349.168C373.044 348.405 371.727 347.383 370.618 346.1C369.543 344.817 368.694 343.344 368.07 341.68C367.48 340.016 367.186 338.265 367.186 336.428C367.186 334.487 367.498 332.667 368.122 330.968C368.746 329.235 369.612 327.744 370.722 326.496C371.831 325.213 373.148 324.208 374.674 323.48C376.234 322.717 377.95 322.336 379.822 322.336C382.006 322.336 383.912 322.856 385.542 323.896C387.206 324.936 388.575 326.288 389.65 327.952V322.804H394.694V349.22C394.694 351.196 394.33 352.947 393.602 354.472C392.874 355.997 391.851 357.28 390.534 358.32C389.251 359.395 387.726 360.209 385.958 360.764C384.19 361.319 382.283 361.596 380.238 361.596C377.222 361.596 374.708 361.076 372.698 360.036C370.722 359.031 369.058 357.609 367.706 355.772L370.93 352.756C371.97 354.212 373.304 355.321 374.934 356.084C376.598 356.847 378.366 357.228 380.238 357.228C381.416 357.228 382.526 357.072 383.566 356.76C384.64 356.448 385.576 355.963 386.374 355.304C387.171 354.645 387.795 353.813 388.246 352.808C388.731 351.803 388.974 350.607 388.974 349.22V345.06C388.003 346.724 386.668 348.007 384.97 348.908C383.271 349.809 381.486 350.26 379.614 350.26ZM381.486 345.632C382.352 345.632 383.184 345.493 383.982 345.216C384.779 344.904 385.507 344.505 386.166 344.02C386.859 343.5 387.448 342.928 387.934 342.304C388.419 341.645 388.766 340.952 388.974 340.224V333.1C388.627 332.233 388.176 331.453 387.622 330.76C387.067 330.032 386.426 329.408 385.698 328.888C385.004 328.368 384.259 327.969 383.462 327.692C382.664 327.38 381.867 327.224 381.07 327.224C379.822 327.224 378.695 327.501 377.69 328.056C376.719 328.576 375.887 329.287 375.194 330.188C374.5 331.055 373.963 332.043 373.582 333.152C373.2 334.261 373.01 335.405 373.01 336.584C373.01 337.832 373.218 339.011 373.634 340.12C374.084 341.195 374.691 342.148 375.454 342.98C376.216 343.777 377.1 344.419 378.106 344.904C379.146 345.389 380.272 345.632 381.486 345.632ZM416.061 327.744C413.842 327.813 411.866 328.333 410.133 329.304C408.434 330.24 407.221 331.592 406.493 333.36V350H400.773V322.804H406.077V328.888C407.013 327.016 408.226 325.525 409.717 324.416C411.242 323.272 412.872 322.648 414.605 322.544C414.952 322.544 415.229 322.544 415.437 322.544C415.68 322.544 415.888 322.561 416.061 322.596V327.744ZM426.315 350.52C424.997 350.52 423.767 350.312 422.623 349.896C421.513 349.445 420.543 348.839 419.711 348.076C418.913 347.313 418.272 346.412 417.787 345.372C417.336 344.332 417.111 343.205 417.111 341.992C417.111 340.709 417.388 339.548 417.943 338.508C418.497 337.468 419.277 336.567 420.283 335.804C421.323 335.041 422.536 334.452 423.923 334.036C425.344 333.62 426.904 333.412 428.603 333.412C429.885 333.412 431.151 333.533 432.399 333.776C433.647 333.984 434.773 334.279 435.779 334.66V332.788C435.779 330.777 435.207 329.217 434.063 328.108C432.919 326.964 431.272 326.392 429.123 326.392C427.667 326.392 426.228 326.669 424.807 327.224C423.42 327.744 421.981 328.507 420.491 329.512L418.723 325.872C422.224 323.515 425.864 322.336 429.643 322.336C433.387 322.336 436.299 323.289 438.379 325.196C440.459 327.103 441.499 329.841 441.499 333.412V343.24C441.499 344.453 442.001 345.077 443.007 345.112V350C442.452 350.104 441.967 350.173 441.551 350.208C441.169 350.243 440.788 350.26 440.407 350.26C439.297 350.26 438.431 349.983 437.807 349.428C437.217 348.873 436.853 348.163 436.715 347.296L436.559 345.58C435.345 347.175 433.837 348.405 432.035 349.272C430.267 350.104 428.36 350.52 426.315 350.52ZM427.875 346.308C429.261 346.308 430.561 346.065 431.775 345.58C433.023 345.06 433.993 344.349 434.687 343.448C435.415 342.824 435.779 342.165 435.779 341.472V337.884C434.808 337.503 433.768 337.208 432.659 337C431.584 336.792 430.527 336.688 429.487 336.688C427.441 336.688 425.76 337.139 424.443 338.04C423.16 338.907 422.519 340.068 422.519 341.524C422.519 342.876 423.021 344.02 424.027 344.956C425.032 345.857 426.315 346.308 427.875 346.308ZM489.258 350H483.538V334.764C483.538 332.233 483.122 330.379 482.29 329.2C481.458 328.021 480.245 327.432 478.65 327.432C477.021 327.432 475.53 328.039 474.178 329.252C472.861 330.431 471.908 331.973 471.318 333.88V350H465.598V334.764C465.598 332.199 465.182 330.344 464.35 329.2C463.518 328.021 462.322 327.432 460.762 327.432C459.133 327.432 457.642 328.021 456.29 329.2C454.938 330.379 453.968 331.921 453.378 333.828V350H447.658V322.804H452.858V328.264C453.933 326.357 455.337 324.901 457.07 323.896C458.838 322.856 460.849 322.336 463.102 322.336C465.356 322.336 467.124 322.925 468.406 324.104C469.724 325.283 470.538 326.756 470.85 328.524C471.994 326.513 473.433 324.988 475.166 323.948C476.9 322.873 478.876 322.336 481.094 322.336C482.689 322.336 484.006 322.648 485.046 323.272C486.121 323.861 486.97 324.659 487.594 325.664C488.218 326.669 488.652 327.848 488.894 329.2C489.137 330.517 489.258 331.921 489.258 333.412V350ZM536.67 350H530.95V334.764C530.95 332.233 530.534 330.379 529.702 329.2C528.87 328.021 527.656 327.432 526.062 327.432C524.432 327.432 522.942 328.039 521.59 329.252C520.272 330.431 519.319 331.973 518.73 333.88V350H513.01V334.764C513.01 332.199 512.594 330.344 511.762 329.2C510.93 328.021 509.734 327.432 508.174 327.432C506.544 327.432 505.054 328.021 503.702 329.2C502.35 330.379 501.379 331.921 500.79 333.828V350H495.07V322.804H500.27V328.264C501.344 326.357 502.748 324.901 504.482 323.896C506.25 322.856 508.26 322.336 510.514 322.336C512.767 322.336 514.535 322.925 515.818 324.104C517.135 325.283 517.95 326.756 518.262 328.524C519.406 326.513 520.844 324.988 522.578 323.948C524.311 322.873 526.287 322.336 528.506 322.336C530.1 322.336 531.418 322.648 532.458 323.272C533.532 323.861 534.382 324.659 535.006 325.664C535.63 326.669 536.063 327.848 536.306 329.2C536.548 330.517 536.67 331.921 536.67 333.412V350ZM554.805 350.52C552.69 350.52 550.766 350.156 549.033 349.428C547.3 348.665 545.809 347.643 544.561 346.36C543.348 345.077 542.394 343.587 541.701 341.888C541.042 340.189 540.713 338.387 540.713 336.48C540.713 334.573 541.042 332.771 541.701 331.072C542.394 329.339 543.348 327.831 544.561 326.548C545.809 325.231 547.3 324.208 549.033 323.48C550.766 322.717 552.708 322.336 554.857 322.336C556.972 322.336 558.878 322.717 560.577 323.48C562.31 324.243 563.784 325.265 564.997 326.548C566.21 327.796 567.129 329.269 567.753 330.968C568.412 332.632 568.741 334.383 568.741 336.22C568.741 336.636 568.724 337.035 568.689 337.416C568.654 337.763 568.62 338.057 568.585 338.3H546.797C546.901 339.513 547.178 340.605 547.629 341.576C548.114 342.547 548.721 343.396 549.449 344.124C550.212 344.817 551.061 345.355 551.997 345.736C552.968 346.117 553.973 346.308 555.013 346.308C555.776 346.308 556.521 346.221 557.249 346.048C558.012 345.84 558.705 345.563 559.329 345.216C559.953 344.835 560.508 344.384 560.993 343.864C561.478 343.344 561.86 342.772 562.137 342.148L567.025 343.552C566.089 345.597 564.529 347.279 562.345 348.596C560.196 349.879 557.682 350.52 554.805 350.52ZM563.073 334.348C562.969 333.204 562.674 332.147 562.189 331.176C561.738 330.205 561.149 329.391 560.421 328.732C559.693 328.039 558.844 327.501 557.873 327.12C556.902 326.739 555.88 326.548 554.805 326.548C553.73 326.548 552.708 326.739 551.737 327.12C550.801 327.501 549.969 328.039 549.241 328.732C548.513 329.391 547.924 330.205 547.473 331.176C547.022 332.147 546.745 333.204 546.641 334.348H563.073ZM587.915 327.744C585.696 327.813 583.72 328.333 581.987 329.304C580.288 330.24 579.075 331.592 578.347 333.36V350H572.627V322.804H577.931V328.888C578.867 327.016 580.08 325.525 581.571 324.416C583.096 323.272 584.726 322.648 586.459 322.544C586.806 322.544 587.083 322.544 587.291 322.544C587.534 322.544 587.742 322.561 587.915 322.596V327.744ZM601.176 350.52C598.992 350.52 596.808 350.173 594.624 349.48C592.475 348.752 590.62 347.729 589.06 346.412L591.348 342.772C592.977 343.951 594.589 344.852 596.184 345.476C597.779 346.065 599.408 346.36 601.072 346.36C602.771 346.36 604.105 346.031 605.076 345.372C606.081 344.713 606.584 343.777 606.584 342.564C606.584 341.42 606.029 340.588 604.92 340.068C603.811 339.548 602.077 338.976 599.72 338.352C598.021 337.901 596.565 337.468 595.352 337.052C594.139 336.636 593.151 336.151 592.388 335.596C591.625 335.041 591.071 334.4 590.724 333.672C590.377 332.944 590.204 332.06 590.204 331.02C590.204 329.633 590.464 328.403 590.984 327.328C591.539 326.253 592.284 325.352 593.22 324.624C594.191 323.861 595.317 323.289 596.6 322.908C597.883 322.527 599.269 322.336 600.76 322.336C602.805 322.336 604.712 322.648 606.48 323.272C608.248 323.896 609.825 324.797 611.212 325.976L608.768 329.408C606.237 327.397 603.551 326.392 600.708 326.392C599.252 326.392 598.021 326.704 597.016 327.328C596.045 327.917 595.56 328.871 595.56 330.188C595.56 330.743 595.664 331.211 595.872 331.592C596.08 331.973 596.409 332.303 596.86 332.58C597.345 332.857 597.952 333.117 598.68 333.36C599.443 333.568 600.379 333.811 601.488 334.088C603.325 334.539 604.903 334.989 606.22 335.44C607.572 335.891 608.681 336.428 609.548 337.052C610.415 337.641 611.056 338.352 611.472 339.184C611.888 339.981 612.096 340.952 612.096 342.096C612.096 344.696 611.108 346.759 609.132 348.284C607.191 349.775 604.539 350.52 601.176 350.52Z" fill="black"/>
<path d="M214.31 389.64C214.31 388.531 214.501 387.43 214.882 386.338C215.281 385.229 215.853 384.241 216.598 383.374C217.361 382.49 218.288 381.779 219.38 381.242C220.472 380.705 221.712 380.436 223.098 380.436C224.745 380.436 226.158 380.809 227.336 381.554C228.515 382.299 229.39 383.27 229.962 384.466L228.116 385.662C227.839 385.073 227.501 384.579 227.102 384.18C226.721 383.781 226.296 383.461 225.828 383.218C225.378 382.975 224.91 382.802 224.424 382.698C223.939 382.594 223.462 382.542 222.994 382.542C221.972 382.542 221.062 382.759 220.264 383.192C219.484 383.608 218.826 384.163 218.288 384.856C217.751 385.532 217.344 386.303 217.066 387.17C216.806 388.019 216.676 388.877 216.676 389.744C216.676 390.715 216.832 391.642 217.144 392.526C217.474 393.393 217.924 394.164 218.496 394.84C219.068 395.516 219.744 396.053 220.524 396.452C221.304 396.851 222.154 397.05 223.072 397.05C223.558 397.05 224.052 396.989 224.554 396.868C225.074 396.747 225.568 396.556 226.036 396.296C226.504 396.019 226.938 395.681 227.336 395.282C227.752 394.866 228.09 394.372 228.35 393.8L230.3 394.866C230.006 395.559 229.59 396.175 229.052 396.712C228.532 397.232 227.934 397.674 227.258 398.038C226.6 398.402 225.898 398.679 225.152 398.87C224.407 399.061 223.679 399.156 222.968 399.156C221.703 399.156 220.542 398.879 219.484 398.324C218.427 397.769 217.508 397.05 216.728 396.166C215.966 395.265 215.368 394.251 214.934 393.124C214.518 391.98 214.31 390.819 214.31 389.64ZM241.554 399.13C240.254 399.13 239.067 398.87 237.992 398.35C236.935 397.813 236.025 397.111 235.262 396.244C234.499 395.36 233.91 394.355 233.494 393.228C233.078 392.101 232.87 390.949 232.87 389.77C232.87 388.539 233.087 387.361 233.52 386.234C233.971 385.107 234.586 384.111 235.366 383.244C236.146 382.377 237.065 381.693 238.122 381.19C239.197 380.67 240.358 380.41 241.606 380.41C242.906 380.41 244.085 380.687 245.142 381.242C246.199 381.779 247.109 382.49 247.872 383.374C248.635 384.258 249.224 385.263 249.64 386.39C250.056 387.499 250.264 388.635 250.264 389.796C250.264 391.027 250.039 392.205 249.588 393.332C249.155 394.459 248.548 395.455 247.768 396.322C247.005 397.171 246.087 397.856 245.012 398.376C243.955 398.879 242.802 399.13 241.554 399.13ZM235.236 389.77C235.236 390.706 235.383 391.616 235.678 392.5C235.99 393.367 236.423 394.138 236.978 394.814C237.533 395.49 238.2 396.027 238.98 396.426C239.76 396.825 240.627 397.024 241.58 397.024C242.568 397.024 243.452 396.816 244.232 396.4C245.012 395.967 245.671 395.412 246.208 394.736C246.763 394.043 247.179 393.263 247.456 392.396C247.751 391.529 247.898 390.654 247.898 389.77C247.898 388.834 247.742 387.933 247.43 387.066C247.135 386.182 246.702 385.411 246.13 384.752C245.575 384.076 244.908 383.539 244.128 383.14C243.365 382.741 242.516 382.542 241.58 382.542C240.592 382.542 239.708 382.75 238.928 383.166C238.148 383.582 237.481 384.128 236.926 384.804C236.389 385.48 235.973 386.251 235.678 387.118C235.383 387.985 235.236 388.869 235.236 389.77ZM254.555 399V380.54H260.951C262.424 380.54 263.716 380.783 264.825 381.268C265.952 381.753 266.888 382.412 267.633 383.244C268.378 384.076 268.933 385.055 269.297 386.182C269.678 387.291 269.869 388.479 269.869 389.744C269.869 391.148 269.661 392.422 269.245 393.566C268.829 394.693 268.231 395.663 267.451 396.478C266.671 397.275 265.726 397.899 264.617 398.35C263.525 398.783 262.303 399 260.951 399H254.555ZM267.503 389.744C267.503 388.704 267.356 387.751 267.061 386.884C266.784 386 266.359 385.246 265.787 384.622C265.232 383.998 264.548 383.513 263.733 383.166C262.918 382.802 261.991 382.62 260.951 382.62H256.895V396.92H260.951C262.008 396.92 262.944 396.738 263.759 396.374C264.591 396.01 265.276 395.507 265.813 394.866C266.368 394.225 266.784 393.471 267.061 392.604C267.356 391.72 267.503 390.767 267.503 389.744ZM286.738 396.92V399H274.206V380.54H286.504V382.62H276.546V388.6H285.204V390.55H276.546V396.92H286.738ZM290.703 401.106L291.223 398.792H290.443V396.088H292.601V398.792L291.821 401.106H290.703ZM303.933 389.64C303.933 388.531 304.124 387.43 304.505 386.338C304.904 385.229 305.476 384.241 306.221 383.374C306.984 382.49 307.911 381.779 309.003 381.242C310.095 380.705 311.335 380.436 312.721 380.436C314.368 380.436 315.781 380.809 316.959 381.554C318.138 382.299 319.013 383.27 319.585 384.466L317.739 385.662C317.462 385.073 317.124 384.579 316.725 384.18C316.344 383.781 315.919 383.461 315.451 383.218C315.001 382.975 314.533 382.802 314.047 382.698C313.562 382.594 313.085 382.542 312.617 382.542C311.595 382.542 310.685 382.759 309.887 383.192C309.107 383.608 308.449 384.163 307.911 384.856C307.374 385.532 306.967 386.303 306.689 387.17C306.429 388.019 306.299 388.877 306.299 389.744C306.299 390.715 306.455 391.642 306.767 392.526C307.097 393.393 307.547 394.164 308.119 394.84C308.691 395.516 309.367 396.053 310.147 396.452C310.927 396.851 311.777 397.05 312.695 397.05C313.181 397.05 313.675 396.989 314.177 396.868C314.697 396.747 315.191 396.556 315.659 396.296C316.127 396.019 316.561 395.681 316.959 395.282C317.375 394.866 317.713 394.372 317.973 393.8L319.923 394.866C319.629 395.559 319.213 396.175 318.675 396.712C318.155 397.232 317.557 397.674 316.881 398.038C316.223 398.402 315.521 398.679 314.775 398.87C314.03 399.061 313.302 399.156 312.591 399.156C311.326 399.156 310.165 398.879 309.107 398.324C308.05 397.769 307.131 397.05 306.351 396.166C305.589 395.265 304.991 394.251 304.557 393.124C304.141 391.98 303.933 390.819 303.933 389.64ZM331.484 397.024C332.559 397.024 333.451 396.816 334.162 396.4C334.873 395.984 335.436 395.447 335.852 394.788C336.285 394.112 336.589 393.349 336.762 392.5C336.935 391.633 337.022 390.758 337.022 389.874V380.54H339.362V389.874C339.362 391.122 339.215 392.309 338.92 393.436C338.643 394.545 338.192 395.525 337.568 396.374C336.944 397.223 336.129 397.899 335.124 398.402C334.136 398.887 332.931 399.13 331.51 399.13C330.037 399.13 328.797 398.87 327.792 398.35C326.787 397.83 325.972 397.145 325.348 396.296C324.741 395.429 324.299 394.441 324.022 393.332C323.762 392.205 323.632 391.053 323.632 389.874V380.54H325.972V389.874C325.972 390.793 326.059 391.685 326.232 392.552C326.423 393.401 326.726 394.155 327.142 394.814C327.575 395.473 328.139 396.01 328.832 396.426C329.543 396.825 330.427 397.024 331.484 397.024ZM344.559 399V380.54H346.899V396.92H357.195V399H344.559ZM371.251 382.62H364.881V399H362.541V382.62H356.171V380.54H371.251V382.62ZM382.541 397.024C383.616 397.024 384.509 396.816 385.219 396.4C385.93 395.984 386.493 395.447 386.909 394.788C387.343 394.112 387.646 393.349 387.819 392.5C387.993 391.633 388.079 390.758 388.079 389.874V380.54H390.419V389.874C390.419 391.122 390.272 392.309 389.977 393.436C389.7 394.545 389.249 395.525 388.625 396.374C388.001 397.223 387.187 397.899 386.181 398.402C385.193 398.887 383.989 399.13 382.567 399.13C381.094 399.13 379.855 398.87 378.849 398.35C377.844 397.83 377.029 397.145 376.405 396.296C375.799 395.429 375.357 394.441 375.079 393.332C374.819 392.205 374.689 391.053 374.689 389.874V380.54H377.029V389.874C377.029 390.793 377.116 391.685 377.289 392.552C377.48 393.401 377.783 394.155 378.199 394.814C378.633 395.473 379.196 396.01 379.889 396.426C380.6 396.825 381.484 397.024 382.541 397.024ZM395.616 399V380.54H403.52C404.335 380.54 405.08 380.713 405.756 381.06C406.45 381.389 407.039 381.84 407.524 382.412C408.027 382.967 408.417 383.599 408.694 384.31C408.972 385.003 409.11 385.714 409.11 386.442C409.11 387.083 409.015 387.707 408.824 388.314C408.651 388.903 408.391 389.441 408.044 389.926C407.715 390.411 407.308 390.827 406.822 391.174C406.354 391.521 405.826 391.772 405.236 391.928L409.708 399H407.056L402.844 392.37H397.956V399H395.616ZM397.956 390.29H403.546C404.032 390.29 404.465 390.186 404.846 389.978C405.245 389.77 405.583 389.493 405.86 389.146C406.138 388.782 406.354 388.366 406.51 387.898C406.666 387.43 406.744 386.945 406.744 386.442C406.744 385.922 406.649 385.437 406.458 384.986C406.285 384.518 406.042 384.111 405.73 383.764C405.436 383.4 405.08 383.123 404.664 382.932C404.266 382.724 403.841 382.62 403.39 382.62H397.956V390.29ZM426.276 396.92V399H413.744V380.54H426.042V382.62H416.084V388.6H424.742V390.55H416.084V396.92H426.276ZM430.24 401.106L430.76 398.792H429.98V396.088H432.138V398.792L431.358 401.106H430.24ZM443.471 389.64C443.471 388.531 443.662 387.43 444.043 386.338C444.442 385.229 445.014 384.241 445.759 383.374C446.522 382.49 447.449 381.779 448.541 381.242C449.633 380.705 450.872 380.436 452.259 380.436C453.906 380.436 455.318 380.809 456.497 381.554C457.676 382.299 458.551 383.27 459.123 384.466L457.277 385.662C457 385.073 456.662 384.579 456.263 384.18C455.882 383.781 455.457 383.461 454.989 383.218C454.538 382.975 454.07 382.802 453.585 382.698C453.1 382.594 452.623 382.542 452.155 382.542C451.132 382.542 450.222 382.759 449.425 383.192C448.645 383.608 447.986 384.163 447.449 384.856C446.912 385.532 446.504 386.303 446.227 387.17C445.967 388.019 445.837 388.877 445.837 389.744C445.837 390.715 445.993 391.642 446.305 392.526C446.634 393.393 447.085 394.164 447.657 394.84C448.229 395.516 448.905 396.053 449.685 396.452C450.465 396.851 451.314 397.05 452.233 397.05C452.718 397.05 453.212 396.989 453.715 396.868C454.235 396.747 454.729 396.556 455.197 396.296C455.665 396.019 456.098 395.681 456.497 395.282C456.913 394.866 457.251 394.372 457.511 393.8L459.461 394.866C459.166 395.559 458.75 396.175 458.213 396.712C457.693 397.232 457.095 397.674 456.419 398.038C455.76 398.402 455.058 398.679 454.313 398.87C453.568 399.061 452.84 399.156 452.129 399.156C450.864 399.156 449.702 398.879 448.645 398.324C447.588 397.769 446.669 397.05 445.889 396.166C445.126 395.265 444.528 394.251 444.095 393.124C443.679 391.98 443.471 390.819 443.471 389.64ZM470.714 399.13C469.414 399.13 468.227 398.87 467.152 398.35C466.095 397.813 465.185 397.111 464.422 396.244C463.66 395.36 463.07 394.355 462.654 393.228C462.238 392.101 462.03 390.949 462.03 389.77C462.03 388.539 462.247 387.361 462.68 386.234C463.131 385.107 463.746 384.111 464.526 383.244C465.306 382.377 466.225 381.693 467.282 381.19C468.357 380.67 469.518 380.41 470.766 380.41C472.066 380.41 473.245 380.687 474.302 381.242C475.36 381.779 476.27 382.49 477.032 383.374C477.795 384.258 478.384 385.263 478.8 386.39C479.216 387.499 479.424 388.635 479.424 389.796C479.424 391.027 479.199 392.205 478.748 393.332C478.315 394.459 477.708 395.455 476.928 396.322C476.166 397.171 475.247 397.856 474.172 398.376C473.115 398.879 471.962 399.13 470.714 399.13ZM464.396 389.77C464.396 390.706 464.544 391.616 464.838 392.5C465.15 393.367 465.584 394.138 466.138 394.814C466.693 395.49 467.36 396.027 468.14 396.426C468.92 396.825 469.787 397.024 470.74 397.024C471.728 397.024 472.612 396.816 473.392 396.4C474.172 395.967 474.831 395.412 475.368 394.736C475.923 394.043 476.339 393.263 476.616 392.396C476.911 391.529 477.058 390.654 477.058 389.77C477.058 388.834 476.902 387.933 476.59 387.066C476.296 386.182 475.862 385.411 475.29 384.752C474.736 384.076 474.068 383.539 473.288 383.14C472.526 382.741 471.676 382.542 470.74 382.542C469.752 382.542 468.868 382.75 468.088 383.166C467.308 383.582 466.641 384.128 466.086 384.804C465.549 385.48 465.133 386.251 464.838 387.118C464.544 387.985 464.396 388.869 464.396 389.77ZM499.68 399V384.726L493.544 395.672H492.218L486.056 384.726V399H483.716V380.54H486.186L492.868 392.526L499.576 380.54H502.02V399H499.68ZM523.444 399V384.726L517.308 395.672H515.982L509.82 384.726V399H507.48V380.54H509.95L516.632 392.526L523.34 380.54H525.784V399H523.444ZM538.837 397.024C539.912 397.024 540.804 396.816 541.515 396.4C542.226 395.984 542.789 395.447 543.205 394.788C543.638 394.112 543.942 393.349 544.115 392.5C544.288 391.633 544.375 390.758 544.375 389.874V380.54H546.715V389.874C546.715 391.122 546.568 392.309 546.273 393.436C545.996 394.545 545.545 395.525 544.921 396.374C544.297 397.223 543.482 397.899 542.477 398.402C541.489 398.887 540.284 399.13 538.863 399.13C537.39 399.13 536.15 398.87 535.145 398.35C534.14 397.83 533.325 397.145 532.701 396.296C532.094 395.429 531.652 394.441 531.375 393.332C531.115 392.205 530.985 391.053 530.985 389.874V380.54H533.325V389.874C533.325 390.793 533.412 391.685 533.585 392.552C533.776 393.401 534.079 394.155 534.495 394.814C534.928 395.473 535.492 396.01 536.185 396.426C536.896 396.825 537.78 397.024 538.837 397.024ZM554.252 384.908V399H551.912V380.54H553.732L565.172 394.918V380.566H567.512V399H565.536L554.252 384.908ZM572.96 399V380.54H575.3V399H572.96ZM594.066 382.62H587.696V399H585.356V382.62H578.986V380.54H594.066V382.62ZM598.466 380.54L604.056 390.16L609.698 380.54H612.246L605.226 392.266V399H602.886V392.214L595.892 380.54H598.466ZM613.112 399V396.088H615.036V399H613.112Z" fill="black"/>
<path d="M217 405L614 408L575 416L213.5 410L217 405Z" fill="#FFC700"/>
<rect x="34.5" y="0.5" width="603" height="603" stroke="white"/>
<defs>
<linearGradient id="paint0_linear" x1="179.237" y1="247.465" x2="145.75" y2="369.864" gradientUnits="userSpaceOnUse">
<stop stop-color="#151371"/>
<stop offset="0.0001" stop-color="#151371"/>
<stop offset="1" stop-color="#FF00B8"/>
</linearGradient>
<linearGradient id="paint1_linear" x1="153.763" y1="361" x2="187.25" y2="238.601" gradientUnits="userSpaceOnUse">
<stop stop-color="#151371"/>
<stop offset="0.0001" stop-color="#151371"/>
<stop offset="1" stop-color="#FF00B8"/>
</linearGradient>
<linearGradient id="paint2_linear" x1="221.194" y1="303.821" x2="262.437" y2="303.821" gradientUnits="userSpaceOnUse">
<stop stop-color="#34107A"/>
<stop offset="1" stop-color="#D503AB"/>
</linearGradient>
</defs>
</svg>
