<svg width="1061" height="516" viewBox="0 0 1061 516" fill="none" xmlns="http://www.w3.org/2000/svg">
<path d="M255.622 425.04C255.622 423.504 255.886 421.98 256.414 420.468C256.966 418.932 257.758 417.564 258.79 416.364C259.846 415.14 261.13 414.156 262.642 413.412C264.154 412.668 265.87 412.296 267.79 412.296C270.07 412.296 272.026 412.812 273.658 413.844C275.29 414.876 276.502 416.22 277.294 417.876L274.738 419.532C274.354 418.716 273.886 418.032 273.334 417.48C272.806 416.928 272.218 416.484 271.57 416.148C270.946 415.812 270.298 415.572 269.626 415.428C268.954 415.284 268.294 415.212 267.646 415.212C266.23 415.212 264.97 415.512 263.866 416.112C262.786 416.688 261.874 417.456 261.13 418.416C260.386 419.352 259.822 420.42 259.438 421.62C259.078 422.796 258.898 423.984 258.898 425.184C258.898 426.528 259.114 427.812 259.546 429.036C260.002 430.236 260.626 431.304 261.418 432.24C262.21 433.176 263.146 433.92 264.226 434.472C265.306 435.024 266.482 435.3 267.754 435.3C268.426 435.3 269.11 435.216 269.806 435.048C270.526 434.88 271.21 434.616 271.858 434.256C272.506 433.872 273.106 433.404 273.658 432.852C274.234 432.276 274.702 431.592 275.062 430.8L277.762 432.276C277.354 433.236 276.778 434.088 276.034 434.832C275.314 435.552 274.486 436.164 273.55 436.668C272.638 437.172 271.666 437.556 270.634 437.82C269.602 438.084 268.594 438.216 267.61 438.216C265.858 438.216 264.25 437.832 262.786 437.064C261.322 436.296 260.05 435.3 258.97 434.076C257.914 432.828 257.086 431.424 256.486 429.864C255.91 428.28 255.622 426.672 255.622 425.04ZM293.344 438.18C291.544 438.18 289.9 437.82 288.412 437.1C286.948 436.356 285.688 435.384 284.632 434.184C283.576 432.96 282.76 431.568 282.184 430.008C281.608 428.448 281.32 426.852 281.32 425.22C281.32 423.516 281.62 421.884 282.22 420.324C282.844 418.764 283.696 417.384 284.776 416.184C285.856 414.984 287.128 414.036 288.592 413.34C290.08 412.62 291.688 412.26 293.416 412.26C295.216 412.26 296.848 412.644 298.312 413.412C299.776 414.156 301.036 415.14 302.092 416.364C303.148 417.588 303.964 418.98 304.54 420.54C305.116 422.076 305.404 423.648 305.404 425.256C305.404 426.96 305.092 428.592 304.468 430.152C303.868 431.712 303.028 433.092 301.948 434.292C300.892 435.468 299.62 436.416 298.132 437.136C296.668 437.832 295.072 438.18 293.344 438.18ZM284.596 425.22C284.596 426.516 284.8 427.776 285.208 429C285.64 430.2 286.24 431.268 287.008 432.204C287.776 433.14 288.7 433.884 289.78 434.436C290.86 434.988 292.06 435.264 293.38 435.264C294.748 435.264 295.972 434.976 297.052 434.4C298.132 433.8 299.044 433.032 299.788 432.096C300.556 431.136 301.132 430.056 301.516 428.856C301.924 427.656 302.128 426.444 302.128 425.22C302.128 423.924 301.912 422.676 301.48 421.476C301.072 420.252 300.472 419.184 299.68 418.272C298.912 417.336 297.988 416.592 296.908 416.04C295.852 415.488 294.676 415.212 293.38 415.212C292.012 415.212 290.788 415.5 289.708 416.076C288.628 416.652 287.704 417.408 286.936 418.344C286.192 419.28 285.616 420.348 285.208 421.548C284.8 422.748 284.596 423.972 284.596 425.22ZM311.346 438V412.44H320.202C322.242 412.44 324.03 412.776 325.566 413.448C327.126 414.12 328.422 415.032 329.454 416.184C330.486 417.336 331.254 418.692 331.758 420.252C332.286 421.788 332.55 423.432 332.55 425.184C332.55 427.128 332.262 428.892 331.686 430.476C331.11 432.036 330.282 433.38 329.202 434.508C328.122 435.612 326.814 436.476 325.278 437.1C323.766 437.7 322.074 438 320.202 438H311.346ZM329.274 425.184C329.274 423.744 329.07 422.424 328.662 421.224C328.278 420 327.69 418.956 326.898 418.092C326.13 417.228 325.182 416.556 324.054 416.076C322.926 415.572 321.642 415.32 320.202 415.32H314.586V435.12H320.202C321.666 435.12 322.962 434.868 324.09 434.364C325.242 433.86 326.19 433.164 326.934 432.276C327.702 431.388 328.278 430.344 328.662 429.144C329.07 427.92 329.274 426.6 329.274 425.184ZM355.907 435.12V438H338.555V412.44H355.583V415.32H341.795V423.6H353.783V426.3H341.795V435.12H355.907ZM361.396 440.916L362.116 437.712H361.036V433.968H364.024V437.712L362.944 440.916H361.396ZM379.715 425.04C379.715 423.504 379.979 421.98 380.507 420.468C381.059 418.932 381.851 417.564 382.883 416.364C383.939 415.14 385.223 414.156 386.735 413.412C388.247 412.668 389.963 412.296 391.883 412.296C394.163 412.296 396.119 412.812 397.751 413.844C399.383 414.876 400.595 416.22 401.387 417.876L398.831 419.532C398.447 418.716 397.979 418.032 397.427 417.48C396.899 416.928 396.311 416.484 395.663 416.148C395.039 415.812 394.391 415.572 393.719 415.428C393.047 415.284 392.387 415.212 391.739 415.212C390.323 415.212 389.063 415.512 387.959 416.112C386.879 416.688 385.967 417.456 385.223 418.416C384.479 419.352 383.915 420.42 383.531 421.62C383.171 422.796 382.991 423.984 382.991 425.184C382.991 426.528 383.207 427.812 383.639 429.036C384.095 430.236 384.719 431.304 385.511 432.24C386.303 433.176 387.239 433.92 388.319 434.472C389.399 435.024 390.575 435.3 391.847 435.3C392.519 435.3 393.203 435.216 393.899 435.048C394.619 434.88 395.303 434.616 395.951 434.256C396.599 433.872 397.199 433.404 397.751 432.852C398.327 432.276 398.795 431.592 399.155 430.8L401.855 432.276C401.447 433.236 400.871 434.088 400.127 434.832C399.407 435.552 398.579 436.164 397.643 436.668C396.731 437.172 395.759 437.556 394.727 437.82C393.695 438.084 392.687 438.216 391.703 438.216C389.951 438.216 388.343 437.832 386.879 437.064C385.415 436.296 384.143 435.3 383.063 434.076C382.007 432.828 381.179 431.424 380.579 429.864C380.003 428.28 379.715 426.672 379.715 425.04ZM417.862 435.264C419.35 435.264 420.586 434.976 421.57 434.4C422.554 433.824 423.334 433.08 423.91 432.168C424.51 431.232 424.93 430.176 425.17 429C425.41 427.8 425.53 426.588 425.53 425.364V412.44H428.77V425.364C428.77 427.092 428.566 428.736 428.158 430.296C427.774 431.832 427.15 433.188 426.286 434.364C425.422 435.54 424.294 436.476 422.902 437.172C421.534 437.844 419.866 438.18 417.898 438.18C415.858 438.18 414.142 437.82 412.75 437.1C411.358 436.38 410.23 435.432 409.366 434.256C408.526 433.056 407.914 431.688 407.53 430.152C407.17 428.592 406.99 426.996 406.99 425.364V412.44H410.23V425.364C410.23 426.636 410.35 427.872 410.59 429.072C410.854 430.248 411.274 431.292 411.85 432.204C412.45 433.116 413.23 433.86 414.19 434.436C415.174 434.988 416.398 435.264 417.862 435.264ZM435.966 438V412.44H439.206V435.12H453.462V438H435.966ZM472.924 415.32H464.104V438H460.864V415.32H452.044V412.44H472.924V415.32ZM488.557 435.264C490.045 435.264 491.281 434.976 492.265 434.4C493.249 433.824 494.029 433.08 494.605 432.168C495.205 431.232 495.625 430.176 495.865 429C496.105 427.8 496.225 426.588 496.225 425.364V412.44H499.465V425.364C499.465 427.092 499.261 428.736 498.853 430.296C498.469 431.832 497.845 433.188 496.981 434.364C496.117 435.54 494.989 436.476 493.597 437.172C492.229 437.844 490.561 438.18 488.593 438.18C486.553 438.18 484.837 437.82 483.445 437.1C482.053 436.38 480.925 435.432 480.061 434.256C479.221 433.056 478.609 431.688 478.225 430.152C477.865 428.592 477.685 426.996 477.685 425.364V412.44H480.925V425.364C480.925 426.636 481.045 427.872 481.285 429.072C481.549 430.248 481.969 431.292 482.545 432.204C483.145 433.116 483.925 433.86 484.885 434.436C485.869 434.988 487.093 435.264 488.557 435.264ZM506.661 438V412.44H517.605C518.733 412.44 519.765 412.68 520.701 413.16C521.661 413.616 522.477 414.24 523.149 415.032C523.845 415.8 524.385 416.676 524.769 417.66C525.153 418.62 525.345 419.604 525.345 420.612C525.345 421.5 525.213 422.364 524.949 423.204C524.709 424.02 524.349 424.764 523.869 425.436C523.413 426.108 522.849 426.684 522.177 427.164C521.529 427.644 520.797 427.992 519.981 428.208L526.173 438H522.501L516.669 428.82H509.901V438H506.661ZM509.901 425.94H517.641C518.313 425.94 518.913 425.796 519.441 425.508C519.993 425.22 520.461 424.836 520.845 424.356C521.229 423.852 521.529 423.276 521.745 422.628C521.961 421.98 522.069 421.308 522.069 420.612C522.069 419.892 521.937 419.22 521.673 418.596C521.433 417.948 521.097 417.384 520.665 416.904C520.257 416.4 519.765 416.016 519.189 415.752C518.637 415.464 518.049 415.32 517.425 415.32H509.901V425.94ZM549.113 435.12V438H531.761V412.44H548.789V415.32H535.001V423.6H546.989V426.3H535.001V435.12H549.113ZM554.602 440.916L555.322 437.712H554.242V433.968H557.23V437.712L556.15 440.916H554.602ZM572.921 425.04C572.921 423.504 573.185 421.98 573.713 420.468C574.265 418.932 575.057 417.564 576.089 416.364C577.145 415.14 578.429 414.156 579.941 413.412C581.453 412.668 583.169 412.296 585.089 412.296C587.369 412.296 589.325 412.812 590.957 413.844C592.589 414.876 593.801 416.22 594.593 417.876L592.037 419.532C591.653 418.716 591.185 418.032 590.633 417.48C590.105 416.928 589.517 416.484 588.869 416.148C588.245 415.812 587.597 415.572 586.925 415.428C586.253 415.284 585.593 415.212 584.945 415.212C583.529 415.212 582.269 415.512 581.165 416.112C580.085 416.688 579.173 417.456 578.429 418.416C577.685 419.352 577.121 420.42 576.737 421.62C576.377 422.796 576.197 423.984 576.197 425.184C576.197 426.528 576.413 427.812 576.845 429.036C577.301 430.236 577.925 431.304 578.717 432.24C579.509 433.176 580.445 433.92 581.525 434.472C582.605 435.024 583.781 435.3 585.053 435.3C585.725 435.3 586.409 435.216 587.105 435.048C587.825 434.88 588.509 434.616 589.157 434.256C589.805 433.872 590.405 433.404 590.957 432.852C591.533 432.276 592.001 431.592 592.361 430.8L595.061 432.276C594.653 433.236 594.077 434.088 593.333 434.832C592.613 435.552 591.785 436.164 590.849 436.668C589.937 437.172 588.965 437.556 587.933 437.82C586.901 438.084 585.893 438.216 584.909 438.216C583.157 438.216 581.549 437.832 580.085 437.064C578.621 436.296 577.349 435.3 576.269 434.076C575.213 432.828 574.385 431.424 573.785 429.864C573.209 428.28 572.921 426.672 572.921 425.04ZM610.643 438.18C608.843 438.18 607.199 437.82 605.711 437.1C604.247 436.356 602.987 435.384 601.931 434.184C600.875 432.96 600.059 431.568 599.483 430.008C598.907 428.448 598.619 426.852 598.619 425.22C598.619 423.516 598.919 421.884 599.519 420.324C600.143 418.764 600.995 417.384 602.075 416.184C603.155 414.984 604.427 414.036 605.891 413.34C607.379 412.62 608.987 412.26 610.715 412.26C612.515 412.26 614.147 412.644 615.611 413.412C617.075 414.156 618.335 415.14 619.391 416.364C620.447 417.588 621.263 418.98 621.839 420.54C622.415 422.076 622.703 423.648 622.703 425.256C622.703 426.96 622.391 428.592 621.767 430.152C621.167 431.712 620.327 433.092 619.247 434.292C618.191 435.468 616.919 436.416 615.431 437.136C613.967 437.832 612.371 438.18 610.643 438.18ZM601.895 425.22C601.895 426.516 602.099 427.776 602.507 429C602.939 430.2 603.539 431.268 604.307 432.204C605.075 433.14 605.999 433.884 607.079 434.436C608.159 434.988 609.359 435.264 610.679 435.264C612.047 435.264 613.271 434.976 614.351 434.4C615.431 433.8 616.343 433.032 617.087 432.096C617.855 431.136 618.431 430.056 618.815 428.856C619.223 427.656 619.427 426.444 619.427 425.22C619.427 423.924 619.211 422.676 618.779 421.476C618.371 420.252 617.771 419.184 616.979 418.272C616.211 417.336 615.287 416.592 614.207 416.04C613.151 415.488 611.975 415.212 610.679 415.212C609.311 415.212 608.087 415.5 607.007 416.076C605.927 416.652 605.003 417.408 604.235 418.344C603.491 419.28 602.915 420.348 602.507 421.548C602.099 422.748 601.895 423.972 601.895 425.22ZM650.749 438V418.236L642.253 433.392H640.417L631.885 418.236V438H628.645V412.44H632.065L641.317 429.036L650.605 412.44H653.989V438H650.749ZM683.654 438V418.236L675.158 433.392H673.322L664.79 418.236V438H661.55V412.44H664.97L674.222 429.036L683.51 412.44H686.894V438H683.654ZM704.966 435.264C706.454 435.264 707.69 434.976 708.674 434.4C709.658 433.824 710.438 433.08 711.014 432.168C711.614 431.232 712.034 430.176 712.274 429C712.514 427.8 712.634 426.588 712.634 425.364V412.44H715.874V425.364C715.874 427.092 715.67 428.736 715.262 430.296C714.878 431.832 714.254 433.188 713.39 434.364C712.526 435.54 711.398 436.476 710.006 437.172C708.638 437.844 706.97 438.18 705.002 438.18C702.962 438.18 701.246 437.82 699.854 437.1C698.462 436.38 697.334 435.432 696.47 434.256C695.63 433.056 695.018 431.688 694.634 430.152C694.274 428.592 694.094 426.996 694.094 425.364V412.44H697.334V425.364C697.334 426.636 697.454 427.872 697.694 429.072C697.958 430.248 698.378 431.292 698.954 432.204C699.554 433.116 700.334 433.86 701.294 434.436C702.278 434.988 703.502 435.264 704.966 435.264ZM726.31 418.488V438H723.07V412.44H725.59L741.43 432.348V412.476H744.67V438H741.934L726.31 418.488ZM752.213 438V412.44H755.453V438H752.213ZM781.437 415.32H772.617V438H769.377V415.32H760.557V412.44H781.437V415.32ZM787.53 412.44L795.27 425.76L803.082 412.44H806.61L796.89 428.676V438H793.65V428.604L783.966 412.44H787.53ZM807.809 438V433.968H810.473V438H807.809Z" fill="black"/>
<path d="M485.575 473.38H495.277L495.079 474.392H486.477L485.179 480.53H492.681L492.461 481.498H484.981L483.595 487.988H492.373L492.153 489H482.253L485.575 473.38ZM500.387 489.132C498.07 489.132 496.266 488.355 494.975 486.8L495.767 485.898C496.236 486.587 496.874 487.137 497.681 487.548C498.502 487.944 499.485 488.142 500.629 488.142C502.11 488.142 503.284 487.834 504.149 487.218C505.014 486.602 505.447 485.715 505.447 484.556C505.447 483.749 505.102 483.141 504.413 482.73C503.738 482.305 502.756 481.945 501.465 481.652C500.805 481.505 500.218 481.344 499.705 481.168C499.206 480.992 498.781 480.787 498.429 480.552C498.077 480.303 497.806 480.009 497.615 479.672C497.439 479.32 497.351 478.902 497.351 478.418C497.351 477.611 497.512 476.893 497.835 476.262C498.158 475.617 498.598 475.074 499.155 474.634C499.712 474.194 500.372 473.857 501.135 473.622C501.912 473.387 502.748 473.27 503.643 473.27C504.611 473.27 505.44 473.424 506.129 473.732C506.833 474.025 507.42 474.48 507.889 475.096L507.119 475.976C506.415 474.847 505.183 474.282 503.423 474.282C502.558 474.282 501.817 474.385 501.201 474.59C500.6 474.781 500.101 475.045 499.705 475.382C499.309 475.719 499.016 476.123 498.825 476.592C498.649 477.047 498.561 477.545 498.561 478.088C498.561 478.469 498.634 478.792 498.781 479.056C498.942 479.32 499.177 479.547 499.485 479.738C499.793 479.929 500.174 480.097 500.629 480.244C501.098 480.391 501.641 480.537 502.257 480.684C502.917 480.845 503.518 481.021 504.061 481.212C504.618 481.388 505.088 481.615 505.469 481.894C505.85 482.158 506.144 482.481 506.349 482.862C506.569 483.229 506.679 483.683 506.679 484.226C506.679 485.018 506.518 485.722 506.195 486.338C505.887 486.954 505.447 487.467 504.875 487.878C504.318 488.289 503.65 488.604 502.873 488.824C502.11 489.029 501.282 489.132 500.387 489.132ZM515.949 474.392H510.537L510.735 473.38H522.703L522.483 474.392H517.071L513.947 489H512.847L515.949 474.392ZM520.717 489L521.135 487.13H522.081L521.685 489H520.717ZM531.513 489C531.601 488.589 531.733 488.135 531.909 487.636C532.085 487.123 532.349 486.609 532.701 486.096C533.053 485.568 533.508 485.055 534.065 484.556C534.637 484.057 535.356 483.617 536.221 483.236C536.94 482.913 537.585 482.62 538.157 482.356C538.729 482.077 539.213 481.791 539.609 481.498C540.005 481.205 540.306 480.889 540.511 480.552C540.731 480.2 540.841 479.789 540.841 479.32C540.841 479.056 540.79 478.799 540.687 478.55C540.599 478.301 540.452 478.081 540.247 477.89C540.042 477.685 539.778 477.523 539.455 477.406C539.147 477.289 538.78 477.23 538.355 477.23C537.886 477.23 537.446 477.303 537.035 477.45C536.624 477.597 536.25 477.773 535.913 477.978C535.59 478.183 535.312 478.389 535.077 478.594C534.842 478.799 534.666 478.961 534.549 479.078L533.977 478.308C534.036 478.249 534.197 478.11 534.461 477.89C534.74 477.655 535.084 477.421 535.495 477.186C535.92 476.937 536.404 476.717 536.947 476.526C537.504 476.321 538.098 476.218 538.729 476.218C539.272 476.218 539.748 476.299 540.159 476.46C540.584 476.607 540.936 476.812 541.215 477.076C541.494 477.34 541.699 477.648 541.831 478C541.978 478.337 542.051 478.689 542.051 479.056C542.051 479.657 541.934 480.185 541.699 480.64C541.464 481.08 541.134 481.476 540.709 481.828C540.298 482.18 539.8 482.503 539.213 482.796C538.626 483.089 537.988 483.39 537.299 483.698C536.712 483.947 536.177 484.255 535.693 484.622C535.209 484.989 534.784 485.377 534.417 485.788C534.05 486.184 533.742 486.58 533.493 486.976C533.258 487.357 533.097 487.695 533.009 487.988H540.423L540.203 489H531.513ZM548.567 489.22C547.951 489.22 547.393 489.095 546.895 488.846C546.411 488.597 545.993 488.245 545.641 487.79C545.289 487.335 545.017 486.8 544.827 486.184C544.651 485.568 544.563 484.886 544.563 484.138C544.563 482.994 544.746 481.923 545.113 480.926C545.494 479.914 546 479.034 546.631 478.286C547.261 477.538 547.987 476.951 548.809 476.526C549.645 476.086 550.51 475.866 551.405 475.866C552.021 475.866 552.571 475.991 553.055 476.24C553.553 476.489 553.979 476.841 554.331 477.296C554.683 477.751 554.947 478.286 555.123 478.902C555.313 479.518 555.409 480.2 555.409 480.948C555.409 482.092 555.218 483.17 554.837 484.182C554.47 485.179 553.971 486.052 553.341 486.8C552.71 487.548 551.977 488.142 551.141 488.582C550.319 489.007 549.461 489.22 548.567 489.22ZM548.787 488.186C549.52 488.186 550.217 488.003 550.877 487.636C551.551 487.269 552.138 486.763 552.637 486.118C553.15 485.473 553.553 484.717 553.847 483.852C554.14 482.987 554.287 482.055 554.287 481.058C554.287 480.442 554.213 479.877 554.067 479.364C553.935 478.851 553.729 478.418 553.451 478.066C553.187 477.699 552.864 477.413 552.483 477.208C552.101 477.003 551.669 476.9 551.185 476.9C550.437 476.9 549.733 477.091 549.073 477.472C548.413 477.839 547.826 478.345 547.313 478.99C546.814 479.635 546.418 480.398 546.125 481.278C545.831 482.143 545.685 483.067 545.685 484.05C545.685 485.282 545.956 486.279 546.499 487.042C547.041 487.805 547.804 488.186 548.787 488.186ZM557.649 487.988H560.619L562.775 477.824C562.614 478 562.379 478.191 562.071 478.396C561.763 478.601 561.426 478.799 561.059 478.99C560.692 479.166 560.318 479.32 559.937 479.452C559.57 479.569 559.248 479.628 558.969 479.628L559.189 478.528C559.541 478.528 559.93 478.433 560.355 478.242C560.795 478.037 561.206 477.809 561.587 477.56C561.983 477.311 562.32 477.076 562.599 476.856C562.878 476.621 563.032 476.482 563.061 476.438H564.183L561.741 487.988H564.403L564.183 489H557.429L557.649 487.988ZM570.622 492.41C569.625 492.41 568.796 492.139 568.136 491.596C567.476 491.068 567.058 490.327 566.882 489.374L567.762 488.78C567.879 489.572 568.209 490.21 568.752 490.694C569.309 491.178 570.006 491.42 570.842 491.42C571.546 491.42 572.213 491.244 572.844 490.892C573.475 490.54 574.054 490.034 574.582 489.374C575.11 488.729 575.572 487.951 575.968 487.042C576.364 486.118 576.672 485.091 576.892 483.962C576.379 484.945 575.653 485.722 574.714 486.294C573.775 486.851 572.778 487.13 571.722 487.13C571.106 487.13 570.549 487.02 570.05 486.8C569.551 486.565 569.126 486.257 568.774 485.876C568.422 485.48 568.143 485.018 567.938 484.49C567.747 483.962 567.652 483.39 567.652 482.774C567.652 481.923 567.828 481.117 568.18 480.354C568.547 479.591 569.031 478.924 569.632 478.352C570.233 477.765 570.923 477.303 571.7 476.966C572.477 476.629 573.284 476.46 574.12 476.46C575.396 476.46 576.408 476.885 577.156 477.736C577.904 478.587 578.278 479.76 578.278 481.256C578.278 482.708 578.087 484.109 577.706 485.458C577.339 486.793 576.819 487.973 576.144 489C575.484 490.041 574.685 490.87 573.746 491.486C572.807 492.102 571.766 492.41 570.622 492.41ZM572.052 486.184C572.697 486.184 573.328 486.045 573.944 485.766C574.56 485.487 575.11 485.113 575.594 484.644C576.078 484.16 576.467 483.61 576.76 482.994C577.053 482.378 577.2 481.733 577.2 481.058C577.2 480.559 577.119 480.09 576.958 479.65C576.797 479.21 576.569 478.829 576.276 478.506C575.983 478.183 575.631 477.927 575.22 477.736C574.809 477.545 574.362 477.45 573.878 477.45C573.233 477.45 572.602 477.589 571.986 477.868C571.37 478.147 570.82 478.521 570.336 478.99C569.852 479.459 569.463 480.002 569.17 480.618C568.877 481.234 568.73 481.887 568.73 482.576C568.73 483.075 568.811 483.544 568.972 483.984C569.133 484.424 569.361 484.805 569.654 485.128C569.947 485.451 570.299 485.707 570.71 485.898C571.121 486.089 571.568 486.184 572.052 486.184Z" fill="black"/>
<rect x="218" y="451" width="626" height="8" fill="#FFC700"/>
<path d="M587.191 146V103.587L569.678 135.708H564.532L546.936 103.587V146H537.64V87.07H547.6L567.105 123.092L586.61 87.07H596.57V146H587.191ZM607.453 146V102.591H616.583V146H607.453ZM607.453 95.453V85.41H616.583V95.453H607.453ZM665.236 146H656.106V121.681C656.106 117.586 655.442 114.626 654.114 112.8C652.842 110.919 650.933 109.978 648.387 109.978C647.059 109.978 645.731 110.227 644.403 110.725C643.075 111.223 641.83 111.942 640.668 112.883C639.506 113.768 638.455 114.847 637.514 116.12C636.629 117.337 635.937 118.693 635.439 120.187V146H626.309V102.591H634.609V111.306C636.269 108.373 638.676 106.077 641.83 104.417C644.984 102.702 648.47 101.844 652.288 101.844C654.889 101.844 657.019 102.314 658.679 103.255C660.339 104.196 661.64 105.496 662.58 107.156C663.576 108.761 664.268 110.642 664.655 112.8C665.043 114.903 665.236 117.144 665.236 119.523V146ZM694.094 146.83C690.663 146.83 687.564 146.221 684.798 145.004C682.086 143.787 679.762 142.154 677.826 140.107C675.889 138.06 674.395 135.68 673.344 132.969C672.292 130.202 671.767 127.325 671.767 124.337C671.767 121.349 672.292 118.499 673.344 115.788C674.395 113.021 675.889 110.614 677.826 108.567C679.818 106.52 682.169 104.887 684.881 103.67C687.647 102.453 690.718 101.844 694.094 101.844C697.469 101.844 700.512 102.453 703.224 103.67C705.99 104.887 708.342 106.52 710.279 108.567C712.271 110.614 713.792 113.021 714.844 115.788C715.895 118.499 716.421 121.349 716.421 124.337C716.421 127.325 715.895 130.202 714.844 132.969C713.792 135.68 712.271 138.06 710.279 140.107C708.342 142.154 705.99 143.787 703.224 145.004C700.512 146.221 697.469 146.83 694.094 146.83ZM681.146 124.42C681.146 126.523 681.478 128.459 682.142 130.23C682.806 132.001 683.719 133.55 684.881 134.878C686.043 136.151 687.398 137.174 688.948 137.949C690.552 138.668 692.268 139.028 694.094 139.028C695.92 139.028 697.607 138.668 699.157 137.949C700.761 137.174 702.145 136.123 703.307 134.795C704.469 133.467 705.382 131.918 706.046 130.147C706.71 128.376 707.042 126.44 707.042 124.337C707.042 122.29 706.71 120.381 706.046 118.61C705.382 116.784 704.469 115.207 703.307 113.879C702.145 112.551 700.761 111.527 699.157 110.808C697.607 110.033 695.92 109.646 694.094 109.646C692.323 109.646 690.635 110.033 689.031 110.808C687.481 111.583 686.126 112.634 684.964 113.962C683.802 115.29 682.861 116.867 682.142 118.693C681.478 120.464 681.146 122.373 681.146 124.42ZM747.675 110.476C744.134 110.587 740.98 111.417 738.213 112.966C735.502 114.46 733.565 116.618 732.403 119.44V146H723.273V102.591H731.739V112.302C733.233 109.314 735.17 106.935 737.549 105.164C739.984 103.338 742.585 102.342 745.351 102.176C745.905 102.176 746.347 102.176 746.679 102.176C747.067 102.176 747.399 102.204 747.675 102.259V110.476ZM753.072 146V102.591H762.202V146H753.072ZM753.072 95.453V85.41H762.202V95.453H753.072ZM796.082 143.759C794.92 144.312 793.315 144.949 791.268 145.668C789.221 146.332 787.035 146.664 784.711 146.664C783.272 146.664 781.917 146.47 780.644 146.083C779.371 145.696 778.237 145.115 777.241 144.34C776.3 143.565 775.553 142.569 775 141.352C774.447 140.079 774.17 138.558 774.17 136.787V109.646H768.443V102.591H774.17V88.315H783.3V102.591H792.762V109.646H783.3V133.882C783.411 135.431 783.881 136.566 784.711 137.285C785.596 137.949 786.675 138.281 787.948 138.281C789.221 138.281 790.438 138.06 791.6 137.617C792.762 137.174 793.62 136.815 794.173 136.538L796.082 143.759ZM802.654 156.209C803.484 156.375 804.287 156.513 805.061 156.624C805.891 156.735 806.555 156.79 807.053 156.79C807.773 156.79 808.381 156.624 808.879 156.292C809.433 156.015 809.986 155.49 810.539 154.715C811.093 153.94 811.646 152.834 812.199 151.395C812.808 150.012 813.5 148.213 814.274 146L796.429 102.591H805.808L819.254 137.949L831.206 102.591H839.838L820.167 156.043C819.282 158.533 817.733 160.608 815.519 162.268C813.361 163.983 810.567 164.841 807.136 164.841C806.472 164.841 805.781 164.786 805.061 164.675C804.342 164.62 803.54 164.454 802.654 164.177V156.209ZM537.64 243V184.07H562.374C565.03 184.07 567.465 184.623 569.678 185.73C571.947 186.837 573.883 188.303 575.488 190.129C577.093 191.9 578.338 193.947 579.223 196.271C580.164 198.54 580.634 200.864 580.634 203.243C580.634 205.733 580.191 208.14 579.306 210.464C578.476 212.733 577.286 214.78 575.737 216.606C574.188 218.377 572.306 219.815 570.093 220.922C567.935 221.973 565.528 222.499 562.872 222.499H546.936V243H537.64ZM546.936 214.282H562.291C563.619 214.282 564.809 214.005 565.86 213.452C566.967 212.899 567.907 212.124 568.682 211.128C569.457 210.132 570.065 208.97 570.508 207.642C570.951 206.314 571.172 204.848 571.172 203.243C571.172 201.583 570.923 200.089 570.425 198.761C569.927 197.433 569.235 196.299 568.35 195.358C567.465 194.362 566.441 193.615 565.279 193.117C564.172 192.564 563.01 192.287 561.793 192.287H546.936V214.282ZM611.348 207.476C607.807 207.587 604.653 208.417 601.886 209.966C599.175 211.46 597.238 213.618 596.076 216.44V243H586.946V199.591H595.412V209.302C596.906 206.314 598.843 203.935 601.222 202.164C603.657 200.338 606.257 199.342 609.024 199.176C609.577 199.176 610.02 199.176 610.352 199.176C610.739 199.176 611.071 199.204 611.348 199.259V207.476ZM634.061 243.83C630.631 243.83 627.532 243.221 624.765 242.004C622.054 240.787 619.73 239.154 617.793 237.107C615.857 235.06 614.363 232.68 613.311 229.969C612.26 227.202 611.734 224.325 611.734 221.337C611.734 218.349 612.26 215.499 613.311 212.788C614.363 210.021 615.857 207.614 617.793 205.567C619.785 203.52 622.137 201.887 624.848 200.67C627.615 199.453 630.686 198.844 634.061 198.844C637.437 198.844 640.48 199.453 643.191 200.67C645.958 201.887 648.31 203.52 650.246 205.567C652.238 207.614 653.76 210.021 654.811 212.788C655.863 215.499 656.388 218.349 656.388 221.337C656.388 224.325 655.863 227.202 654.811 229.969C653.76 232.68 652.238 235.06 650.246 237.107C648.31 239.154 645.958 240.787 643.191 242.004C640.48 243.221 637.437 243.83 634.061 243.83ZM621.113 221.42C621.113 223.523 621.445 225.459 622.109 227.23C622.773 229.001 623.686 230.55 624.848 231.878C626.01 233.151 627.366 234.174 628.915 234.949C630.52 235.668 632.235 236.028 634.061 236.028C635.887 236.028 637.575 235.668 639.124 234.949C640.729 234.174 642.112 233.123 643.274 231.795C644.436 230.467 645.349 228.918 646.013 227.147C646.677 225.376 647.009 223.44 647.009 221.337C647.009 219.29 646.677 217.381 646.013 215.61C645.349 213.784 644.436 212.207 643.274 210.879C642.112 209.551 640.729 208.527 639.124 207.808C637.575 207.033 635.887 206.646 634.061 206.646C632.291 206.646 630.603 207.033 628.998 207.808C627.449 208.583 626.093 209.634 624.931 210.962C623.769 212.29 622.829 213.867 622.109 215.693C621.445 217.464 621.113 219.373 621.113 221.42ZM680.422 243.415C677.489 243.415 674.806 242.834 672.371 241.672C669.936 240.455 667.834 238.822 666.063 236.775C664.348 234.728 662.992 232.376 661.996 229.72C661.055 227.064 660.585 224.27 660.585 221.337C660.585 218.238 661.083 215.333 662.079 212.622C663.075 209.855 664.458 207.476 666.229 205.484C668 203.437 670.102 201.832 672.537 200.67C675.027 199.453 677.766 198.844 680.754 198.844C684.24 198.844 687.283 199.674 689.884 201.334C692.54 202.994 694.726 205.152 696.441 207.808V199.591H704.492V241.755C704.492 244.909 703.911 247.703 702.749 250.138C701.587 252.573 699.955 254.62 697.852 256.28C695.805 257.995 693.37 259.296 690.548 260.181C687.726 261.066 684.683 261.509 681.418 261.509C676.604 261.509 672.592 260.679 669.383 259.019C666.229 257.414 663.573 255.146 661.415 252.213L666.561 247.399C668.221 249.723 670.351 251.494 672.952 252.711C675.608 253.928 678.43 254.537 681.418 254.537C683.299 254.537 685.07 254.288 686.73 253.79C688.445 253.292 689.939 252.517 691.212 251.466C692.485 250.415 693.481 249.087 694.2 247.482C694.975 245.877 695.362 243.968 695.362 241.755V235.115C693.813 237.771 691.682 239.818 688.971 241.257C686.26 242.696 683.41 243.415 680.422 243.415ZM683.41 236.028C684.793 236.028 686.121 235.807 687.394 235.364C688.667 234.866 689.829 234.23 690.88 233.455C691.987 232.625 692.927 231.712 693.702 230.716C694.477 229.665 695.03 228.558 695.362 227.396V216.025C694.809 214.642 694.089 213.397 693.204 212.29C692.319 211.128 691.295 210.132 690.133 209.302C689.026 208.472 687.837 207.836 686.564 207.393C685.291 206.895 684.019 206.646 682.746 206.646C680.754 206.646 678.956 207.089 677.351 207.974C675.802 208.804 674.474 209.938 673.367 211.377C672.26 212.76 671.403 214.337 670.794 216.108C670.185 217.879 669.881 219.705 669.881 221.586C669.881 223.578 670.213 225.459 670.877 227.23C671.596 228.945 672.565 230.467 673.782 231.795C674.999 233.068 676.41 234.091 678.015 234.866C679.675 235.641 681.473 236.028 683.41 236.028ZM738.597 207.476C735.056 207.587 731.902 208.417 729.135 209.966C726.424 211.46 724.487 213.618 723.325 216.44V243H714.195V199.591H722.661V209.302C724.155 206.314 726.092 203.935 728.471 202.164C730.906 200.338 733.507 199.342 736.273 199.176C736.827 199.176 737.269 199.176 737.601 199.176C737.989 199.176 738.321 199.204 738.597 199.259V207.476ZM754.964 243.83C752.861 243.83 750.897 243.498 749.071 242.834C747.3 242.115 745.751 241.146 744.423 239.929C743.15 238.712 742.126 237.273 741.352 235.613C740.632 233.953 740.273 232.155 740.273 230.218C740.273 228.171 740.715 226.317 741.601 224.657C742.486 222.997 743.731 221.558 745.336 220.341C746.996 219.124 748.932 218.183 751.146 217.519C753.414 216.855 755.904 216.523 758.616 216.523C760.663 216.523 762.683 216.717 764.675 217.104C766.667 217.436 768.465 217.906 770.07 218.515V215.527C770.07 212.318 769.157 209.828 767.331 208.057C765.505 206.231 762.876 205.318 759.446 205.318C757.122 205.318 754.825 205.761 752.557 206.646C750.343 207.476 748.047 208.693 745.668 210.298L742.846 204.488C748.434 200.725 754.244 198.844 760.276 198.844C766.252 198.844 770.9 200.366 774.22 203.409C777.54 206.452 779.2 210.824 779.2 216.523V232.21C779.2 234.147 780.002 235.143 781.607 235.198V243C780.721 243.166 779.947 243.277 779.283 243.332C778.674 243.387 778.065 243.415 777.457 243.415C775.686 243.415 774.303 242.972 773.307 242.087C772.366 241.202 771.785 240.067 771.564 238.684L771.315 235.945C769.378 238.49 766.971 240.455 764.094 241.838C761.272 243.166 758.228 243.83 754.964 243.83ZM757.454 237.107C759.667 237.107 761.742 236.72 763.679 235.945C765.671 235.115 767.22 233.981 768.327 232.542C769.489 231.546 770.07 230.495 770.07 229.388V223.661C768.52 223.052 766.86 222.582 765.09 222.25C763.374 221.918 761.687 221.752 760.027 221.752C756.762 221.752 754.078 222.471 751.976 223.91C749.928 225.293 748.905 227.147 748.905 229.471C748.905 231.629 749.707 233.455 751.312 234.949C752.916 236.388 754.964 237.107 757.454 237.107ZM855.431 243H846.301V218.681C846.301 214.642 845.637 211.681 844.309 209.8C842.981 207.919 841.045 206.978 838.499 206.978C835.899 206.978 833.519 207.946 831.361 209.883C829.259 211.764 827.737 214.227 826.796 217.27V243H817.666V218.681C817.666 214.586 817.002 211.626 815.674 209.8C814.346 207.919 812.437 206.978 809.947 206.978C807.347 206.978 804.967 207.919 802.809 209.8C800.651 211.681 799.102 214.144 798.161 217.187V243H789.031V199.591H797.331V208.306C799.047 205.263 801.288 202.939 804.054 201.334C806.876 199.674 810.086 198.844 813.682 198.844C817.279 198.844 820.101 199.785 822.148 201.666C824.251 203.547 825.551 205.899 826.049 208.721C827.875 205.512 830.172 203.077 832.938 201.417C835.705 199.702 838.859 198.844 842.4 198.844C844.946 198.844 847.048 199.342 848.708 200.338C850.424 201.279 851.779 202.551 852.775 204.156C853.771 205.761 854.463 207.642 854.85 209.8C855.238 211.903 855.431 214.144 855.431 216.523V243ZM931.107 243H921.977V218.681C921.977 214.642 921.313 211.681 919.985 209.8C918.657 207.919 916.721 206.978 914.175 206.978C911.575 206.978 909.195 207.946 907.037 209.883C904.935 211.764 903.413 214.227 902.472 217.27V243H893.342V218.681C893.342 214.586 892.678 211.626 891.35 209.8C890.022 207.919 888.113 206.978 885.623 206.978C883.023 206.978 880.643 207.919 878.485 209.8C876.327 211.681 874.778 214.144 873.837 217.187V243H864.707V199.591H873.007V208.306C874.723 205.263 876.964 202.939 879.73 201.334C882.552 199.674 885.762 198.844 889.358 198.844C892.955 198.844 895.777 199.785 897.824 201.666C899.927 203.547 901.227 205.899 901.725 208.721C903.551 205.512 905.848 203.077 908.614 201.417C911.381 199.702 914.535 198.844 918.076 198.844C920.622 198.844 922.724 199.342 924.384 200.338C926.1 201.279 927.455 202.551 928.451 204.156C929.447 205.761 930.139 207.642 930.526 209.8C930.914 211.903 931.107 214.144 931.107 216.523V243ZM960.054 243.83C956.679 243.83 953.608 243.249 950.841 242.087C948.075 240.87 945.695 239.237 943.703 237.19C941.767 235.143 940.245 232.763 939.138 230.052C938.087 227.341 937.561 224.463 937.561 221.42C937.561 218.377 938.087 215.499 939.138 212.788C940.245 210.021 941.767 207.614 943.703 205.567C945.695 203.464 948.075 201.832 950.841 200.67C953.608 199.453 956.707 198.844 960.137 198.844C963.513 198.844 966.556 199.453 969.267 200.67C972.034 201.887 974.386 203.52 976.322 205.567C978.259 207.559 979.725 209.911 980.721 212.622C981.773 215.278 982.298 218.072 982.298 221.005C982.298 221.669 982.271 222.305 982.215 222.914C982.16 223.467 982.105 223.938 982.049 224.325H947.272C947.438 226.262 947.881 228.005 948.6 229.554C949.375 231.103 950.343 232.459 951.505 233.621C952.723 234.728 954.078 235.585 955.572 236.194C957.122 236.803 958.726 237.107 960.386 237.107C961.604 237.107 962.793 236.969 963.955 236.692C965.173 236.36 966.279 235.917 967.275 235.364C968.271 234.755 969.157 234.036 969.931 233.206C970.706 232.376 971.315 231.463 971.757 230.467L979.559 232.708C978.065 235.973 975.575 238.656 972.089 240.759C968.659 242.806 964.647 243.83 960.054 243.83ZM973.251 218.017C973.085 216.191 972.615 214.503 971.84 212.954C971.121 211.405 970.18 210.104 969.018 209.053C967.856 207.946 966.501 207.089 964.951 206.48C963.402 205.871 961.77 205.567 960.054 205.567C958.339 205.567 956.707 205.871 955.157 206.48C953.663 207.089 952.335 207.946 951.173 209.053C950.011 210.104 949.071 211.405 948.351 212.954C947.632 214.503 947.189 216.191 947.023 218.017H973.251ZM1012.9 207.476C1009.36 207.587 1006.21 208.417 1003.44 209.966C1000.73 211.46 998.793 213.618 997.631 216.44V243H988.501V199.591H996.967V209.302C998.461 206.314 1000.4 203.935 1002.78 202.164C1005.21 200.338 1007.81 199.342 1010.58 199.176C1011.13 199.176 1011.57 199.176 1011.91 199.176C1012.29 199.176 1012.63 199.204 1012.9 199.259V207.476ZM1034.07 243.83C1030.58 243.83 1027.1 243.277 1023.61 242.17C1020.18 241.008 1017.22 239.376 1014.73 237.273L1018.38 231.463C1020.98 233.344 1023.56 234.783 1026.1 235.779C1028.65 236.72 1031.25 237.19 1033.9 237.19C1036.61 237.19 1038.75 236.664 1040.29 235.613C1041.9 234.562 1042.7 233.068 1042.7 231.131C1042.7 229.305 1041.82 227.977 1040.05 227.147C1038.27 226.317 1035.51 225.404 1031.75 224.408C1029.03 223.689 1026.71 222.997 1024.77 222.333C1022.84 221.669 1021.26 220.894 1020.04 220.009C1018.83 219.124 1017.94 218.1 1017.39 216.938C1016.83 215.776 1016.56 214.365 1016.56 212.705C1016.56 210.492 1016.97 208.527 1017.8 206.812C1018.69 205.097 1019.88 203.658 1021.37 202.496C1022.92 201.279 1024.72 200.366 1026.77 199.757C1028.81 199.148 1031.03 198.844 1033.41 198.844C1036.67 198.844 1039.71 199.342 1042.54 200.338C1045.36 201.334 1047.88 202.773 1050.09 204.654L1046.19 210.132C1042.15 206.923 1037.86 205.318 1033.32 205.318C1031 205.318 1029.03 205.816 1027.43 206.812C1025.88 207.753 1025.11 209.274 1025.11 211.377C1025.11 212.262 1025.27 213.009 1025.6 213.618C1025.94 214.227 1026.46 214.752 1027.18 215.195C1027.96 215.638 1028.92 216.053 1030.09 216.44C1031.3 216.772 1032.8 217.159 1034.57 217.602C1037.5 218.321 1040.02 219.041 1042.12 219.76C1044.28 220.479 1046.05 221.337 1047.43 222.333C1048.82 223.274 1049.84 224.408 1050.5 225.736C1051.17 227.009 1051.5 228.558 1051.5 230.384C1051.5 234.534 1049.92 237.826 1046.77 240.261C1043.67 242.64 1039.44 243.83 1034.07 243.83ZM554.987 281.07H563.121L586.361 340H576.567L570.342 323.981H547.6L541.458 340H531.581L554.987 281.07ZM568.516 317.092L559.054 291.777L549.26 317.092H568.516ZM606.525 340.83C603.039 340.83 599.553 340.277 596.067 339.17C592.637 338.008 589.676 336.376 587.186 334.273L590.838 328.463C593.439 330.344 596.012 331.783 598.557 332.779C601.103 333.72 603.703 334.19 606.359 334.19C609.071 334.19 611.201 333.664 612.75 332.613C614.355 331.562 615.157 330.068 615.157 328.131C615.157 326.305 614.272 324.977 612.501 324.147C610.731 323.317 607.964 322.404 604.201 321.408C601.49 320.689 599.166 319.997 597.229 319.333C595.293 318.669 593.716 317.894 592.498 317.009C591.281 316.124 590.396 315.1 589.842 313.938C589.289 312.776 589.012 311.365 589.012 309.705C589.012 307.492 589.427 305.527 590.257 303.812C591.143 302.097 592.332 300.658 593.826 299.496C595.376 298.279 597.174 297.366 599.221 296.757C601.269 296.148 603.482 295.844 605.861 295.844C609.126 295.844 612.169 296.342 614.991 297.338C617.813 298.334 620.331 299.773 622.544 301.654L618.643 307.132C614.604 303.923 610.316 302.318 605.778 302.318C603.454 302.318 601.49 302.816 599.885 303.812C598.336 304.753 597.561 306.274 597.561 308.377C597.561 309.262 597.727 310.009 598.059 310.618C598.391 311.227 598.917 311.752 599.636 312.195C600.411 312.638 601.379 313.053 602.541 313.44C603.759 313.772 605.253 314.159 607.023 314.602C609.956 315.321 612.474 316.041 614.576 316.76C616.734 317.479 618.505 318.337 619.888 319.333C621.272 320.274 622.295 321.408 622.959 322.736C623.623 324.009 623.955 325.558 623.955 327.384C623.955 331.534 622.378 334.826 619.224 337.261C616.126 339.64 611.893 340.83 606.525 340.83ZM646.456 340.83C642.97 340.83 639.484 340.277 635.998 339.17C632.568 338.008 629.607 336.376 627.117 334.273L630.769 328.463C633.37 330.344 635.943 331.783 638.488 332.779C641.034 333.72 643.634 334.19 646.29 334.19C649.002 334.19 651.132 333.664 652.681 332.613C654.286 331.562 655.088 330.068 655.088 328.131C655.088 326.305 654.203 324.977 652.432 324.147C650.662 323.317 647.895 322.404 644.132 321.408C641.421 320.689 639.097 319.997 637.16 319.333C635.224 318.669 633.647 317.894 632.429 317.009C631.212 316.124 630.327 315.1 629.773 313.938C629.22 312.776 628.943 311.365 628.943 309.705C628.943 307.492 629.358 305.527 630.188 303.812C631.074 302.097 632.263 300.658 633.757 299.496C635.307 298.279 637.105 297.366 639.152 296.757C641.2 296.148 643.413 295.844 645.792 295.844C649.057 295.844 652.1 296.342 654.922 297.338C657.744 298.334 660.262 299.773 662.475 301.654L658.574 307.132C654.535 303.923 650.247 302.318 645.709 302.318C643.385 302.318 641.421 302.816 639.816 303.812C638.267 304.753 637.492 306.274 637.492 308.377C637.492 309.262 637.658 310.009 637.99 310.618C638.322 311.227 638.848 311.752 639.567 312.195C640.342 312.638 641.31 313.053 642.472 313.44C643.69 313.772 645.184 314.159 646.954 314.602C649.887 315.321 652.405 316.041 654.507 316.76C656.665 317.479 658.436 318.337 659.819 319.333C661.203 320.274 662.226 321.408 662.89 322.736C663.554 324.009 663.886 325.558 663.886 327.384C663.886 331.534 662.309 334.826 659.155 337.261C656.057 339.64 651.824 340.83 646.456 340.83ZM690.122 340.83C686.691 340.83 683.593 340.221 680.826 339.004C678.115 337.787 675.791 336.154 673.854 334.107C671.917 332.06 670.423 329.68 669.372 326.969C668.321 324.202 667.795 321.325 667.795 318.337C667.795 315.349 668.321 312.499 669.372 309.788C670.423 307.021 671.917 304.614 673.854 302.567C675.846 300.52 678.198 298.887 680.909 297.67C683.676 296.453 686.747 295.844 690.122 295.844C693.497 295.844 696.541 296.453 699.252 297.67C702.019 298.887 704.37 300.52 706.307 302.567C708.299 304.614 709.821 307.021 710.872 309.788C711.923 312.499 712.449 315.349 712.449 318.337C712.449 321.325 711.923 324.202 710.872 326.969C709.821 329.68 708.299 332.06 706.307 334.107C704.37 336.154 702.019 337.787 699.252 339.004C696.541 340.221 693.497 340.83 690.122 340.83ZM677.174 318.42C677.174 320.523 677.506 322.459 678.17 324.23C678.834 326.001 679.747 327.55 680.909 328.878C682.071 330.151 683.427 331.174 684.976 331.949C686.581 332.668 688.296 333.028 690.122 333.028C691.948 333.028 693.636 332.668 695.185 331.949C696.79 331.174 698.173 330.123 699.335 328.795C700.497 327.467 701.41 325.918 702.074 324.147C702.738 322.376 703.07 320.44 703.07 318.337C703.07 316.29 702.738 314.381 702.074 312.61C701.41 310.784 700.497 309.207 699.335 307.879C698.173 306.551 696.79 305.527 695.185 304.808C693.636 304.033 691.948 303.646 690.122 303.646C688.351 303.646 686.664 304.033 685.059 304.808C683.51 305.583 682.154 306.634 680.992 307.962C679.83 309.29 678.889 310.867 678.17 312.693C677.506 314.464 677.174 316.373 677.174 318.42ZM716.48 318.254C716.48 315.211 717.005 312.333 718.057 309.622C719.108 306.911 720.602 304.531 722.539 302.484C724.531 300.437 726.91 298.832 729.677 297.67C732.443 296.453 735.542 295.844 738.973 295.844C743.455 295.844 747.3 296.84 750.51 298.832C753.774 300.769 756.209 303.369 757.814 306.634L748.933 309.456C747.881 307.63 746.47 306.219 744.7 305.223C742.929 304.172 740.965 303.646 738.807 303.646C736.981 303.646 735.265 304.006 733.661 304.725C732.111 305.444 730.756 306.468 729.594 307.796C728.432 309.069 727.519 310.59 726.855 312.361C726.191 314.132 725.859 316.096 725.859 318.254C725.859 320.357 726.191 322.321 726.855 324.147C727.574 325.918 728.515 327.467 729.677 328.795C730.894 330.123 732.277 331.174 733.827 331.949C735.431 332.668 737.119 333.028 738.89 333.028C739.996 333.028 741.103 332.89 742.21 332.613C743.316 332.281 744.312 331.838 745.198 331.285C746.138 330.732 746.941 330.095 747.605 329.376C748.324 328.657 748.85 327.882 749.182 327.052L758.146 329.708C756.707 332.973 754.3 335.656 750.925 337.759C747.549 339.806 743.565 340.83 738.973 340.83C735.597 340.83 732.526 340.221 729.76 339.004C726.993 337.787 724.614 336.154 722.622 334.107C720.685 332.004 719.163 329.597 718.057 326.886C717.005 324.175 716.48 321.297 716.48 318.254ZM764.42 340V296.591H773.55V340H764.42ZM764.42 289.453V279.41H773.55V289.453H764.42ZM794.814 340.83C792.711 340.83 790.747 340.498 788.921 339.834C787.15 339.115 785.601 338.146 784.273 336.929C783 335.712 781.976 334.273 781.202 332.613C780.482 330.953 780.123 329.155 780.123 327.218C780.123 325.171 780.565 323.317 781.451 321.657C782.336 319.997 783.581 318.558 785.186 317.341C786.846 316.124 788.782 315.183 790.996 314.519C793.264 313.855 795.754 313.523 798.466 313.523C800.513 313.523 802.533 313.717 804.525 314.104C806.517 314.436 808.315 314.906 809.92 315.515V312.527C809.92 309.318 809.007 306.828 807.181 305.057C805.355 303.231 802.726 302.318 799.296 302.318C796.972 302.318 794.675 302.761 792.407 303.646C790.193 304.476 787.897 305.693 785.518 307.298L782.696 301.488C788.284 297.725 794.094 295.844 800.126 295.844C806.102 295.844 810.75 297.366 814.07 300.409C817.39 303.452 819.05 307.824 819.05 313.523V329.21C819.05 331.147 819.852 332.143 821.457 332.198V340C820.571 340.166 819.797 340.277 819.133 340.332C818.524 340.387 817.915 340.415 817.307 340.415C815.536 340.415 814.153 339.972 813.157 339.087C812.216 338.202 811.635 337.067 811.414 335.684L811.165 332.945C809.228 335.49 806.821 337.455 803.944 338.838C801.122 340.166 798.078 340.83 794.814 340.83ZM797.304 334.107C799.517 334.107 801.592 333.72 803.529 332.945C805.521 332.115 807.07 330.981 808.177 329.542C809.339 328.546 809.92 327.495 809.92 326.388V320.661C808.37 320.052 806.71 319.582 804.94 319.25C803.224 318.918 801.537 318.752 799.877 318.752C796.612 318.752 793.928 319.471 791.826 320.91C789.778 322.293 788.755 324.147 788.755 326.471C788.755 328.629 789.557 330.455 791.162 331.949C792.766 333.388 794.814 334.107 797.304 334.107ZM852.71 337.759C851.548 338.312 849.943 338.949 847.896 339.668C845.849 340.332 843.663 340.664 841.339 340.664C839.9 340.664 838.545 340.47 837.272 340.083C835.999 339.696 834.865 339.115 833.869 338.34C832.928 337.565 832.181 336.569 831.628 335.352C831.075 334.079 830.798 332.558 830.798 330.787V303.646H825.071V296.591H830.798V282.315H839.928V296.591H849.39V303.646H839.928V327.882C840.039 329.431 840.509 330.566 841.339 331.285C842.224 331.949 843.303 332.281 844.576 332.281C845.849 332.281 847.066 332.06 848.228 331.617C849.39 331.174 850.248 330.815 850.801 330.538L852.71 337.759ZM857.789 340V296.591H866.919V340H857.789ZM857.789 289.453V279.41H866.919V289.453H857.789ZM896.15 340.83C892.719 340.83 889.621 340.221 886.854 339.004C884.143 337.787 881.819 336.154 879.882 334.107C877.945 332.06 876.451 329.68 875.4 326.969C874.349 324.202 873.823 321.325 873.823 318.337C873.823 315.349 874.349 312.499 875.4 309.788C876.451 307.021 877.945 304.614 879.882 302.567C881.874 300.52 884.226 298.887 886.937 297.67C889.704 296.453 892.775 295.844 896.15 295.844C899.525 295.844 902.569 296.453 905.28 297.67C908.047 298.887 910.398 300.52 912.335 302.567C914.327 304.614 915.849 307.021 916.9 309.788C917.951 312.499 918.477 315.349 918.477 318.337C918.477 321.325 917.951 324.202 916.9 326.969C915.849 329.68 914.327 332.06 912.335 334.107C910.398 336.154 908.047 337.787 905.28 339.004C902.569 340.221 899.525 340.83 896.15 340.83ZM883.202 318.42C883.202 320.523 883.534 322.459 884.198 324.23C884.862 326.001 885.775 327.55 886.937 328.878C888.099 330.151 889.455 331.174 891.004 331.949C892.609 332.668 894.324 333.028 896.15 333.028C897.976 333.028 899.664 332.668 901.213 331.949C902.818 331.174 904.201 330.123 905.363 328.795C906.525 327.467 907.438 325.918 908.102 324.147C908.766 322.376 909.098 320.44 909.098 318.337C909.098 316.29 908.766 314.381 908.102 312.61C907.438 310.784 906.525 309.207 905.363 307.879C904.201 306.551 902.818 305.527 901.213 304.808C899.664 304.033 897.976 303.646 896.15 303.646C894.379 303.646 892.692 304.033 891.087 304.808C889.538 305.583 888.182 306.634 887.02 307.962C885.858 309.29 884.917 310.867 884.198 312.693C883.534 314.464 883.202 316.373 883.202 318.42ZM964.257 340H955.127V315.681C955.127 311.586 954.463 308.626 953.135 306.8C951.862 304.919 949.953 303.978 947.408 303.978C946.08 303.978 944.752 304.227 943.424 304.725C942.096 305.223 940.851 305.942 939.689 306.883C938.527 307.768 937.475 308.847 936.535 310.12C935.649 311.337 934.958 312.693 934.46 314.187V340H925.33V296.591H933.63V305.306C935.29 302.373 937.697 300.077 940.851 298.417C944.005 296.702 947.491 295.844 951.309 295.844C953.909 295.844 956.04 296.314 957.7 297.255C959.36 298.196 960.66 299.496 961.601 301.156C962.597 302.761 963.288 304.642 963.676 306.8C964.063 308.903 964.257 311.144 964.257 313.523V340Z" fill="black"/>
<path fill-rule="evenodd" clip-rule="evenodd" d="M272.353 87.4473H0L4.29153e-05 87.4474V262.931L114.675 336.819V161.335L114.675 161.335H387.029L272.353 87.4473Z" fill="url(#paint0_linear)"/>
<path fill-rule="evenodd" clip-rule="evenodd" d="M213.675 338.372L486.029 338.372L486.029 338.372L486.029 162.888L371.354 89L371.354 264.484L371.354 264.484L99.0001 264.484L213.675 338.372Z" fill="url(#paint1_linear)"/>
<path fill-rule="evenodd" clip-rule="evenodd" d="M203.616 331.372H475.97L475.962 331.367L475.962 155.888L361.287 82L361.287 257.484L361.287 257.484H88.9412L203.616 331.372Z" fill="#FFC700"/>
<path d="M369 109L369 253.963L464 315L464 170.037L369 109Z" fill="url(#paint2_linear)"/>
<defs>
<linearGradient id="paint0_linear" x1="272.353" y1="87.4473" x2="200.948" y2="359.466" gradientUnits="userSpaceOnUse">
<stop stop-color="#151371"/>
<stop offset="0.0001" stop-color="#151371"/>
<stop offset="1" stop-color="#FF00B8"/>
</linearGradient>
<linearGradient id="paint1_linear" x1="213.675" y1="338.372" x2="285.081" y2="66.3532" gradientUnits="userSpaceOnUse">
<stop stop-color="#151371"/>
<stop offset="0.0001" stop-color="#151371"/>
<stop offset="1" stop-color="#FF00B8"/>
</linearGradient>
<linearGradient id="paint2_linear" x1="369" y1="212" x2="464" y2="212" gradientUnits="userSpaceOnUse">
<stop stop-color="#34107A"/>
<stop offset="1" stop-color="#D503AB"/>
</linearGradient>
</defs>
</svg>
