<svg width="604" height="604" viewBox="0 0 604 604" fill="none" xmlns="http://www.w3.org/2000/svg">
<rect width="604" height="604" fill="white"/>
<path d="M281.307 321V292.384L269.491 314.056H266.019L254.147 292.384V321H247.875V281.24H254.595L267.755 305.544L280.915 281.24H287.635V321H281.307ZM295.761 321V281.24H312.449C314.241 281.24 315.884 281.613 317.377 282.36C318.908 283.107 320.215 284.096 321.297 285.328C322.38 286.523 323.22 287.904 323.817 289.472C324.452 291.003 324.769 292.571 324.769 294.176C324.769 295.856 324.471 297.48 323.873 299.048C323.313 300.579 322.511 301.96 321.465 303.192C320.42 304.387 319.151 305.357 317.657 306.104C316.201 306.813 314.577 307.168 312.785 307.168H302.033V321H295.761ZM302.033 301.624H312.393C313.289 301.624 314.092 301.437 314.801 301.064C315.548 300.691 316.183 300.168 316.705 299.496C317.228 298.824 317.639 298.04 317.937 297.144C318.236 296.248 318.385 295.259 318.385 294.176C318.385 293.056 318.217 292.048 317.881 291.152C317.545 290.256 317.079 289.491 316.481 288.856C315.884 288.184 315.193 287.68 314.409 287.344C313.663 286.971 312.879 286.784 312.057 286.784H302.033V301.624ZM339 281.24H344.488L360.168 321H353.56L349.36 310.192H334.016L329.872 321H323.208L339 281.24ZM348.128 305.544L341.744 288.464L335.136 305.544H348.128Z" fill="black"/>
<path fill-rule="evenodd" clip-rule="evenodd" d="M331.353 179.447H59L59 179.447V354.931L173.675 428.819V253.335L173.675 253.335H446.029L331.353 179.447Z" fill="url(#paint0_linear)"/>
<path fill-rule="evenodd" clip-rule="evenodd" d="M272.675 430.372L545.029 430.372L545.029 430.372L545.029 254.888L430.354 181L430.354 356.484L430.354 356.484L158 356.484L272.675 430.372Z" fill="url(#paint1_linear)"/>
<path fill-rule="evenodd" clip-rule="evenodd" d="M262.616 423.372H534.97L534.962 423.367V247.888L420.287 174L420.287 349.484L420.287 349.484H147.941L262.616 423.372Z" fill="#FFC700"/>
<path d="M428 201L428 345.963L523 407V262.037L428 201Z" fill="url(#paint2_linear)"/>
<defs>
<linearGradient id="paint0_linear" x1="331.353" y1="179.447" x2="259.948" y2="451.466" gradientUnits="userSpaceOnUse">
<stop stop-color="#151371"/>
<stop offset="0.0001" stop-color="#151371"/>
<stop offset="1" stop-color="#FF00B8"/>
</linearGradient>
<linearGradient id="paint1_linear" x1="272.675" y1="430.372" x2="344.081" y2="158.353" gradientUnits="userSpaceOnUse">
<stop stop-color="#151371"/>
<stop offset="0.0001" stop-color="#151371"/>
<stop offset="1" stop-color="#FF00B8"/>
</linearGradient>
<linearGradient id="paint2_linear" x1="428" y1="304" x2="523" y2="304" gradientUnits="userSpaceOnUse">
<stop stop-color="#34107A"/>
<stop offset="1" stop-color="#D503AB"/>
</linearGradient>
</defs>
</svg>
